<svg width="36" height="36" viewBox="0 0 36 36" fill="none" xmlns="http://www.w3.org/2000/svg">
<path d="M18 25.5C19.65 25.5 21 24.15 21 22.5C21 20.85 19.65 19.5 18 19.5C16.35 19.5 15 20.85 15 22.5C15 24.15 16.35 25.5 18 25.5ZM27 12H25.5V9C25.5 4.86 22.14 1.5 18 1.5C13.86 1.5 10.5 4.86 10.5 9H13.35C13.35 6.435 15.435 4.35 18 4.35C20.565 4.35 22.65 6.435 22.65 9V12H9C7.35 12 6 13.35 6 15V30C6 31.65 7.35 33 9 33H27C28.65 33 30 31.65 30 30V15C30 13.35 28.65 12 27 12ZM27 30H9V15H27V30Z" fill="#2C2C2C"/>
</svg>
