<svg width="75" height="81" viewBox="0 0 75 81" fill="none" xmlns="http://www.w3.org/2000/svg">
<path d="M34.375 28.9237C36.8437 28.9237 38.8438 31.0837 38.8438 33.75C38.8438 36.4162 36.8437 38.5762 34.375 38.5762C31.9063 38.5762 29.9062 36.4162 29.9062 33.75C29.9062 31.0837 31.9063 28.9237 34.375 28.9237Z" fill="white"/>
<path d="M34.375 10.125C46.0938 10.125 55.625 20.0475 56.1875 32.535L62.1875 41.175C62.9687 42.2887 62.2187 43.875 60.9375 43.875H56.25V54C56.25 57.7125 53.4375 60.75 50 60.75H46.875V70.875H25V55.08C17.625 51.3 12.5 43.1662 12.5 33.75C12.5 20.6888 22.2812 10.125 34.375 10.125ZM25 33.75C25 34.1887 25.0312 34.6275 25.0625 35.0663L22.4688 37.2938C22.2188 37.4963 22.1562 37.8337 22.3125 38.1375L24.8125 42.8287C24.9688 43.1325 25.3125 43.2337 25.5625 43.1325L28.6562 41.7825C29.3125 42.3225 30 42.7613 30.75 43.0988L31.25 46.6763C31.2812 47.0137 31.5625 47.25 31.875 47.25H36.875C37.1875 47.25 37.4375 47.0137 37.5 46.6763L37.9687 43.0988C38.75 42.7613 39.4375 42.3225 40.0937 41.7825L43.1875 43.1325C43.4687 43.2337 43.8125 43.1325 43.9687 42.8287L46.4687 38.1375C46.625 37.8675 46.5625 37.4963 46.3125 37.2938L43.6875 35.0663C43.7187 34.6275 43.75 34.1887 43.75 33.75C43.75 33.3113 43.6875 32.8387 43.625 32.4337L46.2812 30.2062C46.5312 30.0037 46.5937 29.6662 46.4375 29.3287L43.9375 24.6712C43.7812 24.3675 43.4687 24.2662 43.1875 24.3675L40.0625 25.7175C39.4375 25.2112 38.7187 24.7388 37.9687 24.4012L37.5 20.8238C37.4375 20.4862 37.1875 20.25 36.875 20.25H31.875C31.5625 20.25 31.3125 20.4862 31.25 20.8238L30.7812 24.4012C30.0312 24.7388 29.3438 25.1775 28.6875 25.7175L25.5625 24.3675C25.2812 24.2662 24.9375 24.3675 24.8125 24.6712L22.3125 29.3287C22.1562 29.6325 22.2188 30.0037 22.4688 30.2062L25.125 32.4337C25.0312 32.8387 25 33.2775 25 33.75Z" fill="white"/>
</svg>
