<svg width="188" height="191" viewBox="0 0 188 191" fill="none" xmlns="http://www.w3.org/2000/svg">
<path d="M82.2847 0.316833C126.255 0.316833 162.018 31.3084 164.129 70.3114L186.642 97.2972C189.573 100.776 186.759 105.73 181.951 105.73H164.363V137.354C164.363 148.95 153.81 158.437 140.912 158.437H129.187V190.061H47.1082V140.728C19.436 128.921 0.206161 103.517 0.206161 74.1063C0.206161 33.3112 36.907 0.316833 82.2847 0.316833ZM47.1082 74.1063C47.1082 75.4766 47.2254 76.847 47.3427 78.2174L37.6105 85.1747C36.6725 85.8072 36.438 86.8613 37.0242 87.81L46.4046 102.462C46.9909 103.411 48.2807 103.727 49.2188 103.411L60.827 99.1947C63.2894 100.881 65.869 102.252 68.6831 103.306L70.5592 114.48C70.6764 115.534 71.7317 116.272 72.9043 116.272H91.6651C92.8376 116.272 93.7757 115.534 94.0102 114.48L95.769 103.306C98.7004 102.252 101.28 100.881 103.742 99.1947L115.351 103.411C116.406 103.727 117.696 103.411 118.282 102.462L127.662 87.81C128.249 86.9667 128.014 85.8072 127.076 85.1747L117.227 78.2174C117.344 76.847 117.461 75.4766 117.461 74.1063C117.461 72.7359 117.227 71.2601 116.992 69.9951L126.959 63.0378C127.897 62.4054 128.131 61.3512 127.545 60.2971L118.165 45.75C117.578 44.8013 116.406 44.4851 115.351 44.8013L103.625 49.0179C101.28 47.4367 98.5831 45.9609 95.769 44.9067L94.0102 33.7329C93.7757 32.6788 92.8376 31.9409 91.6651 31.9409H72.9043C71.7317 31.9409 70.7937 32.6788 70.5592 33.7329L68.8003 44.9067C65.9862 45.9609 63.4066 47.3312 60.9443 49.0179L49.2188 44.8013C48.1635 44.4851 46.8737 44.8013 46.4046 45.75L37.0242 60.2971C36.438 61.2458 36.6725 62.4054 37.6105 63.0378L47.5772 69.9951C47.2254 71.2601 47.1082 72.6305 47.1082 74.1063Z" fill="white"/>
</svg>
