<svg width="1050" height="988" viewBox="0 0 1050 988" fill="none" xmlns="http://www.w3.org/2000/svg">
<rect width="1050" height="988" fill="url(#paint0_linear)"/>
<g filter="url(#filter0_d)">
<rect x="360" y="229" width="329" height="529" rx="7" fill="#393939"/>
</g>
<g filter="url(#filter1_ii)">
<rect x="380" y="248" width="289" height="491" rx="7" fill="#393939"/>
</g>
<g filter="url(#filter2_dd)">
<rect x="402" y="273" width="244" height="443" rx="10" fill="#393939"/>
</g>
<g filter="url(#filter3_d)">
<path d="M518.958 373.762V334.083C491.25 336.854 469.083 360.628 469.083 389.5C469.083 418.372 491.25 442.146 518.958 444.917V405.238C513.417 402.966 507.875 396.815 507.875 389.5C507.875 382.185 513.417 376.034 518.958 373.762ZM540.349 383.958H579.917C577.257 357.635 557.75 336.688 530.042 334.083V373.762C535.583 375.424 538.465 379.192 540.349 383.958ZM530.042 405.238V444.917C557.75 442.312 577.257 421.365 579.917 395.042H540.349C538.465 399.807 535.583 403.576 530.042 405.238Z" fill="#17C507"/>
</g>
<g filter="url(#filter4_d)">
<path d="M468.883 527H453.045V524.792L461.412 515.495C462.652 514.09 463.504 512.95 463.969 512.075C464.445 511.19 464.683 510.277 464.683 509.336C464.683 508.074 464.301 507.039 463.537 506.231C462.773 505.424 461.755 505.02 460.482 505.02C458.955 505.02 457.765 505.457 456.913 506.331C456.072 507.194 455.651 508.401 455.651 509.95H452.58C452.58 507.726 453.294 505.927 454.722 504.555C456.16 503.182 458.081 502.496 460.482 502.496C462.729 502.496 464.506 503.088 465.812 504.272C467.118 505.446 467.771 507.012 467.771 508.971C467.771 511.35 466.254 514.184 463.222 517.471L456.747 524.493H468.883V527ZM472.353 531.814L470.609 530.619C471.65 529.169 472.192 527.675 472.236 526.137V523.364H475.241V525.771C475.241 526.889 474.965 528.007 474.411 529.125C473.869 530.243 473.183 531.139 472.353 531.814ZM480.222 514.881L481.45 502.828H493.835V505.667H484.057L483.326 512.258C484.51 511.561 485.855 511.212 487.36 511.212C489.563 511.212 491.312 511.942 492.606 513.403C493.901 514.853 494.549 516.818 494.549 519.297C494.549 521.787 493.874 523.752 492.523 525.19C491.184 526.618 489.308 527.332 486.896 527.332C484.759 527.332 483.016 526.74 481.666 525.556C480.316 524.371 479.547 522.733 479.358 520.642H482.264C482.452 522.025 482.944 523.071 483.741 523.779C484.538 524.477 485.59 524.825 486.896 524.825C488.323 524.825 489.441 524.338 490.249 523.364C491.068 522.39 491.478 521.046 491.478 519.33C491.478 517.714 491.035 516.419 490.149 515.445C489.275 514.46 488.107 513.968 486.646 513.968C485.307 513.968 484.256 514.261 483.492 514.848L482.679 515.512L480.222 514.881ZM513.06 516.69C513.06 520.287 512.445 522.96 511.217 524.709C509.988 526.458 508.068 527.332 505.456 527.332C502.877 527.332 500.968 526.48 499.729 524.775C498.489 523.06 497.847 520.503 497.803 517.105V513.005C497.803 509.452 498.417 506.812 499.646 505.086C500.874 503.359 502.8 502.496 505.423 502.496C508.024 502.496 509.938 503.332 511.167 505.003C512.396 506.663 513.026 509.231 513.06 512.706V516.69ZM509.988 512.49C509.988 509.889 509.623 507.997 508.893 506.812C508.162 505.617 507.006 505.02 505.423 505.02C503.851 505.02 502.706 505.612 501.986 506.796C501.267 507.98 500.896 509.801 500.874 512.258V517.172C500.874 519.784 501.25 521.715 502.003 522.966C502.767 524.205 503.918 524.825 505.456 524.825C506.972 524.825 508.096 524.239 508.826 523.065C509.568 521.892 509.955 520.044 509.988 517.521V512.49ZM532.151 516.69C532.151 520.287 531.537 522.96 530.309 524.709C529.08 526.458 527.16 527.332 524.548 527.332C521.969 527.332 520.06 526.48 518.82 524.775C517.581 523.06 516.939 520.503 516.895 517.105V513.005C516.895 509.452 517.509 506.812 518.737 505.086C519.966 503.359 521.892 502.496 524.515 502.496C527.116 502.496 529.03 503.332 530.259 505.003C531.487 506.663 532.118 509.231 532.151 512.706V516.69ZM529.08 512.49C529.08 509.889 528.715 507.997 527.984 506.812C527.254 505.617 526.097 505.02 524.515 505.02C522.943 505.02 521.798 505.612 521.078 506.796C520.359 507.98 519.988 509.801 519.966 512.258V517.172C519.966 519.784 520.342 521.715 521.095 522.966C521.858 524.205 523.009 524.825 524.548 524.825C526.064 524.825 527.188 524.239 527.918 523.065C528.66 521.892 529.047 520.044 529.08 517.521V512.49ZM548.736 527H545.549V502.828H548.736V527ZM573.157 527H569.953L557.784 508.373V527H554.58V502.828H557.784L569.986 521.538V502.828H573.157V527ZM587.684 517.222H582.006V527H578.802V502.828H586.804C589.526 502.828 591.618 503.448 593.079 504.688C594.551 505.927 595.287 507.731 595.287 510.1C595.287 511.605 594.878 512.916 594.059 514.034C593.251 515.152 592.122 515.988 590.672 516.541L596.35 526.801V527H592.93L587.684 517.222ZM582.006 514.615H586.903C588.486 514.615 589.742 514.206 590.672 513.387C591.613 512.568 592.083 511.472 592.083 510.1C592.083 508.605 591.635 507.46 590.738 506.663C589.853 505.866 588.569 505.462 586.887 505.451H582.006V514.615Z" fill="white"/>
</g>
<rect x="441" y="619" width="168" height="42" rx="21" fill="#596AFF"/>
<path d="M466.717 649V629.805H472.993C475.076 629.805 476.64 630.235 477.686 631.097C478.741 631.958 479.268 633.232 479.268 634.92C479.268 635.816 479.013 636.612 478.503 637.306C477.994 637.992 477.299 638.523 476.42 638.901C477.458 639.191 478.275 639.745 478.873 640.562C479.479 641.371 479.782 642.338 479.782 643.463C479.782 645.186 479.224 646.539 478.108 647.523C476.992 648.508 475.414 649 473.375 649H466.717ZM469.249 640.022V646.93H473.428C474.605 646.93 475.533 646.627 476.209 646.021C476.895 645.405 477.238 644.562 477.238 643.489C477.238 641.178 475.981 640.022 473.467 640.022H469.249ZM469.249 637.992H473.072C474.179 637.992 475.062 637.715 475.722 637.161C476.39 636.607 476.724 635.856 476.724 634.907C476.724 633.852 476.416 633.087 475.801 632.613C475.186 632.129 474.25 631.888 472.993 631.888H469.249V637.992ZM497.053 629.805V642.856C497.044 644.667 496.473 646.148 495.339 647.299C494.214 648.451 492.685 649.097 490.751 649.237L490.079 649.264C487.978 649.264 486.304 648.697 485.056 647.563C483.808 646.429 483.175 644.869 483.157 642.883V629.805H485.662V642.804C485.662 644.192 486.044 645.273 486.809 646.047C487.574 646.812 488.664 647.194 490.079 647.194C491.511 647.194 492.605 646.812 493.361 646.047C494.126 645.282 494.508 644.206 494.508 642.817V629.805H497.053ZM506.901 639.442L511.911 629.805H514.785L508.167 641.841V649H505.635V641.841L499.017 629.805H501.917L506.901 639.442ZM538.713 649H536.168L526.505 634.208V649H523.96V629.805H526.505L536.195 644.663V629.805H538.713V649ZM557.974 640.022C557.974 641.903 557.658 643.546 557.025 644.953C556.392 646.35 555.496 647.418 554.335 648.156C553.175 648.895 551.822 649.264 550.275 649.264C548.763 649.264 547.423 648.895 546.254 648.156C545.085 647.409 544.175 646.35 543.525 644.979C542.883 643.599 542.554 642.004 542.536 640.193V638.809C542.536 636.963 542.857 635.333 543.499 633.918C544.14 632.503 545.045 631.422 546.214 630.675C547.392 629.919 548.737 629.541 550.249 629.541C551.787 629.541 553.14 629.915 554.309 630.662C555.487 631.4 556.392 632.477 557.025 633.892C557.658 635.298 557.974 636.937 557.974 638.809V640.022ZM555.456 638.783C555.456 636.506 554.999 634.762 554.085 633.549C553.171 632.327 551.892 631.716 550.249 631.716C548.649 631.716 547.388 632.327 546.465 633.549C545.551 634.762 545.081 636.449 545.054 638.611V640.022C545.054 642.228 545.516 643.964 546.438 645.229C547.37 646.486 548.649 647.115 550.275 647.115C551.91 647.115 553.175 646.521 554.072 645.335C554.968 644.14 555.43 642.43 555.456 640.207V638.783ZM565.911 642.949L566.28 645.48L566.82 643.199L570.617 629.805H572.753L576.458 643.199L576.985 645.52L577.394 642.936L580.373 629.805H582.917L578.264 649H575.957L572.001 635.012L571.698 633.549L571.395 635.012L567.295 649H564.988L560.347 629.805H562.878L565.911 642.949Z" fill="white"/>
<defs>
<filter id="filter0_d" x="356" y="229" width="337" height="537" filterUnits="userSpaceOnUse" color-interpolation-filters="sRGB">
<feFlood flood-opacity="0" result="BackgroundImageFix"/>
<feColorMatrix in="SourceAlpha" type="matrix" values="0 0 0 0 0 0 0 0 0 0 0 0 0 0 0 0 0 0 127 0"/>
<feOffset dy="4"/>
<feGaussianBlur stdDeviation="2"/>
<feColorMatrix type="matrix" values="0 0 0 0 0 0 0 0 0 0 0 0 0 0 0 0 0 0 0.25 0"/>
<feBlend mode="normal" in2="BackgroundImageFix" result="effect1_dropShadow"/>
<feBlend mode="normal" in="SourceGraphic" in2="effect1_dropShadow" result="shape"/>
</filter>
<filter id="filter1_ii" x="376" y="244" width="297" height="499" filterUnits="userSpaceOnUse" color-interpolation-filters="sRGB">
<feFlood flood-opacity="0" result="BackgroundImageFix"/>
<feBlend mode="normal" in="SourceGraphic" in2="BackgroundImageFix" result="shape"/>
<feColorMatrix in="SourceAlpha" type="matrix" values="0 0 0 0 0 0 0 0 0 0 0 0 0 0 0 0 0 0 127 0" result="hardAlpha"/>
<feOffset dx="4" dy="4"/>
<feGaussianBlur stdDeviation="4"/>
<feComposite in2="hardAlpha" operator="arithmetic" k2="-1" k3="1"/>
<feColorMatrix type="matrix" values="0 0 0 0 0 0 0 0 0 0 0 0 0 0 0 0 0 0 0.25 0"/>
<feBlend mode="normal" in2="shape" result="effect1_innerShadow"/>
<feColorMatrix in="SourceAlpha" type="matrix" values="0 0 0 0 0 0 0 0 0 0 0 0 0 0 0 0 0 0 127 0" result="hardAlpha"/>
<feOffset dx="-4" dy="-4"/>
<feGaussianBlur stdDeviation="4"/>
<feComposite in2="hardAlpha" operator="arithmetic" k2="-1" k3="1"/>
<feColorMatrix type="matrix" values="0 0 0 0 0 0 0 0 0 0 0 0 0 0 0 0 0 0 0.25 0"/>
<feBlend mode="normal" in2="effect1_innerShadow" result="effect2_innerShadow"/>
</filter>
<filter id="filter2_dd" x="390" y="261" width="268" height="467" filterUnits="userSpaceOnUse" color-interpolation-filters="sRGB">
<feFlood flood-opacity="0" result="BackgroundImageFix"/>
<feColorMatrix in="SourceAlpha" type="matrix" values="0 0 0 0 0 0 0 0 0 0 0 0 0 0 0 0 0 0 127 0"/>
<feOffset dx="4" dy="4"/>
<feGaussianBlur stdDeviation="4"/>
<feColorMatrix type="matrix" values="0 0 0 0 0 0 0 0 0 0 0 0 0 0 0 0 0 0 0.25 0"/>
<feBlend mode="normal" in2="BackgroundImageFix" result="effect1_dropShadow"/>
<feColorMatrix in="SourceAlpha" type="matrix" values="0 0 0 0 0 0 0 0 0 0 0 0 0 0 0 0 0 0 127 0"/>
<feOffset dx="-4" dy="-4"/>
<feGaussianBlur stdDeviation="4"/>
<feColorMatrix type="matrix" values="0 0 0 0 0 0 0 0 0 0 0 0 0 0 0 0 0 0 0.25 0"/>
<feBlend mode="normal" in2="effect1_dropShadow" result="effect2_dropShadow"/>
<feBlend mode="normal" in="SourceGraphic" in2="effect2_dropShadow" result="shape"/>
</filter>
<filter id="filter3_d" x="454" y="323" width="141" height="141" filterUnits="userSpaceOnUse" color-interpolation-filters="sRGB">
<feFlood flood-opacity="0" result="BackgroundImageFix"/>
<feColorMatrix in="SourceAlpha" type="matrix" values="0 0 0 0 0 0 0 0 0 0 0 0 0 0 0 0 0 0 127 0"/>
<feOffset dy="4"/>
<feGaussianBlur stdDeviation="2"/>
<feColorMatrix type="matrix" values="0 0 0 0 0 0 0 0 0 0 0 0 0 0 0 0 0 0 0.25 0"/>
<feBlend mode="normal" in2="BackgroundImageFix" result="effect1_dropShadow"/>
<feBlend mode="normal" in="SourceGraphic" in2="effect1_dropShadow" result="shape"/>
</filter>
<filter id="filter4_d" x="448.58" y="502.496" width="151.77" height="37.3184" filterUnits="userSpaceOnUse" color-interpolation-filters="sRGB">
<feFlood flood-opacity="0" result="BackgroundImageFix"/>
<feColorMatrix in="SourceAlpha" type="matrix" values="0 0 0 0 0 0 0 0 0 0 0 0 0 0 0 0 0 0 127 0"/>
<feOffset dy="4"/>
<feGaussianBlur stdDeviation="2"/>
<feColorMatrix type="matrix" values="0 0 0 0 0 0 0 0 0 0 0 0 0 0 0 0 0 0 0.25 0"/>
<feBlend mode="normal" in2="BackgroundImageFix" result="effect1_dropShadow"/>
<feBlend mode="normal" in="SourceGraphic" in2="effect1_dropShadow" result="shape"/>
</filter>
<linearGradient id="paint0_linear" x1="525" y1="0" x2="525" y2="988" gradientUnits="userSpaceOnUse">
<stop stop-color="#303030"/>
<stop offset="1" stop-color="#494B50"/>
</linearGradient>
</defs>
</svg>
