<svg width="1440" height="1024" viewBox="0 0 1440 1024" fill="none" xmlns="http://www.w3.org/2000/svg">
<rect width="1440" height="1024" fill="white"/>
<rect y="97" width="1440" height="60" fill="#393939"/>
<path d="M200.905 116.383L207.645 133.205L214.385 116.383H217.911V137H215.192V128.971L215.447 120.305L208.679 137H206.597L199.843 120.348L200.112 128.971V137H197.393V116.383H200.905ZM227.313 133.163L230.882 121.679H233.686L227.526 139.365C226.572 141.914 225.057 143.188 222.98 143.188L222.485 143.146L221.508 142.961V140.837L222.216 140.894C223.103 140.894 223.792 140.715 224.283 140.356C224.784 139.997 225.194 139.341 225.515 138.388L226.096 136.83L220.63 121.679H223.49L227.313 133.163ZM258.806 130.458C258.551 132.639 257.744 134.324 256.384 135.513C255.034 136.693 253.236 137.283 250.989 137.283C248.554 137.283 246.6 136.41 245.127 134.664C243.664 132.917 242.932 130.581 242.932 127.654V125.672C242.932 123.756 243.272 122.07 243.952 120.617C244.641 119.163 245.613 118.049 246.869 117.275C248.124 116.491 249.578 116.1 251.23 116.1C253.42 116.1 255.176 116.713 256.498 117.94C257.819 119.158 258.589 120.848 258.806 123.01H256.073C255.837 121.367 255.322 120.178 254.529 119.441C253.746 118.705 252.646 118.337 251.23 118.337C249.493 118.337 248.129 118.979 247.138 120.263C246.156 121.547 245.665 123.373 245.665 125.743V127.739C245.665 129.977 246.132 131.756 247.067 133.078C248.001 134.399 249.309 135.06 250.989 135.06C252.5 135.06 253.656 134.72 254.458 134.041C255.27 133.351 255.808 132.157 256.073 130.458H258.806ZM261.425 129.198C261.425 127.697 261.718 126.347 262.303 125.148C262.898 123.949 263.719 123.024 264.767 122.373C265.824 121.721 267.028 121.396 268.378 121.396C270.464 121.396 272.149 122.118 273.433 123.562C274.726 125.006 275.373 126.927 275.373 129.325V129.509C275.373 131.001 275.085 132.341 274.509 133.531C273.943 134.711 273.126 135.631 272.06 136.292C271.002 136.953 269.785 137.283 268.406 137.283C266.329 137.283 264.644 136.561 263.351 135.117C262.067 133.672 261.425 131.761 261.425 129.382V129.198ZM264.059 129.509C264.059 131.208 264.451 132.573 265.234 133.602C266.027 134.631 267.085 135.145 268.406 135.145C269.737 135.145 270.795 134.626 271.578 133.587C272.362 132.54 272.753 131.076 272.753 129.198C272.753 127.517 272.352 126.158 271.55 125.12C270.757 124.072 269.7 123.548 268.378 123.548C267.085 123.548 266.042 124.062 265.249 125.091C264.456 126.12 264.059 127.593 264.059 129.509ZM281.122 121.679L281.193 123.378C282.316 122.056 283.831 121.396 285.738 121.396C287.881 121.396 289.34 122.217 290.114 123.859C290.624 123.123 291.284 122.528 292.096 122.075C292.917 121.622 293.885 121.396 294.999 121.396C298.36 121.396 300.068 123.175 300.125 126.734V137H297.505V126.89C297.505 125.795 297.255 124.978 296.755 124.44C296.255 123.892 295.414 123.619 294.234 123.619C293.262 123.619 292.455 123.911 291.813 124.497C291.171 125.072 290.798 125.851 290.694 126.833V137H288.061V126.96C288.061 124.733 286.97 123.619 284.79 123.619C283.071 123.619 281.896 124.35 281.264 125.813V137H278.644V121.679H281.122ZM317.032 129.509C317.032 131.841 316.499 133.72 315.432 135.145C314.365 136.57 312.921 137.283 311.099 137.283C309.239 137.283 307.776 136.693 306.709 135.513V142.891H304.09V121.679H306.483L306.61 123.378C307.677 122.056 309.159 121.396 311.057 121.396C312.897 121.396 314.351 122.089 315.418 123.477C316.494 124.865 317.032 126.795 317.032 129.269V129.509ZM314.413 129.212C314.413 127.484 314.044 126.12 313.308 125.12C312.572 124.119 311.562 123.619 310.278 123.619C308.692 123.619 307.502 124.322 306.709 125.729V133.049C307.493 134.446 308.692 135.145 310.306 135.145C311.562 135.145 312.558 134.649 313.294 133.658C314.04 132.658 314.413 131.175 314.413 129.212ZM329.833 137C329.682 136.698 329.559 136.16 329.465 135.386C328.247 136.651 326.793 137.283 325.104 137.283C323.593 137.283 322.352 136.858 321.379 136.009C320.417 135.15 319.935 134.064 319.935 132.752C319.935 131.157 320.539 129.92 321.748 129.042C322.965 128.155 324.674 127.711 326.874 127.711H329.422V126.507C329.422 125.592 329.149 124.865 328.601 124.327C328.054 123.779 327.246 123.505 326.18 123.505C325.245 123.505 324.462 123.741 323.829 124.213C323.197 124.685 322.88 125.257 322.88 125.927H320.247C320.247 125.162 320.516 124.426 321.054 123.718C321.601 123 322.338 122.434 323.263 122.019C324.197 121.603 325.222 121.396 326.335 121.396C328.101 121.396 329.484 121.839 330.484 122.727C331.485 123.604 332.004 124.818 332.042 126.366V133.417C332.042 134.824 332.221 135.943 332.58 136.773V137H329.833ZM325.486 135.003C326.307 135.003 327.086 134.791 327.822 134.366C328.559 133.941 329.092 133.389 329.422 132.709V129.566H327.369C324.16 129.566 322.555 130.505 322.555 132.384C322.555 133.205 322.828 133.847 323.376 134.31C323.924 134.772 324.627 135.003 325.486 135.003ZM338.626 121.679L338.711 123.604C339.882 122.132 341.411 121.396 343.299 121.396C346.537 121.396 348.17 123.222 348.199 126.875V137H345.579V126.861C345.57 125.757 345.315 124.94 344.814 124.412C344.324 123.883 343.554 123.619 342.506 123.619C341.657 123.619 340.911 123.845 340.269 124.298C339.627 124.751 339.127 125.346 338.768 126.083V137H336.148V121.679H338.626ZM357.162 133.163L360.73 121.679H363.534L357.375 139.365C356.421 141.914 354.906 143.188 352.829 143.188L352.333 143.146L351.356 142.961V140.837L352.064 140.894C352.952 140.894 353.641 140.715 354.132 140.356C354.632 139.997 355.043 139.341 355.364 138.388L355.944 136.83L350.479 121.679H353.339L357.162 133.163Z" fill="white"/>
<path d="M749.958 134H747.979V127.099H740.452V134H738.483V119.07H740.452V125.489H747.979V119.07H749.958V134ZM752.654 128.35C752.654 127.263 752.866 126.286 753.29 125.417C753.721 124.549 754.315 123.879 755.074 123.408C755.84 122.936 756.711 122.7 757.689 122.7C759.2 122.7 760.42 123.223 761.35 124.269C762.286 125.315 762.754 126.706 762.754 128.442V128.576C762.754 129.656 762.546 130.626 762.129 131.488C761.719 132.342 761.127 133.009 760.355 133.487C759.589 133.966 758.708 134.205 757.709 134.205C756.206 134.205 754.985 133.682 754.049 132.636C753.119 131.59 752.654 130.206 752.654 128.483V128.35ZM754.562 128.576C754.562 129.806 754.845 130.794 755.413 131.539C755.987 132.284 756.752 132.657 757.709 132.657C758.673 132.657 759.439 132.281 760.006 131.529C760.574 130.77 760.857 129.71 760.857 128.35C760.857 127.133 760.567 126.149 759.986 125.397C759.412 124.638 758.646 124.259 757.689 124.259C756.752 124.259 755.997 124.631 755.423 125.376C754.849 126.122 754.562 127.188 754.562 128.576ZM766.917 122.905L766.969 124.136C767.782 123.179 768.879 122.7 770.26 122.7C771.812 122.7 772.868 123.295 773.429 124.484C773.798 123.951 774.276 123.521 774.864 123.192C775.459 122.864 776.16 122.7 776.966 122.7C779.4 122.7 780.637 123.989 780.678 126.566V134H778.781V126.679C778.781 125.886 778.6 125.294 778.238 124.905C777.875 124.508 777.267 124.31 776.413 124.31C775.708 124.31 775.124 124.522 774.659 124.946C774.194 125.363 773.924 125.927 773.849 126.638V134H771.942V126.73C771.942 125.117 771.152 124.31 769.573 124.31C768.329 124.31 767.478 124.84 767.02 125.899V134H765.123V122.905H766.917ZM788.153 134.205C786.649 134.205 785.426 133.713 784.482 132.729C783.539 131.737 783.067 130.415 783.067 128.76V128.412C783.067 127.311 783.276 126.33 783.693 125.469C784.117 124.601 784.705 123.924 785.457 123.438C786.215 122.946 787.036 122.7 787.917 122.7C789.36 122.7 790.481 123.175 791.281 124.125C792.081 125.076 792.48 126.436 792.48 128.207V128.996H784.964C784.992 130.09 785.31 130.975 785.918 131.652C786.533 132.322 787.312 132.657 788.256 132.657C788.926 132.657 789.493 132.52 789.958 132.247C790.423 131.973 790.83 131.611 791.178 131.16L792.337 132.062C791.407 133.491 790.013 134.205 788.153 134.205ZM787.917 124.259C787.152 124.259 786.509 124.539 785.99 125.1C785.47 125.653 785.149 126.433 785.026 127.438H790.583V127.294C790.529 126.33 790.269 125.585 789.804 125.059C789.339 124.525 788.71 124.259 787.917 124.259Z" fill="white"/>
<path d="M880.589 132.042C880.083 132.766 879.376 133.31 878.467 133.672C877.564 134.027 876.512 134.205 875.309 134.205C874.092 134.205 873.012 133.921 872.068 133.354C871.125 132.78 870.394 131.966 869.874 130.914C869.361 129.861 869.098 128.641 869.084 127.253V125.951C869.084 123.702 869.607 121.958 870.653 120.721C871.706 119.484 873.183 118.865 875.083 118.865C876.642 118.865 877.896 119.265 878.846 120.065C879.796 120.858 880.377 121.986 880.589 123.449H878.621C878.251 121.473 877.076 120.485 875.093 120.485C873.774 120.485 872.772 120.95 872.089 121.88C871.412 122.803 871.07 124.143 871.063 125.899V127.12C871.063 128.794 871.446 130.127 872.212 131.119C872.978 132.103 874.013 132.595 875.319 132.595C876.057 132.595 876.703 132.513 877.257 132.349C877.811 132.185 878.269 131.908 878.631 131.519V128.166H875.175V126.566H880.589V132.042ZM890.433 134C890.324 133.781 890.235 133.392 890.167 132.831C889.285 133.747 888.232 134.205 887.008 134.205C885.915 134.205 885.016 133.897 884.312 133.282C883.614 132.66 883.266 131.874 883.266 130.924C883.266 129.769 883.703 128.873 884.578 128.237C885.46 127.595 886.697 127.273 888.29 127.273H890.136V126.402C890.136 125.739 889.938 125.212 889.541 124.823C889.145 124.426 888.56 124.228 887.788 124.228C887.111 124.228 886.543 124.399 886.085 124.741C885.627 125.083 885.398 125.496 885.398 125.981H883.491C883.491 125.428 883.686 124.895 884.076 124.382C884.472 123.862 885.005 123.452 885.675 123.151C886.352 122.851 887.094 122.7 887.9 122.7C889.179 122.7 890.18 123.021 890.905 123.664C891.629 124.3 892.005 125.178 892.033 126.299V131.406C892.033 132.424 892.163 133.234 892.422 133.836V134H890.433ZM887.285 132.554C887.88 132.554 888.444 132.4 888.977 132.093C889.51 131.785 889.896 131.385 890.136 130.893V128.617H888.649C886.325 128.617 885.163 129.297 885.163 130.657C885.163 131.252 885.361 131.717 885.757 132.052C886.154 132.387 886.663 132.554 887.285 132.554ZM897.067 134H895.17V118.25H897.067V134ZM902.174 134H900.277V118.25H902.174V134ZM909.823 134.205C908.319 134.205 907.096 133.713 906.152 132.729C905.209 131.737 904.737 130.415 904.737 128.76V128.412C904.737 127.311 904.946 126.33 905.363 125.469C905.787 124.601 906.375 123.924 907.126 123.438C907.885 122.946 908.706 122.7 909.587 122.7C911.03 122.7 912.151 123.175 912.951 124.125C913.75 125.076 914.15 126.436 914.15 128.207V128.996H906.634C906.662 130.09 906.979 130.975 907.588 131.652C908.203 132.322 908.982 132.657 909.926 132.657C910.596 132.657 911.163 132.52 911.628 132.247C912.093 131.973 912.5 131.611 912.848 131.16L914.007 132.062C913.077 133.491 911.683 134.205 909.823 134.205ZM909.587 124.259C908.822 124.259 908.179 124.539 907.66 125.1C907.14 125.653 906.819 126.433 906.696 127.438H912.253V127.294C912.199 126.33 911.939 125.585 911.474 125.059C911.009 124.525 910.38 124.259 909.587 124.259ZM921.718 124.607C921.431 124.56 921.12 124.536 920.785 124.536C919.541 124.536 918.696 125.065 918.252 126.125V134H916.355V122.905H918.201L918.231 124.187C918.854 123.196 919.735 122.7 920.877 122.7C921.246 122.7 921.526 122.748 921.718 122.844V124.607ZM927.286 131.221L929.87 122.905H931.9L927.439 135.712C926.749 137.558 925.652 138.481 924.148 138.481L923.789 138.45L923.082 138.317V136.779L923.594 136.82C924.237 136.82 924.736 136.69 925.091 136.43C925.454 136.17 925.751 135.695 925.983 135.005L926.404 133.877L922.446 122.905H924.517L927.286 131.221Z" fill="white"/>
<path d="M1017.01 130.104H1010.76L1009.35 134H1007.32L1013.03 119.07H1014.75L1020.46 134H1018.44L1017.01 130.104ZM1011.35 128.483H1016.43L1013.89 121.5L1011.35 128.483ZM1031.56 128.576C1031.56 130.271 1031.18 131.635 1030.4 132.667C1029.62 133.692 1028.57 134.205 1027.26 134.205C1025.86 134.205 1024.77 133.709 1024.01 132.718L1023.92 134H1022.17V118.25H1024.07V124.125C1024.83 123.175 1025.89 122.7 1027.24 122.7C1028.58 122.7 1029.64 123.209 1030.41 124.228C1031.18 125.247 1031.56 126.641 1031.56 128.412V128.576ZM1029.67 128.36C1029.67 127.068 1029.42 126.07 1028.92 125.366C1028.42 124.662 1027.7 124.31 1026.77 124.31C1025.52 124.31 1024.62 124.891 1024.07 126.053V130.852C1024.65 132.014 1025.56 132.595 1026.79 132.595C1027.7 132.595 1028.4 132.243 1028.91 131.539C1029.42 130.835 1029.67 129.775 1029.67 128.36ZM1033.46 128.35C1033.46 127.263 1033.67 126.286 1034.1 125.417C1034.53 124.549 1035.12 123.879 1035.88 123.408C1036.65 122.936 1037.52 122.7 1038.5 122.7C1040.01 122.7 1041.23 123.223 1042.16 124.269C1043.09 125.315 1043.56 126.706 1043.56 128.442V128.576C1043.56 129.656 1043.35 130.626 1042.94 131.488C1042.53 132.342 1041.94 133.009 1041.16 133.487C1040.4 133.966 1039.52 134.205 1038.52 134.205C1037.01 134.205 1035.79 133.682 1034.86 132.636C1033.93 131.59 1033.46 130.206 1033.46 128.483V128.35ZM1035.37 128.576C1035.37 129.806 1035.65 130.794 1036.22 131.539C1036.79 132.284 1037.56 132.657 1038.52 132.657C1039.48 132.657 1040.25 132.281 1040.81 131.529C1041.38 130.77 1041.67 129.71 1041.67 128.35C1041.67 127.133 1041.37 126.149 1040.79 125.397C1040.22 124.638 1039.45 124.259 1038.5 124.259C1037.56 124.259 1036.8 124.631 1036.23 125.376C1035.66 126.122 1035.37 127.188 1035.37 128.576ZM1052.79 132.903C1052.05 133.771 1050.97 134.205 1049.54 134.205C1048.36 134.205 1047.46 133.863 1046.83 133.18C1046.22 132.489 1045.91 131.471 1045.9 130.124V122.905H1047.8V130.073C1047.8 131.754 1048.48 132.595 1049.85 132.595C1051.3 132.595 1052.26 132.055 1052.74 130.975V122.905H1054.64V134H1052.83L1052.79 132.903ZM1060.1 120.219V122.905H1062.17V124.372H1060.1V131.252C1060.1 131.696 1060.19 132.031 1060.38 132.257C1060.56 132.476 1060.88 132.585 1061.32 132.585C1061.54 132.585 1061.84 132.544 1062.22 132.462V134C1061.73 134.137 1061.24 134.205 1060.77 134.205C1059.92 134.205 1059.28 133.949 1058.85 133.436C1058.42 132.923 1058.2 132.195 1058.2 131.252V124.372H1056.18V122.905H1058.2V120.219H1060.1Z" fill="white"/>
<path d="M1146.83 132.39H1153.91V134H1144.85V119.07H1146.83V132.39ZM1155.35 128.35C1155.35 127.263 1155.56 126.286 1155.99 125.417C1156.42 124.549 1157.01 123.879 1157.77 123.408C1158.54 122.936 1159.41 122.7 1160.39 122.7C1161.9 122.7 1163.12 123.223 1164.05 124.269C1164.98 125.315 1165.45 126.706 1165.45 128.442V128.576C1165.45 129.656 1165.24 130.626 1164.83 131.488C1164.42 132.342 1163.83 133.009 1163.05 133.487C1162.29 133.966 1161.41 134.205 1160.41 134.205C1158.9 134.205 1157.68 133.682 1156.75 132.636C1155.82 131.59 1155.35 130.206 1155.35 128.483V128.35ZM1157.26 128.576C1157.26 129.806 1157.54 130.794 1158.11 131.539C1158.68 132.284 1159.45 132.657 1160.41 132.657C1161.37 132.657 1162.14 132.281 1162.7 131.529C1163.27 130.77 1163.56 129.71 1163.56 128.35C1163.56 127.133 1163.26 126.149 1162.68 125.397C1162.11 124.638 1161.34 124.259 1160.39 124.259C1159.45 124.259 1158.69 124.631 1158.12 125.376C1157.55 126.122 1157.26 127.188 1157.26 128.576ZM1167.38 128.36C1167.38 126.631 1167.78 125.257 1168.58 124.238C1169.38 123.213 1170.44 122.7 1171.76 122.7C1173.11 122.7 1174.17 123.179 1174.93 124.136L1175.02 122.905H1176.75V133.733C1176.75 135.169 1176.32 136.3 1175.47 137.127C1174.62 137.955 1173.48 138.368 1172.05 138.368C1171.25 138.368 1170.46 138.197 1169.7 137.855C1168.93 137.514 1168.35 137.045 1167.94 136.451L1168.93 135.312C1169.74 136.317 1170.74 136.82 1171.91 136.82C1172.83 136.82 1173.55 136.56 1174.07 136.041C1174.58 135.521 1174.84 134.79 1174.84 133.846V132.893C1174.09 133.768 1173.05 134.205 1171.74 134.205C1170.44 134.205 1169.39 133.682 1168.58 132.636C1167.78 131.59 1167.38 130.165 1167.38 128.36ZM1169.29 128.576C1169.29 129.827 1169.54 130.811 1170.06 131.529C1170.57 132.24 1171.29 132.595 1172.21 132.595C1173.41 132.595 1174.28 132.052 1174.84 130.965V125.899C1174.26 124.84 1173.39 124.31 1172.23 124.31C1171.31 124.31 1170.59 124.669 1170.07 125.387C1169.55 126.104 1169.29 127.167 1169.29 128.576ZM1181.68 134H1179.79V122.905H1181.68V134ZM1179.63 119.962C1179.63 119.655 1179.73 119.395 1179.91 119.183C1180.1 118.971 1180.38 118.865 1180.75 118.865C1181.12 118.865 1181.4 118.971 1181.59 119.183C1181.78 119.395 1181.88 119.655 1181.88 119.962C1181.88 120.27 1181.78 120.526 1181.59 120.731C1181.4 120.937 1181.12 121.039 1180.75 121.039C1180.38 121.039 1180.1 120.937 1179.91 120.731C1179.73 120.526 1179.63 120.27 1179.63 119.962ZM1186.52 122.905L1186.59 124.3C1187.43 123.233 1188.54 122.7 1189.91 122.7C1192.25 122.7 1193.44 124.023 1193.46 126.668V134H1191.56V126.658C1191.55 125.858 1191.37 125.267 1191 124.884C1190.65 124.501 1190.09 124.31 1189.33 124.31C1188.72 124.31 1188.18 124.474 1187.71 124.802C1187.25 125.13 1186.89 125.561 1186.63 126.094V134H1184.73V122.905H1186.52Z" fill="white"/>
<rect x="1110.5" y="108.5" width="117" height="36" rx="18" stroke="white"/>
<rect y="259" width="1440" height="60" fill="#393939"/>
<path d="M34.9048 278.383L41.645 295.205L48.3853 278.383H51.9111V299H49.1924V290.971L49.4473 282.305L42.6787 299H40.5972L33.8428 282.348L34.1118 290.971V299H31.3931V278.383H34.9048ZM61.3135 295.163L64.8818 283.679H67.6855L61.5259 301.365C60.5724 303.914 59.0573 305.188 56.9805 305.188L56.4849 305.146L55.5078 304.961V302.837L56.2158 302.894C57.1032 302.894 57.7923 302.715 58.2832 302.356C58.7835 301.997 59.1942 301.341 59.5151 300.388L60.0957 298.83L54.6299 283.679H57.4902L61.3135 295.163ZM92.8057 292.458C92.5508 294.639 91.7437 296.324 90.3843 297.513C89.0343 298.693 87.236 299.283 84.9893 299.283C82.5537 299.283 80.5996 298.41 79.127 296.664C77.6637 294.917 76.9321 292.581 76.9321 289.654V287.672C76.9321 285.756 77.272 284.07 77.9517 282.617C78.6408 281.163 79.6131 280.049 80.8687 279.275C82.1242 278.491 83.578 278.1 85.23 278.1C87.4201 278.1 89.1759 278.713 90.4976 279.94C91.8192 281.158 92.5885 282.848 92.8057 285.01H90.0728C89.8368 283.367 89.3223 282.178 88.5293 281.441C87.7458 280.705 86.646 280.337 85.23 280.337C83.493 280.337 82.1289 280.979 81.1377 282.263C80.1559 283.547 79.665 285.373 79.665 287.743V289.739C79.665 291.977 80.1323 293.756 81.0669 295.078C82.0015 296.399 83.3089 297.06 84.9893 297.06C86.4997 297.06 87.6561 296.72 88.4585 296.041C89.2703 295.351 89.8084 294.157 90.0728 292.458H92.8057ZM95.4253 291.198C95.4253 289.697 95.7179 288.347 96.3032 287.148C96.8979 285.949 97.7192 285.024 98.7671 284.373C99.8244 283.721 101.028 283.396 102.378 283.396C104.464 283.396 106.149 284.118 107.433 285.562C108.726 287.006 109.373 288.927 109.373 291.325V291.509C109.373 293.001 109.085 294.341 108.509 295.531C107.943 296.711 107.126 297.631 106.06 298.292C105.002 298.953 103.785 299.283 102.406 299.283C100.329 299.283 98.6444 298.561 97.3511 297.117C96.0672 295.672 95.4253 293.761 95.4253 291.382V291.198ZM98.0591 291.509C98.0591 293.208 98.4508 294.573 99.2344 295.602C100.027 296.631 101.085 297.145 102.406 297.145C103.737 297.145 104.795 296.626 105.578 295.587C106.362 294.54 106.753 293.076 106.753 291.198C106.753 289.517 106.352 288.158 105.55 287.12C104.757 286.072 103.7 285.548 102.378 285.548C101.085 285.548 100.042 286.062 99.2485 287.091C98.4556 288.12 98.0591 289.593 98.0591 291.509ZM115.122 283.679L115.193 285.378C116.316 284.056 117.831 283.396 119.738 283.396C121.881 283.396 123.34 284.217 124.114 285.859C124.624 285.123 125.284 284.528 126.096 284.075C126.917 283.622 127.885 283.396 128.999 283.396C132.36 283.396 134.068 285.175 134.125 288.734V299H131.505V288.89C131.505 287.795 131.255 286.978 130.755 286.44C130.255 285.892 129.414 285.619 128.234 285.619C127.262 285.619 126.455 285.911 125.813 286.497C125.171 287.072 124.798 287.851 124.694 288.833V299H122.061V288.96C122.061 286.733 120.97 285.619 118.79 285.619C117.071 285.619 115.896 286.35 115.264 287.813V299H112.644V283.679H115.122ZM151.032 291.509C151.032 293.841 150.499 295.72 149.432 297.145C148.365 298.57 146.921 299.283 145.099 299.283C143.239 299.283 141.776 298.693 140.709 297.513V304.891H138.09V283.679H140.483L140.61 285.378C141.677 284.056 143.159 283.396 145.057 283.396C146.897 283.396 148.351 284.089 149.418 285.477C150.494 286.865 151.032 288.795 151.032 291.269V291.509ZM148.413 291.212C148.413 289.484 148.044 288.12 147.308 287.12C146.572 286.119 145.562 285.619 144.278 285.619C142.692 285.619 141.502 286.322 140.709 287.729V295.049C141.493 296.446 142.692 297.145 144.306 297.145C145.562 297.145 146.558 296.649 147.294 295.658C148.04 294.658 148.413 293.175 148.413 291.212ZM163.833 299C163.682 298.698 163.559 298.16 163.465 297.386C162.247 298.651 160.793 299.283 159.104 299.283C157.593 299.283 156.352 298.858 155.379 298.009C154.417 297.15 153.935 296.064 153.935 294.752C153.935 293.157 154.539 291.92 155.748 291.042C156.965 290.155 158.674 289.711 160.874 289.711H163.422V288.507C163.422 287.592 163.149 286.865 162.601 286.327C162.054 285.779 161.246 285.505 160.18 285.505C159.245 285.505 158.462 285.741 157.829 286.213C157.197 286.685 156.88 287.257 156.88 287.927H154.247C154.247 287.162 154.516 286.426 155.054 285.718C155.601 285 156.338 284.434 157.263 284.019C158.197 283.603 159.222 283.396 160.335 283.396C162.101 283.396 163.484 283.839 164.484 284.727C165.485 285.604 166.004 286.818 166.042 288.366V295.417C166.042 296.824 166.221 297.943 166.58 298.773V299H163.833ZM159.486 297.003C160.307 297.003 161.086 296.791 161.822 296.366C162.559 295.941 163.092 295.389 163.422 294.709V291.566H161.369C158.16 291.566 156.555 292.505 156.555 294.384C156.555 295.205 156.828 295.847 157.376 296.31C157.924 296.772 158.627 297.003 159.486 297.003ZM172.626 283.679L172.711 285.604C173.882 284.132 175.411 283.396 177.299 283.396C180.537 283.396 182.17 285.222 182.199 288.875V299H179.579V288.861C179.57 287.757 179.315 286.94 178.814 286.412C178.324 285.883 177.554 285.619 176.506 285.619C175.657 285.619 174.911 285.845 174.269 286.298C173.627 286.751 173.127 287.346 172.768 288.083V299H170.148V283.679H172.626ZM191.162 295.163L194.73 283.679H197.534L191.375 301.365C190.421 303.914 188.906 305.188 186.829 305.188L186.333 305.146L185.356 304.961V302.837L186.064 302.894C186.952 302.894 187.641 302.715 188.132 302.356C188.632 301.997 189.043 301.341 189.364 300.388L189.944 298.83L184.479 283.679H187.339L191.162 295.163Z" fill="white"/>
<path d="M569.958 297H567.979V290.099H560.452V297H558.483V282.07H560.452V288.489H567.979V282.07H569.958V297ZM572.654 291.35C572.654 290.263 572.866 289.286 573.29 288.417C573.721 287.549 574.315 286.879 575.074 286.408C575.84 285.936 576.711 285.7 577.689 285.7C579.2 285.7 580.42 286.223 581.35 287.269C582.286 288.315 582.754 289.706 582.754 291.442V291.576C582.754 292.656 582.546 293.626 582.129 294.488C581.719 295.342 581.127 296.009 580.355 296.487C579.589 296.966 578.708 297.205 577.709 297.205C576.206 297.205 574.985 296.682 574.049 295.636C573.119 294.59 572.654 293.206 572.654 291.483V291.35ZM574.562 291.576C574.562 292.806 574.845 293.794 575.413 294.539C575.987 295.284 576.752 295.657 577.709 295.657C578.673 295.657 579.439 295.281 580.006 294.529C580.574 293.77 580.857 292.71 580.857 291.35C580.857 290.133 580.567 289.149 579.986 288.397C579.412 287.638 578.646 287.259 577.689 287.259C576.752 287.259 575.997 287.631 575.423 288.376C574.849 289.122 574.562 290.188 574.562 291.576ZM586.917 285.905L586.969 287.136C587.782 286.179 588.879 285.7 590.26 285.7C591.812 285.7 592.868 286.295 593.429 287.484C593.798 286.951 594.276 286.521 594.864 286.192C595.459 285.864 596.16 285.7 596.966 285.7C599.4 285.7 600.637 286.989 600.678 289.566V297H598.781V289.679C598.781 288.886 598.6 288.294 598.238 287.905C597.875 287.508 597.267 287.31 596.413 287.31C595.708 287.31 595.124 287.522 594.659 287.946C594.194 288.363 593.924 288.927 593.849 289.638V297H591.942V289.73C591.942 288.117 591.152 287.31 589.573 287.31C588.329 287.31 587.478 287.84 587.02 288.899V297H585.123V285.905H586.917ZM608.153 297.205C606.649 297.205 605.426 296.713 604.482 295.729C603.539 294.737 603.067 293.415 603.067 291.76V291.412C603.067 290.311 603.276 289.33 603.693 288.469C604.117 287.601 604.705 286.924 605.457 286.438C606.215 285.946 607.036 285.7 607.917 285.7C609.36 285.7 610.481 286.175 611.281 287.125C612.081 288.076 612.48 289.436 612.48 291.207V291.996H604.964C604.992 293.09 605.31 293.975 605.918 294.652C606.533 295.322 607.312 295.657 608.256 295.657C608.926 295.657 609.493 295.52 609.958 295.247C610.423 294.973 610.83 294.611 611.178 294.16L612.337 295.062C611.407 296.491 610.013 297.205 608.153 297.205ZM607.917 287.259C607.152 287.259 606.509 287.539 605.99 288.1C605.47 288.653 605.149 289.433 605.026 290.438H610.583V290.294C610.529 289.33 610.269 288.585 609.804 288.059C609.339 287.525 608.71 287.259 607.917 287.259Z" fill="white"/>
<path d="M700.589 295.042C700.083 295.766 699.376 296.31 698.467 296.672C697.564 297.027 696.512 297.205 695.309 297.205C694.092 297.205 693.012 296.921 692.068 296.354C691.125 295.78 690.394 294.966 689.874 293.914C689.361 292.861 689.098 291.641 689.084 290.253V288.951C689.084 286.702 689.607 284.958 690.653 283.721C691.706 282.484 693.183 281.865 695.083 281.865C696.642 281.865 697.896 282.265 698.846 283.065C699.796 283.858 700.377 284.986 700.589 286.449H698.621C698.251 284.473 697.076 283.485 695.093 283.485C693.774 283.485 692.772 283.95 692.089 284.88C691.412 285.803 691.07 287.143 691.063 288.899V290.12C691.063 291.794 691.446 293.127 692.212 294.119C692.978 295.103 694.013 295.595 695.319 295.595C696.057 295.595 696.703 295.513 697.257 295.349C697.811 295.185 698.269 294.908 698.631 294.519V291.166H695.175V289.566H700.589V295.042ZM710.433 297C710.324 296.781 710.235 296.392 710.167 295.831C709.285 296.747 708.232 297.205 707.008 297.205C705.915 297.205 705.016 296.897 704.312 296.282C703.614 295.66 703.266 294.874 703.266 293.924C703.266 292.769 703.703 291.873 704.578 291.237C705.46 290.595 706.697 290.273 708.29 290.273H710.136V289.402C710.136 288.739 709.938 288.212 709.541 287.823C709.145 287.426 708.56 287.228 707.788 287.228C707.111 287.228 706.543 287.399 706.085 287.741C705.627 288.083 705.398 288.496 705.398 288.981H703.491C703.491 288.428 703.686 287.895 704.076 287.382C704.472 286.862 705.005 286.452 705.675 286.151C706.352 285.851 707.094 285.7 707.9 285.7C709.179 285.7 710.18 286.021 710.905 286.664C711.629 287.3 712.005 288.178 712.033 289.299V294.406C712.033 295.424 712.163 296.234 712.422 296.836V297H710.433ZM707.285 295.554C707.88 295.554 708.444 295.4 708.977 295.093C709.51 294.785 709.896 294.385 710.136 293.893V291.617H708.649C706.325 291.617 705.163 292.297 705.163 293.657C705.163 294.252 705.361 294.717 705.757 295.052C706.154 295.387 706.663 295.554 707.285 295.554ZM717.067 297H715.17V281.25H717.067V297ZM722.174 297H720.277V281.25H722.174V297ZM729.823 297.205C728.319 297.205 727.096 296.713 726.152 295.729C725.209 294.737 724.737 293.415 724.737 291.76V291.412C724.737 290.311 724.946 289.33 725.363 288.469C725.787 287.601 726.375 286.924 727.126 286.438C727.885 285.946 728.706 285.7 729.587 285.7C731.03 285.7 732.151 286.175 732.951 287.125C733.75 288.076 734.15 289.436 734.15 291.207V291.996H726.634C726.662 293.09 726.979 293.975 727.588 294.652C728.203 295.322 728.982 295.657 729.926 295.657C730.596 295.657 731.163 295.52 731.628 295.247C732.093 294.973 732.5 294.611 732.848 294.16L734.007 295.062C733.077 296.491 731.683 297.205 729.823 297.205ZM729.587 287.259C728.822 287.259 728.179 287.539 727.66 288.1C727.14 288.653 726.819 289.433 726.696 290.438H732.253V290.294C732.199 289.33 731.939 288.585 731.474 288.059C731.009 287.525 730.38 287.259 729.587 287.259ZM741.718 287.607C741.431 287.56 741.12 287.536 740.785 287.536C739.541 287.536 738.696 288.065 738.252 289.125V297H736.355V285.905H738.201L738.231 287.187C738.854 286.196 739.735 285.7 740.877 285.7C741.246 285.7 741.526 285.748 741.718 285.844V287.607ZM747.286 294.221L749.87 285.905H751.9L747.439 298.712C746.749 300.558 745.652 301.481 744.148 301.481L743.789 301.45L743.082 301.317V299.779L743.594 299.82C744.237 299.82 744.736 299.69 745.091 299.43C745.454 299.17 745.751 298.695 745.983 298.005L746.404 296.877L742.446 285.905H744.517L747.286 294.221Z" fill="white"/>
<path d="M837.015 293.104H830.76L829.355 297H827.325L833.026 282.07H834.749L840.46 297H838.44L837.015 293.104ZM831.354 291.483H836.43L833.887 284.5L831.354 291.483ZM851.565 291.576C851.565 293.271 851.175 294.635 850.396 295.667C849.617 296.692 848.571 297.205 847.258 297.205C845.857 297.205 844.773 296.709 844.008 295.718L843.916 297H842.172V281.25H844.069V287.125C844.835 286.175 845.891 285.7 847.238 285.7C848.584 285.7 849.641 286.209 850.406 287.228C851.179 288.247 851.565 289.641 851.565 291.412V291.576ZM849.668 291.36C849.668 290.068 849.418 289.07 848.919 288.366C848.42 287.662 847.703 287.31 846.766 287.31C845.515 287.31 844.616 287.891 844.069 289.053V293.852C844.65 295.014 845.556 295.595 846.787 295.595C847.696 295.595 848.403 295.243 848.909 294.539C849.415 293.835 849.668 292.775 849.668 291.36ZM853.462 291.35C853.462 290.263 853.674 289.286 854.098 288.417C854.528 287.549 855.123 286.879 855.882 286.408C856.647 285.936 857.519 285.7 858.497 285.7C860.007 285.7 861.228 286.223 862.157 287.269C863.094 288.315 863.562 289.706 863.562 291.442V291.576C863.562 292.656 863.354 293.626 862.937 294.488C862.526 295.342 861.935 296.009 861.163 296.487C860.397 296.966 859.515 297.205 858.517 297.205C857.013 297.205 855.793 296.682 854.856 295.636C853.927 294.59 853.462 293.206 853.462 291.483V291.35ZM855.369 291.576C855.369 292.806 855.653 293.794 856.22 294.539C856.794 295.284 857.56 295.657 858.517 295.657C859.481 295.657 860.247 295.281 860.814 294.529C861.381 293.77 861.665 292.71 861.665 291.35C861.665 290.133 861.375 289.149 860.793 288.397C860.219 287.638 859.454 287.259 858.497 287.259C857.56 287.259 856.805 287.631 856.23 288.376C855.656 289.122 855.369 290.188 855.369 291.576ZM872.791 295.903C872.052 296.771 870.969 297.205 869.54 297.205C868.357 297.205 867.455 296.863 866.833 296.18C866.218 295.489 865.907 294.471 865.9 293.124V285.905H867.797V293.073C867.797 294.754 868.48 295.595 869.848 295.595C871.297 295.595 872.261 295.055 872.739 293.975V285.905H874.636V297H872.832L872.791 295.903ZM880.102 283.219V285.905H882.173V287.372H880.102V294.252C880.102 294.696 880.194 295.031 880.378 295.257C880.563 295.476 880.877 295.585 881.322 295.585C881.541 295.585 881.841 295.544 882.224 295.462V297C881.725 297.137 881.24 297.205 880.768 297.205C879.92 297.205 879.281 296.949 878.851 296.436C878.42 295.923 878.205 295.195 878.205 294.252V287.372H876.185V285.905H878.205V283.219H880.102Z" fill="white"/>
<path d="M1339.83 295.39H1346.91V297H1337.85V282.07H1339.83V295.39ZM1348.35 291.35C1348.35 290.263 1348.56 289.286 1348.99 288.417C1349.42 287.549 1350.01 286.879 1350.77 286.408C1351.54 285.936 1352.41 285.7 1353.39 285.7C1354.9 285.7 1356.12 286.223 1357.05 287.269C1357.98 288.315 1358.45 289.706 1358.45 291.442V291.576C1358.45 292.656 1358.24 293.626 1357.83 294.488C1357.42 295.342 1356.83 296.009 1356.05 296.487C1355.29 296.966 1354.41 297.205 1353.41 297.205C1351.9 297.205 1350.68 296.682 1349.75 295.636C1348.82 294.59 1348.35 293.206 1348.35 291.483V291.35ZM1350.26 291.576C1350.26 292.806 1350.54 293.794 1351.11 294.539C1351.68 295.284 1352.45 295.657 1353.41 295.657C1354.37 295.657 1355.14 295.281 1355.7 294.529C1356.27 293.77 1356.56 292.71 1356.56 291.35C1356.56 290.133 1356.26 289.149 1355.68 288.397C1355.11 287.638 1354.34 287.259 1353.39 287.259C1352.45 287.259 1351.69 287.631 1351.12 288.376C1350.55 289.122 1350.26 290.188 1350.26 291.576ZM1360.38 291.36C1360.38 289.631 1360.78 288.257 1361.58 287.238C1362.38 286.213 1363.44 285.7 1364.76 285.7C1366.11 285.7 1367.17 286.179 1367.93 287.136L1368.02 285.905H1369.75V296.733C1369.75 298.169 1369.32 299.3 1368.47 300.127C1367.62 300.955 1366.48 301.368 1365.05 301.368C1364.25 301.368 1363.46 301.197 1362.7 300.855C1361.93 300.514 1361.35 300.045 1360.94 299.451L1361.93 298.312C1362.74 299.317 1363.74 299.82 1364.91 299.82C1365.83 299.82 1366.55 299.56 1367.07 299.041C1367.58 298.521 1367.84 297.79 1367.84 296.846V295.893C1367.09 296.768 1366.05 297.205 1364.74 297.205C1363.44 297.205 1362.39 296.682 1361.58 295.636C1360.78 294.59 1360.38 293.165 1360.38 291.36ZM1362.29 291.576C1362.29 292.827 1362.54 293.811 1363.06 294.529C1363.57 295.24 1364.29 295.595 1365.21 295.595C1366.41 295.595 1367.28 295.052 1367.84 293.965V288.899C1367.26 287.84 1366.39 287.31 1365.23 287.31C1364.31 287.31 1363.59 287.669 1363.07 288.387C1362.55 289.104 1362.29 290.167 1362.29 291.576ZM1374.68 297H1372.79V285.905H1374.68V297ZM1372.63 282.962C1372.63 282.655 1372.73 282.395 1372.91 282.183C1373.1 281.971 1373.38 281.865 1373.75 281.865C1374.12 281.865 1374.4 281.971 1374.59 282.183C1374.78 282.395 1374.88 282.655 1374.88 282.962C1374.88 283.27 1374.78 283.526 1374.59 283.731C1374.4 283.937 1374.12 284.039 1373.75 284.039C1373.38 284.039 1373.1 283.937 1372.91 283.731C1372.73 283.526 1372.63 283.27 1372.63 282.962ZM1379.52 285.905L1379.59 287.3C1380.43 286.233 1381.54 285.7 1382.91 285.7C1385.25 285.7 1386.44 287.023 1386.46 289.668V297H1384.56V289.658C1384.55 288.858 1384.37 288.267 1384 287.884C1383.65 287.501 1383.09 287.31 1382.33 287.31C1381.72 287.31 1381.18 287.474 1380.71 287.802C1380.25 288.13 1379.89 288.561 1379.63 289.094V297H1377.73V285.905H1379.52Z" fill="white"/>
<rect x="1303.5" y="271.5" width="117" height="36" rx="18" stroke="white"/>
<rect y="421" width="1440" height="60" fill="#393939"/>
<path d="M34.9048 440.383L41.645 457.205L48.3853 440.383H51.9111V461H49.1924V452.971L49.4473 444.305L42.6787 461H40.5972L33.8428 444.348L34.1118 452.971V461H31.3931V440.383H34.9048ZM61.3135 457.163L64.8818 445.679H67.6855L61.5259 463.365C60.5724 465.914 59.0573 467.188 56.9805 467.188L56.4849 467.146L55.5078 466.961V464.837L56.2158 464.894C57.1032 464.894 57.7923 464.715 58.2832 464.356C58.7835 463.997 59.1942 463.341 59.5151 462.388L60.0957 460.83L54.6299 445.679H57.4902L61.3135 457.163ZM92.8057 454.458C92.5508 456.639 91.7437 458.324 90.3843 459.513C89.0343 460.693 87.236 461.283 84.9893 461.283C82.5537 461.283 80.5996 460.41 79.127 458.664C77.6637 456.917 76.9321 454.581 76.9321 451.654V449.672C76.9321 447.756 77.272 446.07 77.9517 444.617C78.6408 443.163 79.6131 442.049 80.8687 441.275C82.1242 440.491 83.578 440.1 85.23 440.1C87.4201 440.1 89.1759 440.713 90.4976 441.94C91.8192 443.158 92.5885 444.848 92.8057 447.01H90.0728C89.8368 445.367 89.3223 444.178 88.5293 443.441C87.7458 442.705 86.646 442.337 85.23 442.337C83.493 442.337 82.1289 442.979 81.1377 444.263C80.1559 445.547 79.665 447.373 79.665 449.743V451.739C79.665 453.977 80.1323 455.756 81.0669 457.078C82.0015 458.399 83.3089 459.06 84.9893 459.06C86.4997 459.06 87.6561 458.72 88.4585 458.041C89.2703 457.351 89.8084 456.157 90.0728 454.458H92.8057ZM95.4253 453.198C95.4253 451.697 95.7179 450.347 96.3032 449.148C96.8979 447.949 97.7192 447.024 98.7671 446.373C99.8244 445.721 101.028 445.396 102.378 445.396C104.464 445.396 106.149 446.118 107.433 447.562C108.726 449.006 109.373 450.927 109.373 453.325V453.509C109.373 455.001 109.085 456.341 108.509 457.531C107.943 458.711 107.126 459.631 106.06 460.292C105.002 460.953 103.785 461.283 102.406 461.283C100.329 461.283 98.6444 460.561 97.3511 459.117C96.0672 457.672 95.4253 455.761 95.4253 453.382V453.198ZM98.0591 453.509C98.0591 455.208 98.4508 456.573 99.2344 457.602C100.027 458.631 101.085 459.145 102.406 459.145C103.737 459.145 104.795 458.626 105.578 457.587C106.362 456.54 106.753 455.076 106.753 453.198C106.753 451.517 106.352 450.158 105.55 449.12C104.757 448.072 103.7 447.548 102.378 447.548C101.085 447.548 100.042 448.062 99.2485 449.091C98.4556 450.12 98.0591 451.593 98.0591 453.509ZM115.122 445.679L115.193 447.378C116.316 446.056 117.831 445.396 119.738 445.396C121.881 445.396 123.34 446.217 124.114 447.859C124.624 447.123 125.284 446.528 126.096 446.075C126.917 445.622 127.885 445.396 128.999 445.396C132.36 445.396 134.068 447.175 134.125 450.734V461H131.505V450.89C131.505 449.795 131.255 448.978 130.755 448.44C130.255 447.892 129.414 447.619 128.234 447.619C127.262 447.619 126.455 447.911 125.813 448.497C125.171 449.072 124.798 449.851 124.694 450.833V461H122.061V450.96C122.061 448.733 120.97 447.619 118.79 447.619C117.071 447.619 115.896 448.35 115.264 449.813V461H112.644V445.679H115.122ZM151.032 453.509C151.032 455.841 150.499 457.72 149.432 459.145C148.365 460.57 146.921 461.283 145.099 461.283C143.239 461.283 141.776 460.693 140.709 459.513V466.891H138.09V445.679H140.483L140.61 447.378C141.677 446.056 143.159 445.396 145.057 445.396C146.897 445.396 148.351 446.089 149.418 447.477C150.494 448.865 151.032 450.795 151.032 453.269V453.509ZM148.413 453.212C148.413 451.484 148.044 450.12 147.308 449.12C146.572 448.119 145.562 447.619 144.278 447.619C142.692 447.619 141.502 448.322 140.709 449.729V457.049C141.493 458.446 142.692 459.145 144.306 459.145C145.562 459.145 146.558 458.649 147.294 457.658C148.04 456.658 148.413 455.175 148.413 453.212ZM163.833 461C163.682 460.698 163.559 460.16 163.465 459.386C162.247 460.651 160.793 461.283 159.104 461.283C157.593 461.283 156.352 460.858 155.379 460.009C154.417 459.15 153.935 458.064 153.935 456.752C153.935 455.157 154.539 453.92 155.748 453.042C156.965 452.155 158.674 451.711 160.874 451.711H163.422V450.507C163.422 449.592 163.149 448.865 162.601 448.327C162.054 447.779 161.246 447.505 160.18 447.505C159.245 447.505 158.462 447.741 157.829 448.213C157.197 448.685 156.88 449.257 156.88 449.927H154.247C154.247 449.162 154.516 448.426 155.054 447.718C155.601 447 156.338 446.434 157.263 446.019C158.197 445.603 159.222 445.396 160.335 445.396C162.101 445.396 163.484 445.839 164.484 446.727C165.485 447.604 166.004 448.818 166.042 450.366V457.417C166.042 458.824 166.221 459.943 166.58 460.773V461H163.833ZM159.486 459.003C160.307 459.003 161.086 458.791 161.822 458.366C162.559 457.941 163.092 457.389 163.422 456.709V453.566H161.369C158.16 453.566 156.555 454.505 156.555 456.384C156.555 457.205 156.828 457.847 157.376 458.31C157.924 458.772 158.627 459.003 159.486 459.003ZM172.626 445.679L172.711 447.604C173.882 446.132 175.411 445.396 177.299 445.396C180.537 445.396 182.17 447.222 182.199 450.875V461H179.579V450.861C179.57 449.757 179.315 448.94 178.814 448.412C178.324 447.883 177.554 447.619 176.506 447.619C175.657 447.619 174.911 447.845 174.269 448.298C173.627 448.751 173.127 449.346 172.768 450.083V461H170.148V445.679H172.626ZM191.162 457.163L194.73 445.679H197.534L191.375 463.365C190.421 465.914 188.906 467.188 186.829 467.188L186.333 467.146L185.356 466.961V464.837L186.064 464.894C186.952 464.894 187.641 464.715 188.132 464.356C188.632 463.997 189.043 463.341 189.364 462.388L189.944 460.83L184.479 445.679H187.339L191.162 457.163Z" fill="white"/>
<path d="M845.958 459H843.979V452.099H836.452V459H834.483V444.07H836.452V450.489H843.979V444.07H845.958V459ZM848.654 453.35C848.654 452.263 848.866 451.286 849.29 450.417C849.721 449.549 850.315 448.879 851.074 448.408C851.84 447.936 852.711 447.7 853.689 447.7C855.2 447.7 856.42 448.223 857.35 449.269C858.286 450.315 858.754 451.706 858.754 453.442V453.576C858.754 454.656 858.546 455.626 858.129 456.488C857.719 457.342 857.127 458.009 856.355 458.487C855.589 458.966 854.708 459.205 853.709 459.205C852.206 459.205 850.985 458.682 850.049 457.636C849.119 456.59 848.654 455.206 848.654 453.483V453.35ZM850.562 453.576C850.562 454.806 850.845 455.794 851.413 456.539C851.987 457.284 852.752 457.657 853.709 457.657C854.673 457.657 855.439 457.281 856.006 456.529C856.574 455.77 856.857 454.71 856.857 453.35C856.857 452.133 856.567 451.149 855.986 450.397C855.412 449.638 854.646 449.259 853.689 449.259C852.752 449.259 851.997 449.631 851.423 450.376C850.849 451.122 850.562 452.188 850.562 453.576ZM862.917 447.905L862.969 449.136C863.782 448.179 864.879 447.7 866.26 447.7C867.812 447.7 868.868 448.295 869.429 449.484C869.798 448.951 870.276 448.521 870.864 448.192C871.459 447.864 872.16 447.7 872.966 447.7C875.4 447.7 876.637 448.989 876.678 451.566V459H874.781V451.679C874.781 450.886 874.6 450.294 874.238 449.905C873.875 449.508 873.267 449.31 872.413 449.31C871.708 449.31 871.124 449.522 870.659 449.946C870.194 450.363 869.924 450.927 869.849 451.638V459H867.942V451.73C867.942 450.117 867.152 449.31 865.573 449.31C864.329 449.31 863.478 449.84 863.02 450.899V459H861.123V447.905H862.917ZM884.153 459.205C882.649 459.205 881.426 458.713 880.482 457.729C879.539 456.737 879.067 455.415 879.067 453.76V453.412C879.067 452.311 879.276 451.33 879.693 450.469C880.117 449.601 880.705 448.924 881.457 448.438C882.215 447.946 883.036 447.7 883.917 447.7C885.36 447.7 886.481 448.175 887.281 449.125C888.081 450.076 888.48 451.436 888.48 453.207V453.996H880.964C880.992 455.09 881.31 455.975 881.918 456.652C882.533 457.322 883.312 457.657 884.256 457.657C884.926 457.657 885.493 457.52 885.958 457.247C886.423 456.973 886.83 456.611 887.178 456.16L888.337 457.062C887.407 458.491 886.013 459.205 884.153 459.205ZM883.917 449.259C883.152 449.259 882.509 449.539 881.99 450.1C881.47 450.653 881.149 451.433 881.026 452.438H886.583V452.294C886.529 451.33 886.269 450.585 885.804 450.059C885.339 449.525 884.71 449.259 883.917 449.259Z" fill="white"/>
<path d="M982.589 457.042C982.083 457.766 981.376 458.31 980.467 458.672C979.564 459.027 978.512 459.205 977.309 459.205C976.092 459.205 975.012 458.921 974.068 458.354C973.125 457.78 972.394 456.966 971.874 455.914C971.361 454.861 971.098 453.641 971.084 452.253V450.951C971.084 448.702 971.607 446.958 972.653 445.721C973.706 444.484 975.183 443.865 977.083 443.865C978.642 443.865 979.896 444.265 980.846 445.065C981.796 445.858 982.377 446.986 982.589 448.449H980.621C980.251 446.473 979.076 445.485 977.093 445.485C975.774 445.485 974.772 445.95 974.089 446.88C973.412 447.803 973.07 449.143 973.063 450.899V452.12C973.063 453.794 973.446 455.127 974.212 456.119C974.978 457.103 976.013 457.595 977.319 457.595C978.057 457.595 978.703 457.513 979.257 457.349C979.811 457.185 980.269 456.908 980.631 456.519V453.166H977.175V451.566H982.589V457.042ZM992.433 459C992.324 458.781 992.235 458.392 992.167 457.831C991.285 458.747 990.232 459.205 989.008 459.205C987.915 459.205 987.016 458.897 986.312 458.282C985.614 457.66 985.266 456.874 985.266 455.924C985.266 454.769 985.703 453.873 986.578 453.237C987.46 452.595 988.697 452.273 990.29 452.273H992.136V451.402C992.136 450.739 991.938 450.212 991.541 449.823C991.145 449.426 990.56 449.228 989.788 449.228C989.111 449.228 988.543 449.399 988.085 449.741C987.627 450.083 987.398 450.496 987.398 450.981H985.491C985.491 450.428 985.686 449.895 986.076 449.382C986.472 448.862 987.005 448.452 987.675 448.151C988.352 447.851 989.094 447.7 989.9 447.7C991.179 447.7 992.18 448.021 992.905 448.664C993.629 449.3 994.005 450.178 994.033 451.299V456.406C994.033 457.424 994.163 458.234 994.422 458.836V459H992.433ZM989.285 457.554C989.88 457.554 990.444 457.4 990.977 457.093C991.51 456.785 991.896 456.385 992.136 455.893V453.617H990.649C988.325 453.617 987.163 454.297 987.163 455.657C987.163 456.252 987.361 456.717 987.757 457.052C988.154 457.387 988.663 457.554 989.285 457.554ZM999.067 459H997.17V443.25H999.067V459ZM1004.17 459H1002.28V443.25H1004.17V459ZM1011.82 459.205C1010.32 459.205 1009.1 458.713 1008.15 457.729C1007.21 456.737 1006.74 455.415 1006.74 453.76V453.412C1006.74 452.311 1006.95 451.33 1007.36 450.469C1007.79 449.601 1008.37 448.924 1009.13 448.438C1009.89 447.946 1010.71 447.7 1011.59 447.7C1013.03 447.7 1014.15 448.175 1014.95 449.125C1015.75 450.076 1016.15 451.436 1016.15 453.207V453.996H1008.63C1008.66 455.09 1008.98 455.975 1009.59 456.652C1010.2 457.322 1010.98 457.657 1011.93 457.657C1012.6 457.657 1013.16 457.52 1013.63 457.247C1014.09 456.973 1014.5 456.611 1014.85 456.16L1016.01 457.062C1015.08 458.491 1013.68 459.205 1011.82 459.205ZM1011.59 449.259C1010.82 449.259 1010.18 449.539 1009.66 450.1C1009.14 450.653 1008.82 451.433 1008.7 452.438H1014.25V452.294C1014.2 451.33 1013.94 450.585 1013.47 450.059C1013.01 449.525 1012.38 449.259 1011.59 449.259ZM1023.72 449.607C1023.43 449.56 1023.12 449.536 1022.78 449.536C1021.54 449.536 1020.7 450.065 1020.25 451.125V459H1018.35V447.905H1020.2L1020.23 449.187C1020.85 448.196 1021.74 447.7 1022.88 447.7C1023.25 447.7 1023.53 447.748 1023.72 447.844V449.607ZM1029.29 456.221L1031.87 447.905H1033.9L1029.44 460.712C1028.75 462.558 1027.65 463.481 1026.15 463.481L1025.79 463.45L1025.08 463.317V461.779L1025.59 461.82C1026.24 461.82 1026.74 461.69 1027.09 461.43C1027.45 461.17 1027.75 460.695 1027.98 460.005L1028.4 458.877L1024.45 447.905H1026.52L1029.29 456.221Z" fill="white"/>
<path d="M1125.01 455.104H1118.76L1117.35 459H1115.32L1121.03 444.07H1122.75L1128.46 459H1126.44L1125.01 455.104ZM1119.35 453.483H1124.43L1121.89 446.5L1119.35 453.483ZM1139.56 453.576C1139.56 455.271 1139.18 456.635 1138.4 457.667C1137.62 458.692 1136.57 459.205 1135.26 459.205C1133.86 459.205 1132.77 458.709 1132.01 457.718L1131.92 459H1130.17V443.25H1132.07V449.125C1132.83 448.175 1133.89 447.7 1135.24 447.7C1136.58 447.7 1137.64 448.209 1138.41 449.228C1139.18 450.247 1139.56 451.641 1139.56 453.412V453.576ZM1137.67 453.36C1137.67 452.068 1137.42 451.07 1136.92 450.366C1136.42 449.662 1135.7 449.31 1134.77 449.31C1133.52 449.31 1132.62 449.891 1132.07 451.053V455.852C1132.65 457.014 1133.56 457.595 1134.79 457.595C1135.7 457.595 1136.4 457.243 1136.91 456.539C1137.42 455.835 1137.67 454.775 1137.67 453.36ZM1141.46 453.35C1141.46 452.263 1141.67 451.286 1142.1 450.417C1142.53 449.549 1143.12 448.879 1143.88 448.408C1144.65 447.936 1145.52 447.7 1146.5 447.7C1148.01 447.7 1149.23 448.223 1150.16 449.269C1151.09 450.315 1151.56 451.706 1151.56 453.442V453.576C1151.56 454.656 1151.35 455.626 1150.94 456.488C1150.53 457.342 1149.94 458.009 1149.16 458.487C1148.4 458.966 1147.52 459.205 1146.52 459.205C1145.01 459.205 1143.79 458.682 1142.86 457.636C1141.93 456.59 1141.46 455.206 1141.46 453.483V453.35ZM1143.37 453.576C1143.37 454.806 1143.65 455.794 1144.22 456.539C1144.79 457.284 1145.56 457.657 1146.52 457.657C1147.48 457.657 1148.25 457.281 1148.81 456.529C1149.38 455.77 1149.67 454.71 1149.67 453.35C1149.67 452.133 1149.37 451.149 1148.79 450.397C1148.22 449.638 1147.45 449.259 1146.5 449.259C1145.56 449.259 1144.8 449.631 1144.23 450.376C1143.66 451.122 1143.37 452.188 1143.37 453.576ZM1160.79 457.903C1160.05 458.771 1158.97 459.205 1157.54 459.205C1156.36 459.205 1155.46 458.863 1154.83 458.18C1154.22 457.489 1153.91 456.471 1153.9 455.124V447.905H1155.8V455.073C1155.8 456.754 1156.48 457.595 1157.85 457.595C1159.3 457.595 1160.26 457.055 1160.74 455.975V447.905H1162.64V459H1160.83L1160.79 457.903ZM1168.1 445.219V447.905H1170.17V449.372H1168.1V456.252C1168.1 456.696 1168.19 457.031 1168.38 457.257C1168.56 457.476 1168.88 457.585 1169.32 457.585C1169.54 457.585 1169.84 457.544 1170.22 457.462V459C1169.73 459.137 1169.24 459.205 1168.77 459.205C1167.92 459.205 1167.28 458.949 1166.85 458.436C1166.42 457.923 1166.2 457.195 1166.2 456.252V449.372H1164.18V447.905H1166.2V445.219H1168.1Z" fill="white"/>
<path d="M1261.68 444.07L1266.56 456.252L1271.44 444.07H1273.99V459H1272.03V453.186L1272.21 446.911L1267.31 459H1265.8L1260.91 446.941L1261.1 453.186V459H1259.14V444.07H1261.68ZM1280.8 456.221L1283.39 447.905H1285.42L1280.96 460.712C1280.27 462.558 1279.17 463.481 1277.67 463.481L1277.31 463.45L1276.6 463.317V461.779L1277.11 461.82C1277.75 461.82 1278.25 461.69 1278.61 461.43C1278.97 461.17 1279.27 460.695 1279.5 460.005L1279.92 458.877L1275.96 447.905H1278.03L1280.8 456.221ZM1300.87 455.104H1294.61L1293.21 459H1291.18L1296.88 444.07H1298.6L1304.31 459H1302.29L1300.87 455.104ZM1295.21 453.483H1300.29L1297.74 446.5L1295.21 453.483ZM1310.48 457.657C1311.15 457.657 1311.75 457.452 1312.25 457.042C1312.76 456.631 1313.04 456.119 1313.09 455.503H1314.89C1314.85 456.139 1314.63 456.744 1314.23 457.318C1313.83 457.893 1313.29 458.351 1312.61 458.692C1311.94 459.034 1311.23 459.205 1310.48 459.205C1308.97 459.205 1307.76 458.703 1306.87 457.698C1305.98 456.686 1305.54 455.305 1305.54 453.555V453.237C1305.54 452.157 1305.73 451.197 1306.13 450.356C1306.53 449.515 1307.09 448.862 1307.83 448.397C1308.58 447.933 1309.46 447.7 1310.47 447.7C1311.71 447.7 1312.74 448.073 1313.56 448.818C1314.39 449.563 1314.83 450.53 1314.89 451.72H1313.09C1313.04 451.002 1312.76 450.414 1312.27 449.956C1311.79 449.491 1311.19 449.259 1310.47 449.259C1309.5 449.259 1308.75 449.607 1308.22 450.305C1307.7 450.995 1307.43 451.997 1307.43 453.309V453.668C1307.43 454.946 1307.7 455.931 1308.22 456.621C1308.75 457.312 1309.5 457.657 1310.48 457.657ZM1321.47 457.657C1322.15 457.657 1322.74 457.452 1323.24 457.042C1323.75 456.631 1324.03 456.119 1324.08 455.503H1325.88C1325.84 456.139 1325.63 456.744 1325.22 457.318C1324.82 457.893 1324.28 458.351 1323.6 458.692C1322.93 459.034 1322.22 459.205 1321.47 459.205C1319.96 459.205 1318.76 458.703 1317.86 457.698C1316.97 456.686 1316.53 455.305 1316.53 453.555V453.237C1316.53 452.157 1316.73 451.197 1317.12 450.356C1317.52 449.515 1318.09 448.862 1318.82 448.397C1319.57 447.933 1320.45 447.7 1321.46 447.7C1322.7 447.7 1323.74 448.073 1324.56 448.818C1325.38 449.563 1325.82 450.53 1325.88 451.72H1324.08C1324.03 451.002 1323.76 450.414 1323.26 449.956C1322.78 449.491 1322.18 449.259 1321.46 449.259C1320.5 449.259 1319.75 449.607 1319.21 450.305C1318.69 450.995 1318.42 451.997 1318.42 453.309V453.668C1318.42 454.946 1318.69 455.931 1319.21 456.621C1319.74 457.312 1320.49 457.657 1321.47 457.657ZM1327.51 453.35C1327.51 452.263 1327.72 451.286 1328.15 450.417C1328.58 449.549 1329.17 448.879 1329.93 448.408C1330.69 447.936 1331.57 447.7 1332.54 447.7C1334.05 447.7 1335.27 448.223 1336.2 449.269C1337.14 450.315 1337.61 451.706 1337.61 453.442V453.576C1337.61 454.656 1337.4 455.626 1336.98 456.488C1336.57 457.342 1335.98 458.009 1335.21 458.487C1334.44 458.966 1333.56 459.205 1332.56 459.205C1331.06 459.205 1329.84 458.682 1328.9 457.636C1327.97 456.59 1327.51 455.206 1327.51 453.483V453.35ZM1329.42 453.576C1329.42 454.806 1329.7 455.794 1330.27 456.539C1330.84 457.284 1331.61 457.657 1332.56 457.657C1333.53 457.657 1334.29 457.281 1334.86 456.529C1335.43 455.77 1335.71 454.71 1335.71 453.35C1335.71 452.133 1335.42 451.149 1334.84 450.397C1334.27 449.638 1333.5 449.259 1332.54 449.259C1331.61 449.259 1330.85 449.631 1330.28 450.376C1329.7 451.122 1329.42 452.188 1329.42 453.576ZM1346.84 457.903C1346.1 458.771 1345.02 459.205 1343.59 459.205C1342.4 459.205 1341.5 458.863 1340.88 458.18C1340.27 457.489 1339.95 456.471 1339.95 455.124V447.905H1341.84V455.073C1341.84 456.754 1342.53 457.595 1343.9 457.595C1345.34 457.595 1346.31 457.055 1346.79 455.975V447.905H1348.68V459H1346.88L1346.84 457.903ZM1353.37 447.905L1353.43 449.3C1354.28 448.233 1355.39 447.7 1356.75 447.7C1359.1 447.7 1360.28 449.023 1360.3 451.668V459H1358.4V451.658C1358.4 450.858 1358.21 450.267 1357.85 449.884C1357.5 449.501 1356.94 449.31 1356.18 449.31C1355.56 449.31 1355.02 449.474 1354.56 449.802C1354.09 450.13 1353.73 450.561 1353.47 451.094V459H1351.58V447.905H1353.37ZM1365.74 445.219V447.905H1367.81V449.372H1365.74V456.252C1365.74 456.696 1365.83 457.031 1366.01 457.257C1366.2 457.476 1366.51 457.585 1366.96 457.585C1367.17 457.585 1367.48 457.544 1367.86 457.462V459C1367.36 459.137 1366.87 459.205 1366.4 459.205C1365.55 459.205 1364.92 458.949 1364.48 458.436C1364.05 457.923 1363.84 457.195 1363.84 456.252V449.372H1361.82V447.905H1363.84V445.219H1365.74Z" fill="white"/>
<path d="M1386.41 448.09L1391 452.67L1395.59 448.09L1397 449.5L1391 455.5L1385 449.5L1386.41 448.09Z" fill="white"/>
</svg>
