<svg width="24" height="24" viewBox="0 0 24 24" fill="none" xmlns="http://www.w3.org/2000/svg">
<path d="M11.99 2C6.47001 2 1.99001 6.48 1.99001 12C1.99001 17.52 6.47001 22 11.99 22C17.51 22 21.99 17.52 21.99 12C21.99 6.48 17.51 2 11.99 2ZM15.6 8.34C16.67 8.34 17.53 9.2 17.53 10.27C17.53 11.34 16.67 12.2 15.6 12.2C14.53 12.2 13.67 11.34 13.67 10.27C13.66 9.2 14.53 8.34 15.6 8.34ZM9.60001 6.76C10.9 6.76 11.96 7.82 11.96 9.12C11.96 10.42 10.9 11.48 9.60001 11.48C8.30001 11.48 7.24001 10.42 7.24001 9.12C7.24001 7.81 8.29001 6.76 9.60001 6.76ZM9.60001 15.89V19.64C7.20001 18.89 5.30001 17.04 4.46001 14.68C5.51001 13.56 8.13001 12.99 9.60001 12.99C10.13 12.99 10.8 13.07 11.5 13.21C9.86001 14.08 9.60001 15.23 9.60001 15.89ZM11.99 20C11.72 20 11.46 19.99 11.2 19.96V15.89C11.2 14.47 14.14 13.76 15.6 13.76C16.67 13.76 18.52 14.15 19.44 14.91C18.27 17.88 15.38 20 11.99 20Z" fill="white"/>
</svg>
