<svg width="45" height="45" viewBox="0 0 45 45" fill="none" xmlns="http://www.w3.org/2000/svg">
<path d="M18.75 24.375C19.5552 25.4515 20.5825 26.3422 21.7623 26.9868C22.942 27.6313 24.2466 28.0146 25.5875 28.1106C26.9284 28.2067 28.2742 28.0132 29.5338 27.5433C30.7933 27.0735 31.9371 26.3383 32.8875 25.3875L38.5125 19.7625C40.2202 17.9944 41.1652 15.6262 41.1438 13.1681C41.1225 10.71 40.1365 8.35865 38.3983 6.62045C36.6601 4.88225 34.3087 3.89629 31.8506 3.87493C29.3925 3.85357 27.0244 4.79851 25.2563 6.50625L22.0312 9.7125" stroke="black" stroke-width="2" stroke-linecap="round" stroke-linejoin="round"/>
<path d="M26.2501 20.625C25.4449 19.5485 24.4176 18.6578 23.2378 18.0132C22.0581 17.3687 20.7536 16.9854 19.4127 16.8894C18.0718 16.7933 16.7259 16.9868 15.4664 17.4567C14.2068 17.9265 13.063 18.6617 12.1126 19.6125L6.48763 25.2375C4.7799 27.0056 3.83495 29.3738 3.85631 31.8319C3.87767 34.29 4.86363 36.6413 6.60183 38.3795C8.34003 40.1177 10.6914 41.1037 13.1495 41.1251C15.6076 41.1464 17.9757 40.2015 19.7439 38.4937L22.9501 35.2875" stroke="black" stroke-width="2" stroke-linecap="round" stroke-linejoin="round"/>
</svg>
