<svg width="101" height="45" viewBox="0 0 101 45" fill="none" xmlns="http://www.w3.org/2000/svg">
<path d="M61.1368 17.0266C60.5152 16.9512 59.4228 16.8476 57.8596 16.7158C56.9932 16.6781 56.2963 16.6593 55.7689 16.6593C55.0909 16.6593 54.4505 16.6781 53.8478 16.7158V12.3368H54.5541C56.0986 12.3368 57.6995 12.4404 59.3569 12.6476C59.8843 12.7229 60.4776 12.8265 61.1368 12.9583V17.0266ZM56.4752 26.2649C56.4752 25.8694 56.447 25.5869 56.3905 25.4173C56.334 25.229 56.2398 25.1066 56.108 25.0501C55.9761 24.9747 55.7501 24.9182 55.4299 24.8806L51.955 24.4568C49.902 24.2308 48.5177 23.5621 47.802 22.4509C47.4818 21.98 47.2652 21.4056 47.1522 20.7276C47.0392 20.0495 46.9827 19.2208 46.9827 18.2414C46.9827 16.1508 47.5194 14.644 48.593 13.7211C49.4594 12.9677 50.8155 12.5251 52.6613 12.3933V18.0719C52.6613 18.3167 52.6707 18.5239 52.6895 18.6934C52.7083 18.8629 52.746 18.9948 52.8025 19.089C52.859 19.202 52.9532 19.2867 53.085 19.3432C53.2169 19.3809 53.4146 19.4091 53.6783 19.428L57.5771 19.9083C58.3869 20.0213 59.0462 20.1625 59.5547 20.332C60.0632 20.5015 60.4964 20.7652 60.8543 21.1231C61.7018 22.0083 62.1256 23.581 62.1256 25.8411C62.1256 28.2331 61.5982 29.9094 60.5435 30.8699C60.0726 31.3031 59.4982 31.6233 58.8201 31.8305C58.1609 32.0188 57.3793 32.1413 56.4752 32.1978V26.2649ZM54.9779 32.226C53.0944 32.226 51.3428 32.1413 49.7231 31.9717C48.7625 31.8776 48.0374 31.7834 47.5477 31.6892V27.5645C48.6589 27.6586 49.9303 27.7528 51.3617 27.847C52.2657 27.8847 52.9061 27.9035 53.2828 27.9035C54.2999 27.9035 54.9685 27.8752 55.2887 27.8187V32.226H54.9779ZM65.0441 12.5628H70.6945V32H65.0441V12.5628ZM73.0111 25.3891H71.8811V21.0666H72.8416C73.4255 21.0666 73.8681 21.0477 74.1694 21.0101C74.4708 20.9536 74.7062 20.8594 74.8757 20.7276C75.0264 20.5957 75.13 20.3979 75.1865 20.1343C75.243 19.8706 75.2713 19.4845 75.2713 18.9759C75.2713 18.4674 75.243 18.0813 75.1865 17.8176C75.13 17.5351 75.0264 17.3279 74.8757 17.1961C74.7251 17.0642 74.499 16.9795 74.1977 16.9418C73.9152 16.9041 73.4632 16.8853 72.8416 16.8853H71.8811V12.5628H74.791C76.1282 12.5628 77.2112 12.6946 78.0399 12.9583C78.8687 13.222 79.509 13.6269 79.9611 14.1731C80.3754 14.6817 80.6485 15.3126 80.7804 16.066C80.931 16.8194 81.0064 17.7894 81.0064 18.9759C81.0064 20.5015 80.8651 21.6787 80.5826 22.5074C80.1871 23.5621 79.4902 24.3061 78.492 24.7393L81.4301 32H75.4973L73.0111 25.3891ZM84.081 12.5628H89.7313V32H84.081V12.5628ZM90.9179 21.6316H91.5959C92.1986 21.6316 92.6412 21.6128 92.9237 21.5751C93.2251 21.5186 93.4605 21.4056 93.63 21.2361C93.7996 21.0854 93.9031 20.8688 93.9408 20.5863C93.9973 20.2849 94.0256 19.8423 94.0256 19.2585C94.0256 18.6746 93.9973 18.2414 93.9408 17.9589C93.9031 17.6575 93.7996 17.4221 93.63 17.2526C93.4605 17.1019 93.2251 17.0077 92.9237 16.9701C92.6224 16.9136 92.1798 16.8853 91.5959 16.8853H90.9179V12.5628H93.2628C94.6565 12.5628 95.7866 12.7041 96.653 12.9866C97.5382 13.2503 98.2068 13.6646 98.6589 14.2297C99.092 14.757 99.384 15.4256 99.5347 16.2355C99.6853 17.0266 99.7607 18.0342 99.7607 19.2585C99.7607 20.4262 99.6853 21.3962 99.5347 22.1684C99.4028 22.9406 99.1297 23.5904 98.7154 24.1178C98.2445 24.7205 97.5665 25.1819 96.6812 25.5021C95.8148 25.8034 94.6754 25.9541 93.2628 25.9541H90.9179V21.6316Z" fill="#FFFADE"/>
<g clip-path="url(#clip0)">
<path d="M25.681 27.0639L18.0105 34.6968L10.34 27.0639C4.59107 27.3119 0 31.9925 0 37.7692V38.5373C0 40.6576 1.72869 42.3778 3.85939 42.3778H32.1616C34.2923 42.3778 36.021 40.6576 36.021 38.5373V37.7692C36.021 31.9925 31.4299 27.3119 25.681 27.0639ZM1.09349 7.79752L1.60808 7.91754V12.5901C1.04525 12.9262 0.643232 13.5102 0.643232 14.2143C0.643232 14.8864 1.01309 15.4465 1.53572 15.7905L0.281414 20.7751C0.144727 21.3272 0.450262 21.8953 0.892484 21.8953H4.25337C4.69559 21.8953 5.00113 21.3272 4.86444 20.7751L3.61014 15.7905C4.13276 15.4465 4.50262 14.8864 4.50262 14.2143C4.50262 13.5102 4.1006 12.9262 3.53778 12.5901V8.38159L8.84444 9.65375C8.15296 11.0299 7.71878 12.5661 7.71878 14.2143C7.71878 19.871 12.3259 24.4556 18.0105 24.4556C23.6951 24.4556 28.3022 19.871 28.3022 14.2143C28.3022 12.5661 27.8761 11.0299 27.1765 9.65375L34.9194 7.79752C36.3828 7.44548 36.3828 5.62925 34.9194 5.27721L19.6105 1.59676C18.5653 1.34873 17.4637 1.34873 16.4185 1.59676L1.09349 5.26921C-0.361818 5.62125 -0.361818 7.44548 1.09349 7.79752Z" fill="#FFFADE"/>
</g>
<defs>
<clipPath id="clip0">
<rect width="36.021" height="40.965" fill="white" transform="translate(0 1.4126)"/>
</clipPath>
</defs>
</svg>
