<svg width="21" height="21" viewBox="0 0 21 21" fill="none" xmlns="http://www.w3.org/2000/svg">
<g clip-path="url(#clip0)">
<path d="M19.5121 3.25065C18.7094 3.81688 17.8206 4.24996 16.8799 4.53321C16.3751 3.95271 15.7041 3.54127 14.9578 3.35453C14.2115 3.16779 13.4258 3.21477 12.7071 3.4891C11.9883 3.76343 11.3712 4.25188 10.9391 4.8884C10.507 5.52491 10.2808 6.27878 10.2911 7.04803V7.88631C8.81794 7.92451 7.35821 7.59778 6.04189 6.93524C4.72558 6.2727 3.59355 5.29489 2.74663 4.08892C2.74663 4.08892 -0.606474 11.6334 6.938 14.9865C5.2116 16.1584 3.155 16.746 1.07008 16.663C8.61455 20.8544 17.8356 16.663 17.8356 7.02288C17.8348 6.78939 17.8124 6.55646 17.7685 6.32712C18.6241 5.48339 19.2278 4.41812 19.5121 3.25065V3.25065Z" stroke="white" stroke-width="1.67655" stroke-linecap="round" stroke-linejoin="round"/>
</g>
<defs>
<clipPath id="clip0">
<rect width="20.1186" height="20.1186" fill="white" transform="translate(0.231804 0.73584)"/>
</clipPath>
</defs>
</svg>
