<svg width="21" height="22" viewBox="0 0 21 22" fill="none" xmlns="http://www.w3.org/2000/svg">
<g clip-path="url(#clip0)">
<path d="M18.9837 6.2793C18.8841 5.88146 18.6813 5.51695 18.3957 5.22257C18.1102 4.9282 17.752 4.71439 17.3574 4.60275C15.9156 4.25067 10.1482 4.25067 10.1482 4.25067C10.1482 4.25067 4.3809 4.25067 2.93907 4.63628C2.54445 4.74792 2.18628 4.96173 1.90073 5.2561C1.61519 5.55048 1.41239 5.91499 1.31281 6.31283C1.04894 7.77608 0.91986 9.26046 0.927206 10.7473C0.9178 12.2453 1.04689 13.741 1.31281 15.2153C1.42259 15.6008 1.62994 15.9514 1.91482 16.2334C2.19969 16.5153 2.55247 16.719 2.93907 16.8248C4.3809 17.2104 10.1482 17.2104 10.1482 17.2104C10.1482 17.2104 15.9156 17.2104 17.3574 16.8248C17.752 16.7132 18.1102 16.4993 18.3957 16.205C18.6813 15.9106 18.8841 15.5461 18.9837 15.1482C19.2455 13.696 19.3746 12.2229 19.3693 10.7473C19.3787 9.24927 19.2496 7.75357 18.9837 6.2793V6.2793Z" stroke="white" stroke-width="1.67655" stroke-linecap="round" stroke-linejoin="round"/>
<path d="M8.26212 13.4885L13.0822 10.7473L8.26212 8.00616V13.4885Z" stroke="white" stroke-width="1.67655" stroke-linecap="round" stroke-linejoin="round"/>
</g>
<defs>
<clipPath id="clip0">
<rect width="20.1186" height="20.1186" fill="white" transform="translate(0.0889587 0.897583)"/>
</clipPath>
</defs>
</svg>
