<svg width="320" height="568" viewBox="0 0 320 568" fill="none" xmlns="http://www.w3.org/2000/svg">
<rect width="320" height="568" fill="white"/>
<rect width="320" height="183" fill="#9F0000"/>
<path d="M157 12.6667H134.833C129.577 12.6667 125.333 16.91 125.333 22.1667V47.5C125.333 52.7567 129.577 57 134.833 57L131.667 60.1667V63.3333H134.833L141.167 56.905L147.5 57V41.1667H131.667V18.9367L160.167 19V25.3333H166.5V22.1667C166.5 16.91 162.257 12.6667 157 12.6667ZM134.833 44.3333C136.575 44.3333 138 45.7583 138 47.5C138 49.2417 136.575 50.6667 134.833 50.6667C133.092 50.6667 131.667 49.2417 131.667 47.5C131.667 45.7583 133.092 44.3333 134.833 44.3333ZM184.138 30.59C183.695 29.3233 182.492 28.5 181.067 28.5H158.298C156.842 28.5 155.67 29.3233 155.195 30.59L150.667 43.605L150.698 61.0533C150.698 62.2567 151.68 63.3333 152.883 63.3333H154.847C156.05 63.3333 157 62.13 157 60.9267V57H182.333V60.9267C182.333 62.13 183.315 63.3333 184.518 63.3333H186.45C187.653 63.3333 188.635 62.2567 188.635 61.0533L188.667 56.715V43.605L184.138 30.59ZM158.298 31.6667H181.067L184.328 41.1667H155.037L158.298 31.6667ZM157 50.6667C155.258 50.6667 153.833 49.2417 153.833 47.5C153.833 45.7583 155.258 44.3333 157 44.3333C158.742 44.3333 160.167 45.7583 160.167 47.5C160.167 49.2417 158.742 50.6667 157 50.6667ZM182.333 50.6667C180.592 50.6667 179.167 49.2417 179.167 47.5C179.167 45.7583 180.592 44.3333 182.333 44.3333C184.075 44.3333 185.5 45.7583 185.5 47.5C185.5 49.2417 184.075 50.6667 182.333 50.6667Z" fill="white"/>
<g filter="url(#filter0_dd)">
<rect x="81" y="124" width="152" height="36.4576" rx="18.2288" fill="url(#paint0_linear)" style="mix-blend-mode:overlay"/>
</g>
<path d="M111.193 148C111.08 148 110.983 147.966 110.904 147.898C110.836 147.819 110.802 147.722 110.802 147.609V136.508C110.802 136.383 110.836 136.287 110.904 136.219C110.983 136.14 111.08 136.1 111.193 136.1H115.341C116.644 136.1 117.664 136.406 118.401 137.018C119.138 137.63 119.506 138.514 119.506 139.67C119.506 140.531 119.291 141.24 118.86 141.795C118.441 142.35 117.846 142.736 117.075 142.951L119.693 147.473C119.727 147.541 119.744 147.603 119.744 147.66C119.744 147.751 119.704 147.83 119.625 147.898C119.557 147.966 119.478 148 119.387 148H118.571C118.401 148 118.265 147.96 118.163 147.881C118.072 147.802 117.987 147.688 117.908 147.541L115.443 143.223H112.468V147.609C112.468 147.722 112.428 147.819 112.349 147.898C112.27 147.966 112.173 148 112.06 148H111.193ZM115.273 141.778C116.962 141.778 117.806 141.07 117.806 139.653C117.806 138.236 116.962 137.528 115.273 137.528H112.468V141.778H115.273ZM124.628 148C124.514 148 124.418 147.966 124.339 147.898C124.271 147.819 124.237 147.722 124.237 147.609V136.508C124.237 136.383 124.271 136.287 124.339 136.219C124.418 136.14 124.514 136.1 124.628 136.1H131.649C131.762 136.1 131.853 136.14 131.921 136.219C132 136.287 132.04 136.383 132.04 136.508V137.154C132.04 137.267 132.006 137.364 131.938 137.443C131.87 137.511 131.773 137.545 131.649 137.545H125.869V141.268H131.275C131.388 141.268 131.479 141.308 131.547 141.387C131.626 141.455 131.666 141.551 131.666 141.676V142.305C131.666 142.418 131.626 142.515 131.547 142.594C131.479 142.662 131.388 142.696 131.275 142.696H125.869V146.555H131.785C131.909 146.555 132.006 146.589 132.074 146.657C132.142 146.725 132.176 146.821 132.176 146.946V147.609C132.176 147.722 132.136 147.819 132.057 147.898C131.989 147.966 131.898 148 131.785 148H124.628ZM141.06 148.17C139.575 148.17 138.419 147.768 137.592 146.963C136.776 146.147 136.34 145.036 136.283 143.631C136.272 143.291 136.266 142.758 136.266 142.033C136.266 141.296 136.272 140.764 136.283 140.435C136.34 139.041 136.782 137.942 137.609 137.137C138.436 136.332 139.587 135.93 141.06 135.93C142.057 135.93 142.902 136.111 143.593 136.474C144.296 136.825 144.823 137.256 145.174 137.766C145.525 138.276 145.712 138.752 145.735 139.194V139.228C145.735 139.319 145.701 139.392 145.633 139.449C145.565 139.506 145.48 139.534 145.378 139.534H144.375C144.262 139.534 144.177 139.517 144.12 139.483C144.075 139.438 144.029 139.353 143.984 139.228C143.814 138.718 143.485 138.282 142.998 137.919C142.522 137.556 141.876 137.375 141.06 137.375C140.119 137.375 139.383 137.63 138.85 138.14C138.317 138.65 138.028 139.443 137.983 140.52C137.972 140.849 137.966 141.353 137.966 142.033C137.966 142.702 137.972 143.206 137.983 143.546C138.028 144.634 138.317 145.439 138.85 145.96C139.383 146.47 140.119 146.725 141.06 146.725C142.012 146.725 142.771 146.464 143.338 145.943C143.905 145.422 144.188 144.64 144.188 143.597V142.883H141.638C141.525 142.883 141.428 142.849 141.349 142.781C141.281 142.702 141.247 142.6 141.247 142.475V141.931C141.247 141.818 141.281 141.721 141.349 141.642C141.428 141.563 141.525 141.523 141.638 141.523H145.48C145.593 141.523 145.684 141.563 145.752 141.642C145.831 141.71 145.871 141.806 145.871 141.931V143.563C145.871 144.492 145.678 145.303 145.293 145.994C144.908 146.685 144.352 147.224 143.627 147.609C142.902 147.983 142.046 148.17 141.06 148.17ZM150.982 148C150.869 148 150.773 147.966 150.693 147.898C150.625 147.819 150.591 147.722 150.591 147.609V136.491C150.591 136.378 150.625 136.287 150.693 136.219C150.773 136.14 150.869 136.1 150.982 136.1H151.883C151.997 136.1 152.087 136.14 152.155 136.219C152.235 136.287 152.274 136.378 152.274 136.491V147.609C152.274 147.722 152.235 147.819 152.155 147.898C152.087 147.966 151.997 148 151.883 148H150.982ZM161.36 148.17C160.419 148.17 159.603 148.023 158.912 147.728C158.232 147.433 157.71 147.048 157.348 146.572C156.985 146.085 156.792 145.563 156.77 145.008C156.77 144.917 156.804 144.838 156.872 144.77C156.951 144.691 157.042 144.651 157.144 144.651H158.011C158.226 144.651 158.373 144.764 158.453 144.991C158.555 145.467 158.844 145.875 159.32 146.215C159.807 146.555 160.487 146.725 161.36 146.725C162.3 146.725 163.009 146.561 163.485 146.232C163.961 145.892 164.199 145.422 164.199 144.821C164.199 144.436 164.08 144.124 163.842 143.886C163.615 143.648 163.275 143.438 162.822 143.257C162.368 143.076 161.688 142.849 160.782 142.577C159.898 142.328 159.195 142.061 158.674 141.778C158.152 141.495 157.761 141.143 157.501 140.724C157.24 140.305 157.11 139.778 157.11 139.143C157.11 138.531 157.274 137.981 157.603 137.494C157.943 137.007 158.424 136.627 159.048 136.355C159.671 136.072 160.413 135.93 161.275 135.93C162.159 135.93 162.918 136.089 163.553 136.406C164.187 136.712 164.669 137.103 164.998 137.579C165.326 138.055 165.502 138.531 165.525 139.007C165.525 139.098 165.491 139.177 165.423 139.245C165.366 139.313 165.281 139.347 165.168 139.347H164.267C164.029 139.347 163.881 139.239 163.825 139.024C163.757 138.548 163.49 138.157 163.026 137.851C162.561 137.534 161.977 137.375 161.275 137.375C160.504 137.375 159.898 137.522 159.456 137.817C159.014 138.112 158.793 138.548 158.793 139.126C158.793 139.511 158.895 139.829 159.099 140.078C159.314 140.327 159.637 140.548 160.068 140.741C160.498 140.922 161.127 141.132 161.955 141.37C162.918 141.631 163.677 141.903 164.233 142.186C164.788 142.458 165.202 142.804 165.474 143.223C165.746 143.631 165.882 144.152 165.882 144.787C165.882 145.841 165.474 146.668 164.658 147.269C163.842 147.87 162.742 148.17 161.36 148.17ZM173.264 148C173.151 148 173.054 147.966 172.975 147.898C172.907 147.819 172.873 147.722 172.873 147.609V137.613H169.609C169.496 137.613 169.399 137.579 169.32 137.511C169.252 137.432 169.218 137.335 169.218 137.222V136.508C169.218 136.395 169.252 136.298 169.32 136.219C169.399 136.14 169.496 136.1 169.609 136.1H177.803C177.928 136.1 178.024 136.14 178.092 136.219C178.171 136.287 178.211 136.383 178.211 136.508V137.222C178.211 137.335 178.171 137.432 178.092 137.511C178.013 137.579 177.916 137.613 177.803 137.613H174.556V147.609C174.556 147.722 174.516 147.819 174.437 147.898C174.358 147.966 174.261 148 174.148 148H173.264ZM182.803 148C182.689 148 182.593 147.966 182.514 147.898C182.446 147.819 182.412 147.722 182.412 147.609V136.508C182.412 136.383 182.446 136.287 182.514 136.219C182.593 136.14 182.689 136.1 182.803 136.1H189.824C189.937 136.1 190.028 136.14 190.096 136.219C190.175 136.287 190.215 136.383 190.215 136.508V137.154C190.215 137.267 190.181 137.364 190.113 137.443C190.045 137.511 189.948 137.545 189.824 137.545H184.044V141.268H189.45C189.563 141.268 189.654 141.308 189.722 141.387C189.801 141.455 189.841 141.551 189.841 141.676V142.305C189.841 142.418 189.801 142.515 189.722 142.594C189.654 142.662 189.563 142.696 189.45 142.696H184.044V146.555H189.96C190.084 146.555 190.181 146.589 190.249 146.657C190.317 146.725 190.351 146.821 190.351 146.946V147.609C190.351 147.722 190.311 147.819 190.232 147.898C190.164 147.966 190.073 148 189.96 148H182.803ZM195.407 148C195.294 148 195.198 147.966 195.118 147.898C195.05 147.819 195.016 147.722 195.016 147.609V136.508C195.016 136.383 195.05 136.287 195.118 136.219C195.198 136.14 195.294 136.1 195.407 136.1H199.555C200.859 136.1 201.879 136.406 202.615 137.018C203.352 137.63 203.72 138.514 203.72 139.67C203.72 140.531 203.505 141.24 203.074 141.795C202.655 142.35 202.06 142.736 201.289 142.951L203.907 147.473C203.941 147.541 203.958 147.603 203.958 147.66C203.958 147.751 203.919 147.83 203.839 147.898C203.771 147.966 203.692 148 203.601 148H202.785C202.615 148 202.479 147.96 202.377 147.881C202.287 147.802 202.202 147.688 202.122 147.541L199.657 143.223H196.682V147.609C196.682 147.722 196.643 147.819 196.563 147.898C196.484 147.966 196.388 148 196.274 148H195.407ZM199.487 141.778C201.176 141.778 202.02 141.07 202.02 139.653C202.02 138.236 201.176 137.528 199.487 137.528H196.682V141.778H199.487Z" fill="white"/>
<path d="M121.152 88.7559C121.152 89.6152 121.172 90.2939 121.211 90.792C121.26 91.29 121.328 91.666 121.416 91.9199C121.514 92.1738 121.636 92.335 121.782 92.4033C121.929 92.4717 122.1 92.5059 122.295 92.5059C122.559 92.5059 122.832 92.4229 123.115 92.2568C123.398 92.0908 123.677 91.876 123.95 91.6123C124.224 91.3486 124.482 91.0557 124.727 90.7334C124.98 90.4111 125.21 90.0986 125.415 89.7959C125.63 89.4834 125.811 89.1953 125.957 88.9316C126.113 88.6582 126.23 88.4482 126.309 88.3018L126.763 87.3936L127.363 87.8477L126.909 88.7559C126.831 88.9023 126.704 89.1416 126.528 89.4736C126.353 89.7959 126.133 90.1572 125.869 90.5576C125.605 90.9482 125.308 91.3584 124.976 91.7881C124.644 92.208 124.287 92.5938 123.906 92.9453C123.525 93.2969 123.125 93.585 122.705 93.8096C122.285 94.0342 121.855 94.1465 121.416 94.1465C121.016 94.1465 120.659 94.0781 120.347 93.9414C120.034 93.8047 119.771 93.5654 119.556 93.2236C119.341 92.8721 119.175 92.3984 119.058 91.8027C118.95 91.1973 118.896 90.4307 118.896 89.5029C118.896 89.1416 118.901 88.7998 118.911 88.4775C118.931 88.1455 118.955 87.7451 118.984 87.2764C118.486 88.2432 117.91 89.1758 117.256 90.0742C116.611 90.9727 115.918 91.7686 115.176 92.4619C114.434 93.1553 113.657 93.707 112.847 94.1172C112.046 94.5371 111.235 94.7471 110.415 94.7471C109.897 94.7471 109.404 94.6543 108.936 94.4688C108.467 94.2832 108.052 94 107.69 93.6191C107.329 93.2285 107.041 92.7305 106.826 92.125C106.611 91.5195 106.504 90.7969 106.504 89.957C106.504 88.6094 106.655 87.2861 106.958 85.9873C107.251 84.6885 107.661 83.4336 108.188 82.2227C108.716 81.002 109.336 79.8398 110.049 78.7363C110.762 77.623 111.528 76.5928 112.349 75.6455C113.169 74.6982 114.028 73.8438 114.927 73.082C115.825 72.3105 116.724 71.6514 117.622 71.1045C118.521 70.5576 119.395 70.1377 120.244 69.8447C121.104 69.5518 121.904 69.4053 122.646 69.4053C123.467 69.4053 124.121 69.6152 124.609 70.0352C125.098 70.4453 125.342 71.0312 125.342 71.793C125.342 72.3008 125.239 72.7988 125.034 73.2871C124.839 73.7656 124.575 74.2295 124.243 74.6787C123.921 75.1182 123.55 75.5381 123.13 75.9385C122.72 76.3291 122.305 76.6855 121.885 77.0078C121.465 77.3203 121.055 77.5986 120.654 77.8428C120.264 78.0771 119.927 78.2627 119.644 78.3994L119.204 77.7988C119.448 77.6719 119.727 77.4961 120.039 77.2715C120.361 77.0469 120.684 76.7832 121.006 76.4805C121.328 76.1777 121.641 75.8457 121.943 75.4844C122.256 75.1133 122.534 74.7275 122.778 74.3271C123.022 73.917 123.218 73.4971 123.364 73.0674C123.511 72.6279 123.584 72.1934 123.584 71.7637C123.584 71.3438 123.472 70.9971 123.247 70.7236C123.032 70.4404 122.681 70.2988 122.192 70.2988C121.616 70.2988 120.991 70.4502 120.317 70.7529C119.644 71.0459 118.95 71.4658 118.237 72.0127C117.524 72.5596 116.807 73.2139 116.084 73.9756C115.371 74.7275 114.683 75.5625 114.019 76.4805C113.354 77.3887 112.734 78.3652 112.158 79.4102C111.592 80.4453 111.094 81.5244 110.664 82.6475C110.244 83.7607 109.912 84.8984 109.668 86.0605C109.424 87.2129 109.302 88.3604 109.302 89.5029C109.302 90.0303 109.341 90.5186 109.419 90.9678C109.497 91.4072 109.624 91.7881 109.8 92.1104C109.976 92.4229 110.205 92.667 110.488 92.8428C110.771 93.0186 111.123 93.1064 111.543 93.1064C112.07 93.1064 112.588 92.9893 113.096 92.7549C113.604 92.5107 114.097 92.1836 114.575 91.7734C115.054 91.3633 115.513 90.8848 115.952 90.3379C116.401 89.791 116.821 89.2051 117.212 88.5801C117.603 87.9551 117.964 87.3154 118.296 86.6611C118.638 85.9971 118.94 85.3428 119.204 84.6982C119.272 83.9658 119.351 83.2676 119.438 82.6035C119.526 81.9297 119.614 81.3291 119.702 80.8018C119.79 80.2744 119.873 79.8398 119.951 79.498C120.029 79.1465 120.098 78.9316 120.156 78.8535C120.195 78.7852 120.278 78.707 120.405 78.6191C120.532 78.5312 120.674 78.4531 120.83 78.3848C120.996 78.3066 121.162 78.2432 121.328 78.1943C121.494 78.1357 121.636 78.1064 121.753 78.1064C122.046 78.1064 122.192 78.2529 122.192 78.5459C122.192 78.8193 122.173 79.1367 122.134 79.498C122.095 79.8594 122.041 80.2354 121.973 80.626C121.904 81.0166 121.821 81.4121 121.724 81.8125C121.636 82.2031 121.533 82.5645 121.416 82.8965C121.338 83.9609 121.274 84.9863 121.226 85.9727C121.177 86.9492 121.152 87.877 121.152 88.7559ZM136.819 90.8213C136.77 90.8994 136.696 91.0361 136.599 91.2314C136.511 91.417 136.394 91.627 136.247 91.8613C136.111 92.0957 135.945 92.3398 135.749 92.5938C135.564 92.8477 135.349 93.0771 135.105 93.2822C134.861 93.4873 134.587 93.6582 134.284 93.7949C133.991 93.9316 133.664 94 133.303 94C133.02 94 132.727 93.9414 132.424 93.8242C132.121 93.707 131.838 93.4922 131.574 93.1797C131.321 92.8672 131.111 92.4424 130.945 91.9053C130.779 91.3584 130.696 90.6553 130.696 89.7959C130.696 88.9756 130.725 88.1553 130.783 87.335C130.842 86.5049 130.91 85.748 130.988 85.0645C131.076 84.3809 131.159 83.8096 131.238 83.3506C131.316 82.8916 131.374 82.6133 131.413 82.5156C131.452 82.4277 131.53 82.3496 131.648 82.2812C131.765 82.2129 131.897 82.1592 132.043 82.1201C132.199 82.0811 132.356 82.0518 132.512 82.0322C132.678 82.0127 132.82 82.0029 132.937 82.0029C133.093 82.0029 133.215 82.042 133.303 82.1201C133.401 82.1982 133.449 82.3301 133.449 82.5156C133.449 82.6035 133.43 82.7793 133.391 83.043C133.362 83.2969 133.322 83.6094 133.274 83.9805C133.225 84.3516 133.171 84.7617 133.113 85.2109C133.064 85.6602 133.015 86.1191 132.966 86.5879C132.917 87.0469 132.873 87.5059 132.834 87.9648C132.805 88.4141 132.79 88.8242 132.79 89.1953C132.79 90.2598 132.903 91.0508 133.127 91.5684C133.362 92.0859 133.742 92.3447 134.27 92.3447C134.719 92.3447 135.173 92.0176 135.632 91.3633C136.101 90.709 136.506 89.7568 136.848 88.5068C136.897 87.9795 136.941 87.418 136.98 86.8223C137.029 86.2168 137.072 85.6455 137.112 85.1084C137.151 84.5615 137.185 84.0732 137.214 83.6436C137.253 83.2139 137.287 82.9062 137.317 82.7207C137.346 82.584 137.424 82.4717 137.551 82.3838C137.678 82.2861 137.82 82.2129 137.976 82.1641C138.142 82.1055 138.298 82.0664 138.445 82.0469C138.601 82.0176 138.718 82.0029 138.796 82.0029C138.962 82.0029 139.074 82.042 139.133 82.1201C139.201 82.1885 139.236 82.3008 139.236 82.457C139.236 82.5938 139.221 82.8574 139.192 83.248C139.172 83.6289 139.143 84.0781 139.104 84.5957C139.074 85.1035 139.04 85.6504 139.001 86.2363C138.962 86.8223 138.923 87.3887 138.884 87.9355C138.855 88.4727 138.825 88.9609 138.796 89.4004C138.777 89.8398 138.767 90.1719 138.767 90.3965C138.767 91.0605 138.801 91.583 138.869 91.9639C138.947 92.3447 139.113 92.5352 139.367 92.5352C139.553 92.5352 139.753 92.418 139.968 92.1836C140.193 91.9395 140.432 91.6025 140.686 91.1729C140.949 90.7432 141.233 90.2354 141.535 89.6494C141.838 89.0537 142.165 88.4043 142.517 87.7012L142.663 87.3936L143.264 87.8477L143.117 88.1553C142.649 89.083 142.234 89.9131 141.872 90.6455C141.521 91.3682 141.184 91.9785 140.862 92.4766C140.539 92.9746 140.212 93.3555 139.88 93.6191C139.548 93.873 139.177 94 138.767 94C138.386 94 138.069 93.9268 137.815 93.7803C137.571 93.6338 137.375 93.4238 137.229 93.1504C137.082 92.877 136.975 92.5449 136.906 92.1543C136.848 91.7637 136.819 91.3193 136.819 90.8213ZM146.669 89.1953C146.669 88.1602 146.708 87.1201 146.787 86.0752C146.865 85.0303 146.967 83.9707 147.094 82.8965H145.761L145.922 82.0029H147.211C147.348 81.0068 147.485 80.0107 147.621 79.0146C147.768 78.0088 147.9 77.0029 148.017 75.9971H149.511C149.492 76.2119 149.462 76.5244 149.423 76.9346C149.394 77.335 149.355 77.8037 149.306 78.3408C149.267 78.8682 149.228 79.4492 149.189 80.084C149.15 80.709 149.111 81.3486 149.072 82.0029H151.913L151.767 82.8965H149.013C148.974 83.4531 148.94 84 148.911 84.5371C148.881 85.0742 148.852 85.5869 148.823 86.0752C148.803 86.5537 148.788 86.998 148.779 87.4082C148.769 87.8086 148.764 88.1553 148.764 88.4482C148.764 89.1904 148.784 89.8105 148.823 90.3086C148.871 90.8066 148.94 91.207 149.028 91.5098C149.125 91.8125 149.243 92.0273 149.379 92.1543C149.526 92.2812 149.692 92.3447 149.877 92.3447C150.121 92.3447 150.39 92.2227 150.683 91.9785C150.986 91.7246 151.298 91.3877 151.621 90.9678C151.943 90.5479 152.27 90.0596 152.602 89.5029C152.934 88.9365 153.256 88.3359 153.569 87.7012L153.715 87.3936L154.316 87.8477L154.169 88.1553C153.72 89.0635 153.271 89.8789 152.822 90.6016C152.382 91.3242 151.948 91.9395 151.518 92.4473C151.088 92.9453 150.668 93.3311 150.258 93.6045C149.848 93.8682 149.453 94 149.072 94C148.691 94 148.349 93.9121 148.046 93.7363C147.753 93.5605 147.504 93.2822 147.299 92.9014C147.094 92.5107 146.938 92.0127 146.83 91.4072C146.723 90.8018 146.669 90.0645 146.669 89.1953ZM170.055 87.8477L169.894 88.1553C169.562 88.8193 169.118 89.3516 168.561 89.752C168.014 90.1426 167.419 90.3965 166.774 90.5137C166.598 91.0117 166.369 91.4756 166.086 91.9053C165.812 92.3252 165.495 92.6914 165.133 93.0039C164.782 93.3164 164.381 93.5605 163.932 93.7363C163.493 93.9121 163.014 94 162.497 94C161.745 94 161.066 93.8438 160.461 93.5312C159.865 93.209 159.357 92.7793 158.937 92.2422C158.517 91.6953 158.195 91.0605 157.97 90.3379C157.746 89.6055 157.633 88.8242 157.633 87.9941C157.633 87.2715 157.716 86.6172 157.882 86.0312C158.048 85.4355 158.258 84.9082 158.512 84.4492C158.766 83.9805 159.049 83.5752 159.362 83.2334C159.674 82.8818 159.982 82.5938 160.285 82.3691C160.588 82.1445 160.861 81.9785 161.105 81.8711C161.359 81.7539 161.549 81.6953 161.676 81.6953L161.867 82.208C161.466 82.501 161.11 82.9111 160.797 83.4385C160.524 83.8877 160.275 84.4834 160.05 85.2256C159.836 85.9678 159.728 86.8906 159.728 87.9941C159.728 88.668 159.792 89.3223 159.919 89.957C160.046 90.5918 160.231 91.1533 160.475 91.6416C160.719 92.1299 161.017 92.5205 161.369 92.8135C161.73 93.1064 162.135 93.2529 162.585 93.2529C163.2 93.2529 163.708 93.0088 164.108 92.5205C164.518 92.0225 164.821 91.3438 165.016 90.4844C164.508 90.377 164.025 90.1768 163.566 89.8838C163.107 89.5908 162.702 89.2295 162.35 88.7998C161.999 88.3604 161.715 87.8574 161.501 87.291C161.296 86.7246 161.193 86.1094 161.193 85.4453C161.193 84.8984 161.261 84.4199 161.398 84.0098C161.545 83.5898 161.735 83.2432 161.969 82.9697C162.204 82.6865 162.472 82.4766 162.775 82.3398C163.088 82.1934 163.415 82.1201 163.756 82.1201C164.157 82.1201 164.567 82.2373 164.987 82.4717C165.407 82.6963 165.788 83.0381 166.129 83.4971C166.471 83.9463 166.75 84.5127 166.964 85.1963C167.179 85.8799 167.287 86.6758 167.287 87.584C167.287 87.9258 167.267 88.2627 167.228 88.5947C167.189 88.9268 167.13 89.249 167.052 89.5615C167.521 89.4248 167.946 89.2051 168.327 88.9023C168.717 88.5996 169.04 88.1992 169.294 87.7012L169.455 87.3936L170.055 87.8477ZM162.16 85.3281C162.16 85.9043 162.238 86.4365 162.394 86.9248C162.56 87.4033 162.78 87.8281 163.053 88.1992C163.327 88.5605 163.644 88.8633 164.005 89.1074C164.367 89.3516 164.753 89.5225 165.163 89.6201C165.212 89.3467 165.241 89.0635 165.251 88.7705C165.27 88.4678 165.28 88.1602 165.28 87.8477C165.28 87.1543 165.226 86.5293 165.119 85.9727C165.011 85.4062 164.87 84.9277 164.694 84.5371C164.518 84.1367 164.313 83.8291 164.079 83.6143C163.844 83.3994 163.605 83.292 163.361 83.292C163.029 83.292 162.746 83.4727 162.511 83.834C162.277 84.1855 162.16 84.6836 162.16 85.3281ZM190.614 88.1553C190.409 88.5557 190.17 88.9365 189.896 89.2979C189.633 89.6494 189.354 89.9766 189.061 90.2793C188.768 90.5723 188.475 90.8457 188.182 91.0996C187.889 91.3438 187.621 91.5586 187.377 91.7441V93.4287C187.377 94.708 187.274 95.8457 187.069 96.8418C186.874 97.8379 186.586 98.6826 186.205 99.376C185.834 100.069 185.385 100.597 184.857 100.958C184.34 101.319 183.759 101.5 183.114 101.5C182.762 101.5 182.44 101.427 182.147 101.28C181.854 101.144 181.6 100.953 181.386 100.709C181.18 100.465 181.019 100.177 180.902 99.8447C180.785 99.5225 180.726 99.1758 180.726 98.8047C180.726 98.0918 180.844 97.4326 181.078 96.8271C181.322 96.2314 181.649 95.665 182.059 95.1279C182.47 94.6006 182.943 94.0977 183.48 93.6191C184.017 93.1309 184.589 92.6475 185.194 92.1689C185.204 91.6318 185.219 91.0996 185.238 90.5723C185.267 90.0449 185.292 89.5469 185.311 89.0781C185.341 88.6094 185.365 88.1846 185.385 87.8037C185.414 87.4229 185.438 87.1104 185.458 86.8662C185.126 87.54 184.75 88.2041 184.33 88.8584C183.92 89.5029 183.48 90.1182 183.012 90.7041C182.543 91.29 182.05 91.832 181.532 92.3301C181.024 92.8184 180.512 93.2432 179.994 93.6045C179.476 93.9658 178.959 94.2441 178.441 94.4395C177.933 94.6445 177.445 94.7471 176.976 94.7471C176.449 94.7471 175.946 94.6396 175.468 94.4248C174.999 94.2197 174.584 93.8926 174.222 93.4434C173.871 92.9941 173.593 92.418 173.387 91.7148C173.173 91.0117 173.065 90.1719 173.065 89.1953C173.065 88.1016 173.187 86.9785 173.431 85.8262C173.676 84.6738 174.012 83.5312 174.442 82.3984C174.872 81.2656 175.385 80.1572 175.98 79.0732C176.576 77.9893 177.225 76.9688 177.929 76.0117C178.632 75.0449 179.379 74.1611 180.17 73.3604C180.961 72.5498 181.766 71.8516 182.587 71.2656C183.407 70.6797 184.227 70.2256 185.048 69.9033C185.878 69.5713 186.683 69.4053 187.465 69.4053C188.285 69.4053 188.939 69.6152 189.428 70.0352C189.926 70.4453 190.175 71.0312 190.175 71.793C190.175 72.2031 190.087 72.6035 189.911 72.9941C189.745 73.375 189.515 73.7461 189.222 74.1074C188.939 74.459 188.617 74.7959 188.256 75.1182C187.894 75.4307 187.523 75.7188 187.142 75.9824C186.771 76.2461 186.4 76.4805 186.029 76.6855C185.668 76.8906 185.346 77.0615 185.062 77.1982L184.623 76.5977C184.994 76.4121 185.399 76.1484 185.839 75.8066C186.278 75.4648 186.688 75.0791 187.069 74.6494C187.45 74.2197 187.767 73.7559 188.021 73.2578C188.275 72.7598 188.402 72.2617 188.402 71.7637C188.402 71.3438 188.29 70.9971 188.065 70.7236C187.85 70.4404 187.504 70.2988 187.025 70.2988C186.283 70.2988 185.487 70.5283 184.637 70.9873C183.798 71.4463 182.958 72.0859 182.118 72.9062C181.288 73.7266 180.492 74.708 179.73 75.8506C178.969 76.9834 178.295 78.2285 177.709 79.5859C177.123 80.9434 176.654 82.3838 176.303 83.9072C175.951 85.4307 175.775 86.9932 175.775 88.5947C175.775 89.2979 175.824 89.9277 175.922 90.4844C176.029 91.041 176.176 91.5146 176.361 91.9053C176.556 92.2861 176.791 92.584 177.064 92.7988C177.347 93.0039 177.665 93.1064 178.016 93.1064C178.446 93.1064 178.915 92.9746 179.423 92.7109C179.93 92.4473 180.438 92.0908 180.946 91.6416C181.464 91.1924 181.971 90.6748 182.47 90.0889C182.968 89.4932 183.427 88.8682 183.846 88.2139C184.266 87.5596 184.633 86.8955 184.945 86.2217C185.258 85.5479 185.487 84.9082 185.634 84.3027C185.692 83.5898 185.751 82.9404 185.809 82.3545C185.868 81.7588 185.922 81.2363 185.971 80.7871C186.029 80.3379 186.083 79.9766 186.132 79.7031C186.18 79.4199 186.224 79.2344 186.263 79.1465C186.342 79 186.454 78.8535 186.6 78.707C186.747 78.5605 186.903 78.4336 187.069 78.3262C187.245 78.209 187.416 78.1162 187.582 78.0479C187.748 77.9795 187.889 77.9453 188.007 77.9453C188.163 77.9453 188.265 78.0088 188.314 78.1357C188.373 78.2627 188.402 78.3994 188.402 78.5459C188.402 78.9756 188.329 79.5469 188.182 80.2598C188.036 80.9727 187.85 81.8027 187.626 82.75C187.528 83.1602 187.455 83.7021 187.406 84.376C187.367 85.04 187.338 85.7529 187.318 86.5146C187.308 87.2666 187.304 88.0283 187.304 88.7998C187.304 89.5615 187.299 90.2451 187.289 90.8506C188.012 90.3232 188.588 89.7812 189.017 89.2246C189.457 88.6582 189.789 88.1504 190.013 87.7012L190.175 87.3936L190.775 87.8477L190.614 88.1553ZM185.165 93.2529C184.706 93.6143 184.286 93.9951 183.905 94.3955C183.524 94.7959 183.197 95.2256 182.924 95.6846C182.66 96.1436 182.45 96.6416 182.294 97.1787C182.147 97.7256 182.074 98.3164 182.074 98.9512C182.074 99.5566 182.172 100.006 182.367 100.299C182.562 100.602 182.811 100.753 183.114 100.753C183.417 100.753 183.69 100.621 183.934 100.357C184.188 100.104 184.403 99.6787 184.579 99.083C184.764 98.4971 184.906 97.7256 185.004 96.7686C185.111 95.8115 185.165 94.6396 185.165 93.2529ZM203.116 90.3672C203.116 90.9238 203.165 91.3926 203.263 91.7734C203.36 92.1543 203.531 92.3447 203.775 92.3447C203.922 92.3447 204.078 92.2764 204.244 92.1396C204.42 91.9932 204.62 91.7588 204.845 91.4365C205.069 91.1143 205.323 90.6992 205.606 90.1914C205.899 89.6738 206.231 89.0439 206.603 88.3018L207.042 87.3936L207.643 87.8477L207.203 88.7559C206.793 89.5762 206.407 90.3135 206.046 90.9678C205.694 91.6123 205.357 92.1592 205.035 92.6084C204.713 93.0576 204.396 93.4043 204.083 93.6484C203.78 93.8828 203.478 94 203.175 94C202.853 94 202.579 93.9121 202.354 93.7363C202.14 93.5605 201.959 93.3213 201.812 93.0186C201.666 92.7061 201.554 92.3496 201.476 91.9492C201.397 91.5391 201.344 91.1045 201.314 90.6455C201.08 91.1143 200.821 91.5537 200.538 91.9639C200.255 92.3643 199.957 92.7158 199.645 93.0186C199.342 93.3213 199.024 93.5605 198.692 93.7363C198.36 93.9121 198.028 94 197.696 94C197.208 94 196.734 93.8975 196.275 93.6924C195.816 93.4873 195.406 93.1748 195.045 92.7549C194.693 92.335 194.41 91.8076 194.195 91.1729C193.98 90.5283 193.873 89.7715 193.873 88.9023C193.873 87.8867 194.005 86.959 194.269 86.1191C194.532 85.2695 194.889 84.542 195.338 83.9365C195.787 83.3213 196.305 82.8477 196.891 82.5156C197.477 82.1738 198.092 82.0029 198.736 82.0029C199.127 82.0029 199.488 82.0908 199.82 82.2666C200.152 82.4424 200.44 82.6572 200.685 82.9111C200.938 83.1553 201.148 83.4189 201.314 83.7021C201.48 83.9756 201.593 84.21 201.651 84.4053L201.827 82.9844C201.847 82.7988 201.935 82.6426 202.091 82.5156C202.257 82.3887 202.438 82.291 202.633 82.2227C202.828 82.1445 203.019 82.0908 203.204 82.0615C203.39 82.0225 203.521 82.0029 203.6 82.0029C203.717 82.0029 203.795 82.0225 203.834 82.0615C203.873 82.1006 203.893 82.1787 203.893 82.2959C203.893 82.4424 203.849 82.7402 203.761 83.1895C203.683 83.6289 203.595 84.1953 203.497 84.8887C203.409 85.5723 203.321 86.3779 203.233 87.3057C203.155 88.2334 203.116 89.2539 203.116 90.3672ZM201.505 86.5C201.505 86.0508 201.437 85.6113 201.3 85.1816C201.163 84.7422 200.978 84.3564 200.743 84.0244C200.509 83.6826 200.235 83.4092 199.923 83.2041C199.62 82.999 199.298 82.8965 198.956 82.8965C198.536 82.8965 198.141 83.0186 197.77 83.2627C197.408 83.4971 197.091 83.834 196.817 84.2734C196.554 84.7031 196.344 85.2256 196.188 85.8408C196.031 86.4463 195.953 87.1152 195.953 87.8477C195.953 89.3125 196.183 90.4307 196.642 91.2021C197.101 91.9639 197.711 92.3447 198.473 92.3447C198.805 92.3447 199.146 92.2129 199.498 91.9492C199.859 91.6758 200.187 91.29 200.479 90.792C200.782 90.2842 201.026 89.6689 201.212 88.9463C201.407 88.2236 201.505 87.4082 201.505 86.5Z" fill="white"/>
<path d="M55.6495 214.458C55.6495 215.271 55.6035 215.953 55.5115 216.505H61.5145L61.4455 218H53.8555L53.9245 202.13L55.6495 201.854V214.458ZM71.5693 217.057C72.336 217.057 72.9646 216.819 73.4553 216.344C73.946 215.869 74.2756 215.294 74.4443 214.619C74.6283 213.944 74.7203 213.17 74.7203 212.296C74.7203 209.551 73.7466 208.179 71.7993 208.179C71.0786 208.179 70.4806 208.409 70.0053 208.869C69.1466 209.682 68.7173 210.977 68.7173 212.756C68.7173 215.623 69.668 217.057 71.5693 217.057ZM76.4453 212.319C76.4453 214.006 76.016 215.424 75.1573 216.574C74.314 217.709 73.0873 218.276 71.4773 218.276C69.8826 218.276 68.748 217.816 68.0733 216.896C67.3986 215.961 67.0613 214.596 67.0613 212.802C67.0613 211.008 67.4523 209.582 68.2343 208.524C69.0163 207.451 70.197 206.914 71.7763 206.914C73.3556 206.914 74.5286 207.397 75.2953 208.363C76.062 209.314 76.4453 210.632 76.4453 212.319ZM89.3835 217.31C89.3835 216.589 89.4372 215.907 89.5445 215.263H89.4065C88.8239 217.272 87.6739 218.276 85.9565 218.276C84.6532 218.276 83.6872 217.808 83.0585 216.873C82.4299 215.922 82.1155 214.611 82.1155 212.94C82.1155 211.269 82.5449 209.85 83.4035 208.685C84.2775 207.504 85.5579 206.914 87.2445 206.914C87.8732 206.914 88.4942 206.983 89.1075 207.121C89.7362 207.244 90.3495 207.435 90.9475 207.696L90.9705 217.31C90.9705 219.257 90.6102 220.775 89.8895 221.864C89.1842 222.968 87.9882 223.52 86.3015 223.52C85.6882 223.52 85.0595 223.405 84.4155 223.175C83.7715 222.96 83.2579 222.654 82.8745 222.255L83.1275 221.358C84.0169 221.941 85.0519 222.232 86.2325 222.232C87.4285 222.232 88.2489 221.81 88.6935 220.967C89.1535 220.139 89.3835 218.92 89.3835 217.31ZM86.1175 217.011C88.3102 217.011 89.4065 214.19 89.4065 208.547C88.9159 208.271 88.1952 208.133 87.2445 208.133C84.9752 208.133 83.8405 209.843 83.8405 213.262C83.8405 214.32 84.0169 215.209 84.3695 215.93C84.7222 216.651 85.3049 217.011 86.1175 217.011ZM100.153 218.184C99.4479 218.184 98.9573 218.015 98.6813 217.678C98.4053 217.341 98.2673 216.789 98.2673 216.022V207.19H99.9233V215.079C99.9233 215.892 99.9846 216.421 100.107 216.666C100.23 216.896 100.583 217.011 101.165 217.011L101.211 218.023C100.859 218.13 100.506 218.184 100.153 218.184ZM98.1063 203.579C98.1063 202.858 98.4589 202.498 99.1643 202.498C99.8083 202.498 100.13 202.851 100.13 203.556C100.13 204.246 99.7929 204.591 99.1183 204.591C98.4436 204.591 98.1063 204.254 98.1063 203.579ZM109.024 207.65C109.024 208.463 108.962 209.145 108.84 209.697H108.978C109.192 208.838 109.606 208.164 110.22 207.673C110.848 207.167 111.607 206.914 112.497 206.914C113.708 206.914 114.544 207.221 115.004 207.834C115.464 208.432 115.694 209.337 115.694 210.548C115.694 210.594 115.678 211.376 115.648 212.894C115.632 214.412 115.625 215.378 115.625 215.792C115.625 216.206 115.671 216.513 115.763 216.712C115.87 216.911 116.2 217.011 116.752 217.011L116.798 218.046C116.583 218.138 116.269 218.184 115.855 218.184C115.119 218.184 114.613 218.015 114.337 217.678C114.076 217.341 113.946 216.804 113.946 216.068C113.946 216.037 113.961 215.209 113.992 213.584C114.022 211.959 114.038 211.115 114.038 211.054C114.038 210.165 113.923 209.475 113.693 208.984C113.463 208.478 113.003 208.225 112.313 208.225C111.638 208.225 111.071 208.44 110.611 208.869C110.166 209.298 109.829 209.858 109.599 210.548C109.185 211.882 108.978 213.3 108.978 214.803V218H107.391V207.19L109.024 206.983V207.65ZM134.965 203.625V218H133.125L133.194 203.625H129.123L129.192 202.13H139.082L138.898 203.625H134.965ZM148.149 217.057C148.915 217.057 149.544 216.819 150.035 216.344C150.525 215.869 150.855 215.294 151.024 214.619C151.208 213.944 151.3 213.17 151.3 212.296C151.3 209.551 150.326 208.179 148.379 208.179C147.658 208.179 147.06 208.409 146.585 208.869C145.726 209.682 145.297 210.977 145.297 212.756C145.297 215.623 146.247 217.057 148.149 217.057ZM153.025 212.319C153.025 214.006 152.595 215.424 151.737 216.574C150.893 217.709 149.667 218.276 148.057 218.276C146.462 218.276 145.327 217.816 144.653 216.896C143.978 215.961 143.641 214.596 143.641 212.802C143.641 211.008 144.032 209.582 144.814 208.524C145.596 207.451 146.776 206.914 148.356 206.914C149.935 206.914 151.108 207.397 151.875 208.363C152.641 209.314 153.025 210.632 153.025 212.319ZM172.609 218.276C170.432 218.276 168.929 217.479 168.101 215.884C167.334 214.427 166.951 212.526 166.951 210.18C166.951 207.834 167.518 205.894 168.653 204.361C169.788 202.812 171.367 202.038 173.391 202.038C174.372 202.038 175.315 202.191 176.22 202.498L175.875 203.786C175.093 203.633 174.334 203.556 173.598 203.556C170.393 203.556 168.791 205.779 168.791 210.226C168.791 213.4 169.481 215.409 170.861 216.252C171.428 216.589 172.126 216.758 172.954 216.758C174.288 216.758 175.492 216.313 176.565 215.424L176.933 216.597C175.921 217.716 174.48 218.276 172.609 218.276ZM186.303 217.057C187.07 217.057 187.699 216.819 188.189 216.344C188.68 215.869 189.01 215.294 189.178 214.619C189.362 213.944 189.454 213.17 189.454 212.296C189.454 209.551 188.481 208.179 186.533 208.179C185.813 208.179 185.215 208.409 184.739 208.869C183.881 209.682 183.451 210.977 183.451 212.756C183.451 215.623 184.402 217.057 186.303 217.057ZM191.179 212.319C191.179 214.006 190.75 215.424 189.891 216.574C189.048 217.709 187.821 218.276 186.211 218.276C184.617 218.276 183.482 217.816 182.807 216.896C182.133 215.961 181.795 214.596 181.795 212.802C181.795 211.008 182.186 209.582 182.968 208.524C183.75 207.451 184.931 206.914 186.51 206.914C188.09 206.914 189.263 207.397 190.029 208.363C190.796 209.314 191.179 210.632 191.179 212.319ZM199.265 207.65C199.265 208.463 199.203 209.145 199.081 209.697H199.219C199.433 208.838 199.847 208.164 200.461 207.673C201.089 207.167 201.848 206.914 202.738 206.914C203.949 206.914 204.785 207.221 205.245 207.834C205.705 208.432 205.935 209.337 205.935 210.548C205.935 210.594 205.919 211.376 205.889 212.894C205.873 214.412 205.866 215.378 205.866 215.792C205.866 216.206 205.912 216.513 206.004 216.712C206.111 216.911 206.441 217.011 206.993 217.011L207.039 218.046C206.824 218.138 206.51 218.184 206.096 218.184C205.36 218.184 204.854 218.015 204.578 217.678C204.317 217.341 204.187 216.804 204.187 216.068C204.187 216.037 204.202 215.209 204.233 213.584C204.263 211.959 204.279 211.115 204.279 211.054C204.279 210.165 204.164 209.475 203.934 208.984C203.704 208.478 203.244 208.225 202.554 208.225C201.879 208.225 201.312 208.44 200.852 208.869C200.407 209.298 200.07 209.858 199.84 210.548C199.426 211.882 199.219 213.3 199.219 214.803V218H197.632V207.19L199.265 206.983V207.65ZM218.537 216.85L218.767 217.862C218.199 218.138 217.517 218.276 216.72 218.276C215.585 218.276 214.834 217.969 214.466 217.356C214.098 216.743 213.914 215.769 213.914 214.435V208.409H212.074V207.42L213.914 207.19V204.798L215.57 204.522V207.19H218.537V208.409H215.57V213.929C215.57 215.355 215.692 216.221 215.938 216.528C216.244 216.881 216.658 217.057 217.18 217.057C217.701 217.057 218.153 216.988 218.537 216.85ZM226.55 218.184C225.845 218.184 225.354 218.015 225.078 217.678C224.802 217.341 224.664 216.789 224.664 216.022V207.19H226.32V215.079C226.32 215.892 226.381 216.421 226.504 216.666C226.627 216.896 226.979 217.011 227.562 217.011L227.608 218.023C227.255 218.13 226.903 218.184 226.55 218.184ZM224.503 203.579C224.503 202.858 224.856 202.498 225.561 202.498C226.205 202.498 226.527 202.851 226.527 203.556C226.527 204.246 226.19 204.591 225.515 204.591C224.84 204.591 224.503 204.254 224.503 203.579ZM235.42 207.65C235.42 208.463 235.359 209.145 235.236 209.697H235.374C235.589 208.838 236.003 208.164 236.616 207.673C237.245 207.167 238.004 206.914 238.893 206.914C240.105 206.914 240.94 207.221 241.4 207.834C241.86 208.432 242.09 209.337 242.09 210.548C242.09 210.594 242.075 211.376 242.044 212.894C242.029 214.412 242.021 215.378 242.021 215.792C242.021 216.206 242.067 216.513 242.159 216.712C242.267 216.911 242.596 217.011 243.148 217.011L243.194 218.046C242.98 218.138 242.665 218.184 242.251 218.184C241.515 218.184 241.009 218.015 240.733 217.678C240.473 217.341 240.342 216.804 240.342 216.068C240.342 216.037 240.358 215.209 240.388 213.584C240.419 211.959 240.434 211.115 240.434 211.054C240.434 210.165 240.319 209.475 240.089 208.984C239.859 208.478 239.399 208.225 238.709 208.225C238.035 208.225 237.467 208.44 237.007 208.869C236.563 209.298 236.225 209.858 235.995 210.548C235.581 211.882 235.374 213.3 235.374 214.803V218H233.787V207.19L235.42 206.983V207.65ZM249.426 208.777C249.426 208.041 249.334 207.497 249.15 207.144L250.461 206.914C250.721 206.975 250.882 207.129 250.944 207.374C251.02 207.619 251.059 207.872 251.059 208.133C251.059 208.317 251.028 209.375 250.967 211.307C250.905 213.224 250.875 214.289 250.875 214.504C250.875 214.719 250.882 214.964 250.898 215.24C250.928 215.501 251.005 215.777 251.128 216.068C251.342 216.666 251.864 216.965 252.692 216.965C253.305 216.965 253.826 216.75 254.256 216.321C254.7 215.876 255.022 215.294 255.222 214.573C255.605 213.27 255.797 211.844 255.797 210.295V207.19H257.338V213.469C257.338 214.834 257.437 215.777 257.637 216.298C257.836 216.804 258.281 217.057 258.971 217.057L259.017 218.092C258.771 218.153 258.465 218.184 258.097 218.184C257.33 218.184 256.793 217.962 256.487 217.517C256.195 217.057 256.05 216.528 256.05 215.93C256.05 215.761 256.057 215.585 256.073 215.401H255.935C255.689 216.336 255.237 217.049 254.578 217.54C253.934 218.031 253.083 218.276 252.025 218.276C250.982 218.276 250.254 217.954 249.84 217.31C249.426 216.666 249.219 215.784 249.219 214.665C249.219 214.527 249.249 213.538 249.311 211.698C249.387 209.858 249.426 208.884 249.426 208.777ZM270.314 209.559C270.314 209.114 270.176 208.777 269.9 208.547C269.624 208.317 269.256 208.202 268.796 208.202C267.876 208.202 267.156 208.585 266.634 209.352C266.113 210.103 265.814 211.016 265.737 212.089C268.789 212.089 270.314 211.246 270.314 209.559ZM268.336 218.276C265.454 218.276 264.012 216.436 264.012 212.756C264.012 211.069 264.434 209.674 265.277 208.57C266.136 207.466 267.34 206.914 268.888 206.914C269.839 206.914 270.59 207.144 271.142 207.604C271.71 208.049 271.993 208.67 271.993 209.467C271.993 210.249 271.802 210.893 271.418 211.399C271.05 211.89 270.544 212.265 269.9 212.526C268.689 213.017 267.286 213.262 265.691 213.262C265.691 215.7 266.665 216.919 268.612 216.919C269.594 216.919 270.521 216.651 271.395 216.114L271.648 217.011C271.265 217.394 270.759 217.701 270.13 217.931C269.517 218.161 268.919 218.276 268.336 218.276Z" fill="black"/>
<path d="M36.9311 264.807C36.9311 265.337 36.9011 265.782 36.8411 266.142H40.9961L40.9511 267.117H35.7611L35.8061 256.767H40.9961L40.9511 257.742H36.9161C36.9361 258.032 36.9461 258.477 36.9461 259.077L36.9311 261.042H40.5311V262.017H36.9311V264.807ZM44.4908 260.367C44.4908 260.897 44.4508 261.342 44.3708 261.702H44.4608C44.6108 261.132 44.8608 260.687 45.2108 260.367C45.5608 260.047 45.9958 259.887 46.5158 259.887C47.7458 259.887 48.3608 260.492 48.3608 261.702H48.4508C48.7608 260.492 49.4508 259.887 50.5208 259.887C51.3208 259.887 51.8508 260.077 52.1108 260.457C52.3708 260.827 52.5008 261.417 52.5008 262.227C52.5008 262.267 52.4908 262.772 52.4708 263.742C52.4608 264.702 52.4558 265.332 52.4558 265.632C52.4558 265.932 52.4858 266.147 52.5458 266.277C52.6158 266.407 52.8308 266.472 53.1908 266.472L53.2208 267.147C53.0808 267.207 52.8758 267.237 52.6058 267.237C52.1258 267.237 51.7958 267.127 51.6158 266.907C51.4458 266.687 51.3608 266.337 51.3608 265.857C51.3608 265.837 51.3708 265.287 51.3908 264.207C51.4108 263.117 51.4208 262.527 51.4208 262.437C51.4208 261.877 51.3608 261.457 51.2408 261.177C51.1208 260.887 50.8358 260.742 50.3858 260.742C49.1258 260.742 48.4958 262.132 48.4958 264.912V267.117H47.4608V262.707C47.4608 261.817 47.3858 261.277 47.2358 261.087C47.0358 260.857 46.7508 260.742 46.3808 260.742C45.1008 260.742 44.4608 262.172 44.4608 265.032V267.117H43.4258V260.067L44.4908 259.932V260.367ZM59.8367 262.002V260.907C59.5467 260.757 59.1117 260.682 58.5317 260.682C57.0517 260.682 56.3117 261.797 56.3117 264.027C56.3117 265.657 56.8067 266.472 57.7967 266.472C58.2167 266.472 58.5667 266.332 58.8467 266.052C59.1367 265.762 59.3517 265.372 59.4917 264.882C59.7217 264.032 59.8367 263.072 59.8367 262.002ZM57.6917 267.297C56.8217 267.297 56.1867 266.997 55.7867 266.397C55.3867 265.797 55.1867 264.947 55.1867 263.847C55.1867 262.737 55.4667 261.802 56.0267 261.042C56.5967 260.272 57.4317 259.887 58.5317 259.887C58.9217 259.887 59.3067 259.927 59.6867 260.007C60.0767 260.087 60.4617 260.202 60.8417 260.352V264.162C60.8417 265.182 60.9317 265.827 61.1117 266.097C61.2817 266.367 61.5667 266.502 61.9667 266.502L61.9967 267.177C61.8367 267.217 61.6367 267.237 61.3967 267.237C60.8667 267.237 60.4867 267.052 60.2567 266.682C60.0867 266.412 60.0017 266.092 60.0017 265.722C60.0017 265.602 60.0117 265.472 60.0317 265.332H59.9417C59.7717 265.932 59.4967 266.412 59.1167 266.772C58.7467 267.122 58.2717 267.297 57.6917 267.297ZM65.3905 267.237C64.9305 267.237 64.6105 267.127 64.4305 266.907C64.2505 266.687 64.1605 266.327 64.1605 265.827V260.067H65.2405V265.212C65.2405 265.742 65.2805 266.087 65.3605 266.247C65.4405 266.397 65.6705 266.472 66.0505 266.472L66.0805 267.132C65.8505 267.202 65.6205 267.237 65.3905 267.237ZM64.0555 257.712C64.0555 257.242 64.2855 257.007 64.7455 257.007C65.1655 257.007 65.3755 257.237 65.3755 257.697C65.3755 258.147 65.1555 258.372 64.7155 258.372C64.2755 258.372 64.0555 258.152 64.0555 257.712ZM68.5655 265.827V256.122L69.6455 255.942V265.212C69.6455 265.742 69.6855 266.087 69.7655 266.247C69.8455 266.397 70.0755 266.472 70.4555 266.472L70.4855 267.132C70.3255 267.202 70.0555 267.237 69.6755 267.237C69.2955 267.237 69.0155 267.127 68.8355 266.907C68.6555 266.687 68.5655 266.327 68.5655 265.827ZM78.01 256.767V267.117H76.84L76.885 256.767H78.01ZM84.6078 256.707C87.1878 256.707 88.4778 258.432 88.4778 261.882C88.4778 263.412 88.1378 264.682 87.4578 265.692C87.1278 266.192 86.6828 266.587 86.1228 266.877C85.5728 267.157 84.9428 267.297 84.2328 267.297C83.1028 267.297 82.2778 267.182 81.7578 266.952L81.8028 256.887C82.6228 256.767 83.5578 256.707 84.6078 256.707ZM84.0828 266.322C85.1928 266.322 86.0028 265.907 86.5128 265.077C87.0228 264.237 87.2778 263.157 87.2778 261.837C87.2778 259.067 86.2678 257.682 84.2478 257.682L82.9278 257.742V266.247C83.2078 266.297 83.5928 266.322 84.0828 266.322Z" fill="black"/>
<rect x="24.5" y="275.356" width="272" height="34.8944" rx="4.5" fill="white" stroke="#636363"/>
<path d="M36.9311 296.151C36.9311 296.681 36.9011 297.126 36.8411 297.486H40.9961L40.9511 298.461H35.7611L35.8061 288.111H40.9961L40.9511 289.086H36.9161C36.9361 289.376 36.9461 289.821 36.9461 290.421L36.9311 292.386H40.5311V293.361H36.9311V296.151ZM44.4908 291.711C44.4908 292.241 44.4508 292.686 44.3708 293.046H44.4608C44.6008 292.486 44.8708 292.046 45.2708 291.726C45.6808 291.396 46.1758 291.231 46.7558 291.231C47.5458 291.231 48.0908 291.431 48.3908 291.831C48.6908 292.221 48.8408 292.811 48.8408 293.601C48.8408 293.631 48.8308 294.141 48.8108 295.131C48.8008 296.121 48.7958 296.751 48.7958 297.021C48.7958 297.291 48.8258 297.491 48.8858 297.621C48.9558 297.751 49.1708 297.816 49.5308 297.816L49.5608 298.491C49.4208 298.551 49.2158 298.581 48.9458 298.581C48.4658 298.581 48.1358 298.471 47.9558 298.251C47.7858 298.031 47.7008 297.681 47.7008 297.201C47.7008 297.181 47.7108 296.641 47.7308 295.581C47.7508 294.521 47.7608 293.971 47.7608 293.931C47.7608 293.351 47.6858 292.901 47.5358 292.581C47.3858 292.251 47.0858 292.086 46.6358 292.086C46.1958 292.086 45.8258 292.226 45.5258 292.506C45.2358 292.786 45.0158 293.151 44.8658 293.601C44.5958 294.471 44.4608 295.396 44.4608 296.376V298.461H43.4258V291.411L44.4908 291.276V291.711ZM55.4846 297.711L55.6346 298.371C55.2646 298.551 54.8196 298.641 54.2996 298.641C53.5596 298.641 53.0696 298.441 52.8296 298.041C52.5896 297.641 52.4696 297.006 52.4696 296.136V292.206H51.2696V291.561L52.4696 291.411V289.851L53.5496 289.671V291.411H55.4846V292.206H53.5496V295.806C53.5496 296.736 53.6296 297.301 53.7896 297.501C53.9896 297.731 54.2596 297.846 54.5996 297.846C54.9396 297.846 55.2346 297.801 55.4846 297.711ZM61.4756 292.956C61.4756 292.666 61.3856 292.446 61.2056 292.296C61.0256 292.146 60.7856 292.071 60.4856 292.071C59.8856 292.071 59.4156 292.321 59.0756 292.821C58.7356 293.311 58.5406 293.906 58.4906 294.606C60.4806 294.606 61.4756 294.056 61.4756 292.956ZM60.1856 298.641C58.3056 298.641 57.3656 297.441 57.3656 295.041C57.3656 293.941 57.6406 293.031 58.1906 292.311C58.7506 291.591 59.5356 291.231 60.5456 291.231C61.1656 291.231 61.6556 291.381 62.0156 291.681C62.3856 291.971 62.5706 292.376 62.5706 292.896C62.5706 293.406 62.4456 293.826 62.1956 294.156C61.9556 294.476 61.6256 294.721 61.2056 294.891C60.4156 295.211 59.5006 295.371 58.4606 295.371C58.4606 296.961 59.0956 297.756 60.3656 297.756C61.0056 297.756 61.6106 297.581 62.1806 297.231L62.3456 297.816C62.0956 298.066 61.7656 298.266 61.3556 298.416C60.9556 298.566 60.5656 298.641 60.1856 298.641ZM65.5948 291.276C65.7948 291.356 65.8948 291.616 65.8948 292.056C65.8948 292.486 65.8598 292.886 65.7898 293.256H65.8798C66.0998 292.546 66.3548 292.031 66.6448 291.711C66.9348 291.391 67.3898 291.231 68.0098 291.231L68.4748 291.291L68.3398 292.326C68.2098 292.296 68.0498 292.281 67.8598 292.281C67.4698 292.281 67.1348 292.411 66.8548 292.671C66.5848 292.921 66.3848 293.261 66.2548 293.691C66.0048 294.461 65.8798 295.326 65.8798 296.286V298.461H64.8448V293.616C64.8448 292.606 64.7898 291.861 64.6798 291.381L65.5948 291.276ZM75.7981 296.151C75.7981 296.681 75.7681 297.126 75.7081 297.486H79.8631L79.8181 298.461H74.6281L74.6731 288.111H79.8631L79.8181 289.086H75.7831C75.8031 289.376 75.8131 289.821 75.8131 290.421L75.7981 292.386H79.3981V293.361H75.7981V296.151ZM83.3578 291.711C83.3578 292.241 83.3178 292.686 83.2378 293.046H83.3278C83.4778 292.476 83.7278 292.031 84.0778 291.711C84.4278 291.391 84.8628 291.231 85.3828 291.231C86.6128 291.231 87.2278 291.836 87.2278 293.046H87.3178C87.6278 291.836 88.3178 291.231 89.3878 291.231C90.1878 291.231 90.7178 291.421 90.9778 291.801C91.2378 292.171 91.3678 292.761 91.3678 293.571C91.3678 293.611 91.3578 294.116 91.3378 295.086C91.3278 296.046 91.3228 296.676 91.3228 296.976C91.3228 297.276 91.3528 297.491 91.4128 297.621C91.4828 297.751 91.6978 297.816 92.0578 297.816L92.0878 298.491C91.9478 298.551 91.7428 298.581 91.4728 298.581C90.9928 298.581 90.6628 298.471 90.4828 298.251C90.3128 298.031 90.2278 297.681 90.2278 297.201C90.2278 297.181 90.2378 296.631 90.2578 295.551C90.2778 294.461 90.2878 293.871 90.2878 293.781C90.2878 293.221 90.2278 292.801 90.1078 292.521C89.9878 292.231 89.7028 292.086 89.2528 292.086C87.9928 292.086 87.3628 293.476 87.3628 296.256V298.461H86.3278V294.051C86.3278 293.161 86.2528 292.621 86.1028 292.431C85.9028 292.201 85.6178 292.086 85.2478 292.086C83.9678 292.086 83.3278 293.516 83.3278 296.376V298.461H82.2928V291.411L83.3578 291.276V291.711ZM98.7037 293.346V292.251C98.4137 292.101 97.9787 292.026 97.3987 292.026C95.9187 292.026 95.1787 293.141 95.1787 295.371C95.1787 297.001 95.6737 297.816 96.6637 297.816C97.0837 297.816 97.4337 297.676 97.7137 297.396C98.0037 297.106 98.2187 296.716 98.3587 296.226C98.5887 295.376 98.7037 294.416 98.7037 293.346ZM96.5587 298.641C95.6887 298.641 95.0537 298.341 94.6537 297.741C94.2537 297.141 94.0537 296.291 94.0537 295.191C94.0537 294.081 94.3337 293.146 94.8937 292.386C95.4637 291.616 96.2987 291.231 97.3987 291.231C97.7887 291.231 98.1737 291.271 98.5537 291.351C98.9437 291.431 99.3287 291.546 99.7087 291.696V295.506C99.7087 296.526 99.7987 297.171 99.9787 297.441C100.149 297.711 100.434 297.846 100.834 297.846L100.864 298.521C100.704 298.561 100.504 298.581 100.264 298.581C99.7337 298.581 99.3537 298.396 99.1237 298.026C98.9537 297.756 98.8687 297.436 98.8687 297.066C98.8687 296.946 98.8787 296.816 98.8987 296.676H98.8087C98.6387 297.276 98.3637 297.756 97.9837 298.116C97.6137 298.466 97.1387 298.641 96.5587 298.641ZM104.257 298.581C103.797 298.581 103.477 298.471 103.297 298.251C103.117 298.031 103.027 297.671 103.027 297.171V291.411H104.107V296.556C104.107 297.086 104.147 297.431 104.227 297.591C104.307 297.741 104.537 297.816 104.917 297.816L104.947 298.476C104.717 298.546 104.487 298.581 104.257 298.581ZM102.922 289.056C102.922 288.586 103.152 288.351 103.612 288.351C104.032 288.351 104.242 288.581 104.242 289.041C104.242 289.491 104.022 289.716 103.582 289.716C103.142 289.716 102.922 289.496 102.922 289.056ZM107.433 297.171V287.466L108.513 287.286V296.556C108.513 297.086 108.553 297.431 108.633 297.591C108.713 297.741 108.943 297.816 109.323 297.816L109.353 298.476C109.193 298.546 108.923 298.581 108.543 298.581C108.163 298.581 107.883 298.471 107.703 298.251C107.523 298.031 107.433 297.671 107.433 297.171ZM116.877 288.111V298.461H115.707L115.752 288.111H116.877ZM123.475 288.051C126.055 288.051 127.345 289.776 127.345 293.226C127.345 294.756 127.005 296.026 126.325 297.036C125.995 297.536 125.55 297.931 124.99 298.221C124.44 298.501 123.81 298.641 123.1 298.641C121.97 298.641 121.145 298.526 120.625 298.296L120.67 288.231C121.49 288.111 122.425 288.051 123.475 288.051ZM122.95 297.666C124.06 297.666 124.87 297.251 125.38 296.421C125.89 295.581 126.145 294.501 126.145 293.181C126.145 290.411 125.135 289.026 123.115 289.026L121.795 289.086V297.591C122.075 297.641 122.46 297.666 122.95 297.666Z" fill="#A4A4A4"/>
<path d="M38.6111 332.034C39.5211 332.034 40.2561 332.269 40.8161 332.739C41.3761 333.199 41.6561 333.859 41.6561 334.719C41.6561 336.679 40.3811 337.674 37.8311 337.704L36.9311 337.719V342.444H35.7611L35.8061 332.214C36.4261 332.094 37.3611 332.034 38.6111 332.034ZM38.4011 333.009C37.6411 333.009 37.1511 333.029 36.9311 333.069V336.789L37.8611 336.774C39.5911 336.744 40.4561 336.084 40.4561 334.794C40.4561 333.604 39.7711 333.009 38.4011 333.009ZM47.8877 337.329V336.234C47.5977 336.084 47.1627 336.009 46.5827 336.009C45.1027 336.009 44.3627 337.124 44.3627 339.354C44.3627 340.984 44.8577 341.799 45.8477 341.799C46.2677 341.799 46.6177 341.659 46.8977 341.379C47.1877 341.089 47.4027 340.699 47.5427 340.209C47.7727 339.359 47.8877 338.399 47.8877 337.329ZM45.7427 342.624C44.8727 342.624 44.2377 342.324 43.8377 341.724C43.4377 341.124 43.2377 340.274 43.2377 339.174C43.2377 338.064 43.5177 337.129 44.0777 336.369C44.6477 335.599 45.4827 335.214 46.5827 335.214C46.9727 335.214 47.3577 335.254 47.7377 335.334C48.1277 335.414 48.5127 335.529 48.8927 335.679V339.489C48.8927 340.509 48.9827 341.154 49.1627 341.424C49.3327 341.694 49.6177 341.829 50.0177 341.829L50.0477 342.504C49.8877 342.544 49.6877 342.564 49.4477 342.564C48.9177 342.564 48.5377 342.379 48.3077 342.009C48.1377 341.739 48.0527 341.419 48.0527 341.049C48.0527 340.929 48.0627 340.799 48.0827 340.659H47.9927C47.8227 341.259 47.5477 341.739 47.1677 342.099C46.7977 342.449 46.3227 342.624 45.7427 342.624ZM53.4714 341.799C53.9114 341.799 54.2814 341.699 54.5814 341.499C54.8814 341.289 55.0314 340.994 55.0314 340.614C55.0314 340.214 54.8414 339.899 54.4614 339.669C54.2714 339.559 54.0414 339.449 53.7714 339.339C53.5014 339.219 53.3364 339.144 53.2764 339.114C52.7764 338.894 52.3864 338.634 52.1064 338.334C51.8364 338.034 51.7014 337.609 51.7014 337.059C51.7014 336.499 51.9264 336.054 52.3764 335.724C52.8264 335.384 53.3564 335.214 53.9664 335.214C54.5764 335.214 55.1264 335.334 55.6164 335.574L55.4514 336.249C54.9514 336.109 54.5064 336.039 54.1164 336.039C53.7364 336.039 53.4064 336.129 53.1264 336.309C52.8464 336.479 52.7064 336.719 52.7064 337.029C52.7064 337.339 52.8014 337.584 52.9914 337.764C53.1814 337.934 53.3764 338.064 53.5764 338.154C53.7864 338.244 54.0064 338.339 54.2364 338.439C54.4764 338.529 54.6314 338.594 54.7014 338.634C54.7714 338.674 54.9014 338.749 55.0914 338.859C55.2814 338.959 55.4114 339.054 55.4814 339.144C55.5614 339.234 55.6514 339.354 55.7514 339.504C55.9414 339.754 56.0364 340.109 56.0364 340.569C56.0364 341.229 55.7914 341.739 55.3014 342.099C54.8114 342.449 54.1864 342.624 53.4264 342.624C52.6764 342.624 52.0114 342.374 51.4314 341.874L51.5964 341.274C52.1664 341.624 52.7914 341.799 53.4714 341.799ZM59.605 341.799C60.045 341.799 60.415 341.699 60.715 341.499C61.015 341.289 61.165 340.994 61.165 340.614C61.165 340.214 60.975 339.899 60.595 339.669C60.405 339.559 60.175 339.449 59.905 339.339C59.635 339.219 59.47 339.144 59.41 339.114C58.91 338.894 58.52 338.634 58.24 338.334C57.97 338.034 57.835 337.609 57.835 337.059C57.835 336.499 58.06 336.054 58.51 335.724C58.96 335.384 59.49 335.214 60.1 335.214C60.71 335.214 61.26 335.334 61.75 335.574L61.585 336.249C61.085 336.109 60.64 336.039 60.25 336.039C59.87 336.039 59.54 336.129 59.26 336.309C58.98 336.479 58.84 336.719 58.84 337.029C58.84 337.339 58.935 337.584 59.125 337.764C59.315 337.934 59.51 338.064 59.71 338.154C59.92 338.244 60.14 338.339 60.37 338.439C60.61 338.529 60.765 338.594 60.835 338.634C60.905 338.674 61.035 338.749 61.225 338.859C61.415 338.959 61.545 339.054 61.615 339.144C61.695 339.234 61.785 339.354 61.885 339.504C62.075 339.754 62.17 340.109 62.17 340.569C62.17 341.229 61.925 341.739 61.435 342.099C60.945 342.449 60.32 342.624 59.56 342.624C58.81 342.624 58.145 342.374 57.565 341.874L57.73 341.274C58.3 341.624 58.925 341.799 59.605 341.799ZM71.4386 336.204C71.4386 335.864 71.3936 335.569 71.3036 335.319L72.1436 335.214C72.3536 335.364 72.4586 335.639 72.4586 336.039C72.4586 336.439 72.4486 336.744 72.4286 336.954C72.3486 337.604 72.0486 338.469 71.5286 339.549L70.1786 342.444H69.2336L68.4236 339.549C68.3236 339.209 68.2936 338.869 68.3336 338.529H68.2436C68.1936 338.769 68.0786 339.109 67.8986 339.549L66.6986 342.444H65.7536L64.3586 337.479C64.0786 336.459 63.8386 335.814 63.6386 335.544L63.5486 335.394L64.3286 335.244C64.4886 335.244 64.6136 335.314 64.7036 335.454C64.8036 335.594 64.9186 335.884 65.0486 336.324L66.4136 341.139H66.5036C66.4936 341.089 66.4886 341.004 66.4886 340.884C66.4886 340.764 66.5486 340.569 66.6686 340.299L67.1786 339.114C67.5986 338.134 67.8086 337.164 67.8086 336.204C67.8086 335.894 67.7636 335.614 67.6736 335.364L68.5136 335.259C68.7236 335.429 68.8286 335.714 68.8286 336.114C68.8286 336.504 68.8086 336.864 68.7686 337.194L69.8936 341.139H69.9836C69.9736 341.089 69.9686 341.004 69.9686 340.884C69.9686 340.764 70.0286 340.569 70.1486 340.299L70.6586 339.114C71.1786 337.904 71.4386 336.934 71.4386 336.204ZM77.4067 341.829C77.9067 341.829 78.3167 341.674 78.6367 341.364C78.9567 341.054 79.1717 340.679 79.2817 340.239C79.4017 339.799 79.4617 339.294 79.4617 338.724C79.4617 336.934 78.8267 336.039 77.5567 336.039C77.0867 336.039 76.6967 336.189 76.3867 336.489C75.8267 337.019 75.5467 337.864 75.5467 339.024C75.5467 340.894 76.1667 341.829 77.4067 341.829ZM80.5867 338.739C80.5867 339.839 80.3067 340.764 79.7467 341.514C79.1967 342.254 78.3967 342.624 77.3467 342.624C76.3067 342.624 75.5667 342.324 75.1267 341.724C74.6867 341.114 74.4667 340.224 74.4667 339.054C74.4667 337.884 74.7217 336.954 75.2317 336.264C75.7417 335.564 76.5117 335.214 77.5417 335.214C78.5717 335.214 79.3367 335.529 79.8367 336.159C80.3367 336.779 80.5867 337.639 80.5867 338.739ZM83.9997 335.259C84.1997 335.339 84.2997 335.599 84.2997 336.039C84.2997 336.469 84.2647 336.869 84.1947 337.239H84.2847C84.5047 336.529 84.7597 336.014 85.0497 335.694C85.3397 335.374 85.7947 335.214 86.4147 335.214L86.8797 335.274L86.7447 336.309C86.6147 336.279 86.4547 336.264 86.2647 336.264C85.8747 336.264 85.5397 336.394 85.2597 336.654C84.9897 336.904 84.7897 337.244 84.6597 337.674C84.4097 338.444 84.2847 339.309 84.2847 340.269V342.444H83.2497V337.599C83.2497 336.589 83.1947 335.844 83.0847 335.364L83.9997 335.259ZM91.1136 342.624C90.2436 342.624 89.6086 342.324 89.2086 341.724C88.8086 341.124 88.6086 340.274 88.6086 339.174C88.6086 338.064 88.8886 337.129 89.4486 336.369C90.0186 335.599 90.8536 335.214 91.9536 335.214C92.3836 335.214 92.8186 335.304 93.2586 335.484V331.449L94.2636 331.269V339.489C94.2636 340.379 94.3286 340.994 94.4586 341.334C94.5886 341.664 94.8786 341.829 95.3286 341.829L95.3586 342.504C95.2286 342.544 95.0286 342.564 94.7586 342.564C94.2586 342.564 93.9086 342.414 93.7086 342.114C93.5186 341.814 93.4236 341.469 93.4236 341.079C93.4236 340.979 93.4286 340.869 93.4386 340.749H93.3486C92.9486 341.999 92.2036 342.624 91.1136 342.624ZM93.2586 337.779V336.234C92.9686 336.084 92.5336 336.009 91.9536 336.009C90.4736 336.009 89.7336 337.124 89.7336 339.354C89.7336 340.984 90.2286 341.799 91.2186 341.799C91.6086 341.799 91.9436 341.674 92.2236 341.424C92.5136 341.164 92.7286 340.824 92.8686 340.404C93.1286 339.614 93.2586 338.739 93.2586 337.779Z" fill="black"/>
<rect x="24.5" y="350.683" width="272" height="34.8944" rx="4.5" fill="white" stroke="#636363"/>
<path d="M36.9311 371.479C36.9311 372.009 36.9011 372.454 36.8411 372.814H40.9961L40.9511 373.789H35.7611L35.8061 363.439H40.9961L40.9511 364.414H36.9161C36.9361 364.704 36.9461 365.149 36.9461 365.749L36.9311 367.714H40.5311V368.689H36.9311V371.479ZM44.4908 367.039C44.4908 367.569 44.4508 368.014 44.3708 368.374H44.4608C44.6008 367.814 44.8708 367.374 45.2708 367.054C45.6808 366.724 46.1758 366.559 46.7558 366.559C47.5458 366.559 48.0908 366.759 48.3908 367.159C48.6908 367.549 48.8408 368.139 48.8408 368.929C48.8408 368.959 48.8308 369.469 48.8108 370.459C48.8008 371.449 48.7958 372.079 48.7958 372.349C48.7958 372.619 48.8258 372.819 48.8858 372.949C48.9558 373.079 49.1708 373.144 49.5308 373.144L49.5608 373.819C49.4208 373.879 49.2158 373.909 48.9458 373.909C48.4658 373.909 48.1358 373.799 47.9558 373.579C47.7858 373.359 47.7008 373.009 47.7008 372.529C47.7008 372.509 47.7108 371.969 47.7308 370.909C47.7508 369.849 47.7608 369.299 47.7608 369.259C47.7608 368.679 47.6858 368.229 47.5358 367.909C47.3858 367.579 47.0858 367.414 46.6358 367.414C46.1958 367.414 45.8258 367.554 45.5258 367.834C45.2358 368.114 45.0158 368.479 44.8658 368.929C44.5958 369.799 44.4608 370.724 44.4608 371.704V373.789H43.4258V366.739L44.4908 366.604V367.039ZM55.4846 373.039L55.6346 373.699C55.2646 373.879 54.8196 373.969 54.2996 373.969C53.5596 373.969 53.0696 373.769 52.8296 373.369C52.5896 372.969 52.4696 372.334 52.4696 371.464V367.534H51.2696V366.889L52.4696 366.739V365.179L53.5496 364.999V366.739H55.4846V367.534H53.5496V371.134C53.5496 372.064 53.6296 372.629 53.7896 372.829C53.9896 373.059 54.2596 373.174 54.5996 373.174C54.9396 373.174 55.2346 373.129 55.4846 373.039ZM61.4756 368.284C61.4756 367.994 61.3856 367.774 61.2056 367.624C61.0256 367.474 60.7856 367.399 60.4856 367.399C59.8856 367.399 59.4156 367.649 59.0756 368.149C58.7356 368.639 58.5406 369.234 58.4906 369.934C60.4806 369.934 61.4756 369.384 61.4756 368.284ZM60.1856 373.969C58.3056 373.969 57.3656 372.769 57.3656 370.369C57.3656 369.269 57.6406 368.359 58.1906 367.639C58.7506 366.919 59.5356 366.559 60.5456 366.559C61.1656 366.559 61.6556 366.709 62.0156 367.009C62.3856 367.299 62.5706 367.704 62.5706 368.224C62.5706 368.734 62.4456 369.154 62.1956 369.484C61.9556 369.804 61.6256 370.049 61.2056 370.219C60.4156 370.539 59.5006 370.699 58.4606 370.699C58.4606 372.289 59.0956 373.084 60.3656 373.084C61.0056 373.084 61.6106 372.909 62.1806 372.559L62.3456 373.144C62.0956 373.394 61.7656 373.594 61.3556 373.744C60.9556 373.894 60.5656 373.969 60.1856 373.969ZM65.5948 366.604C65.7948 366.684 65.8948 366.944 65.8948 367.384C65.8948 367.814 65.8598 368.214 65.7898 368.584H65.8798C66.0998 367.874 66.3548 367.359 66.6448 367.039C66.9348 366.719 67.3898 366.559 68.0098 366.559L68.4748 366.619L68.3398 367.654C68.2098 367.624 68.0498 367.609 67.8598 367.609C67.4698 367.609 67.1348 367.739 66.8548 367.999C66.5848 368.249 66.3848 368.589 66.2548 369.019C66.0048 369.789 65.8798 370.654 65.8798 371.614V373.789H64.8448V368.944C64.8448 367.934 64.7898 367.189 64.6798 366.709L65.5948 366.604ZM75.1081 366.604C75.3081 366.684 75.4081 366.919 75.4081 367.309C75.4081 367.689 75.3731 368.064 75.3031 368.434H75.3931C75.7331 367.184 76.4881 366.559 77.6581 366.559C78.5281 366.559 79.1381 366.844 79.4881 367.414C79.8381 367.974 80.0131 368.819 80.0131 369.949C80.0131 371.079 79.7331 372.034 79.1731 372.814C78.6231 373.584 77.7881 373.969 76.6681 373.969C76.2381 373.969 75.8031 373.879 75.3631 373.699V377.209H74.3581V368.944C74.3581 367.934 74.3031 367.189 74.1931 366.709L75.1081 366.604ZM75.3631 371.404V372.949C75.6531 373.099 76.0881 373.174 76.6681 373.174C78.1481 373.174 78.8881 372.004 78.8881 369.664C78.8881 368.164 78.4181 367.414 77.4781 367.414C77.0881 367.414 76.7481 367.544 76.4581 367.804C76.1681 368.054 75.9481 368.389 75.7981 368.809C75.5081 369.609 75.3631 370.474 75.3631 371.404ZM86.8133 368.674V367.579C86.5233 367.429 86.0883 367.354 85.5083 367.354C84.0283 367.354 83.2883 368.469 83.2883 370.699C83.2883 372.329 83.7833 373.144 84.7733 373.144C85.1933 373.144 85.5433 373.004 85.8233 372.724C86.1133 372.434 86.3283 372.044 86.4683 371.554C86.6983 370.704 86.8133 369.744 86.8133 368.674ZM84.6683 373.969C83.7983 373.969 83.1633 373.669 82.7633 373.069C82.3633 372.469 82.1633 371.619 82.1633 370.519C82.1633 369.409 82.4433 368.474 83.0033 367.714C83.5733 366.944 84.4083 366.559 85.5083 366.559C85.8983 366.559 86.2833 366.599 86.6633 366.679C87.0533 366.759 87.4383 366.874 87.8183 367.024V370.834C87.8183 371.854 87.9083 372.499 88.0883 372.769C88.2583 373.039 88.5433 373.174 88.9433 373.174L88.9733 373.849C88.8133 373.889 88.6133 373.909 88.3733 373.909C87.8433 373.909 87.4633 373.724 87.2333 373.354C87.0633 373.084 86.9783 372.764 86.9783 372.394C86.9783 372.274 86.9883 372.144 87.0083 372.004H86.9183C86.7483 372.604 86.4733 373.084 86.0933 373.444C85.7233 373.794 85.2483 373.969 84.6683 373.969ZM92.397 373.144C92.837 373.144 93.207 373.044 93.507 372.844C93.807 372.634 93.957 372.339 93.957 371.959C93.957 371.559 93.767 371.244 93.387 371.014C93.197 370.904 92.967 370.794 92.697 370.684C92.427 370.564 92.262 370.489 92.202 370.459C91.702 370.239 91.312 369.979 91.032 369.679C90.762 369.379 90.627 368.954 90.627 368.404C90.627 367.844 90.852 367.399 91.302 367.069C91.752 366.729 92.282 366.559 92.892 366.559C93.502 366.559 94.052 366.679 94.542 366.919L94.377 367.594C93.877 367.454 93.432 367.384 93.042 367.384C92.662 367.384 92.332 367.474 92.052 367.654C91.772 367.824 91.632 368.064 91.632 368.374C91.632 368.684 91.727 368.929 91.917 369.109C92.107 369.279 92.302 369.409 92.502 369.499C92.712 369.589 92.932 369.684 93.162 369.784C93.402 369.874 93.557 369.939 93.627 369.979C93.697 370.019 93.827 370.094 94.017 370.204C94.207 370.304 94.337 370.399 94.407 370.489C94.487 370.579 94.577 370.699 94.677 370.849C94.867 371.099 94.962 371.454 94.962 371.914C94.962 372.574 94.717 373.084 94.227 373.444C93.737 373.794 93.112 373.969 92.352 373.969C91.602 373.969 90.937 373.719 90.357 373.219L90.522 372.619C91.092 372.969 91.717 373.144 92.397 373.144ZM98.5306 373.144C98.9706 373.144 99.3406 373.044 99.6406 372.844C99.9406 372.634 100.091 372.339 100.091 371.959C100.091 371.559 99.9006 371.244 99.5206 371.014C99.3306 370.904 99.1006 370.794 98.8306 370.684C98.5606 370.564 98.3956 370.489 98.3356 370.459C97.8356 370.239 97.4456 369.979 97.1656 369.679C96.8956 369.379 96.7606 368.954 96.7606 368.404C96.7606 367.844 96.9856 367.399 97.4356 367.069C97.8856 366.729 98.4156 366.559 99.0256 366.559C99.6356 366.559 100.186 366.679 100.676 366.919L100.511 367.594C100.011 367.454 99.5656 367.384 99.1756 367.384C98.7956 367.384 98.4656 367.474 98.1856 367.654C97.9056 367.824 97.7656 368.064 97.7656 368.374C97.7656 368.684 97.8606 368.929 98.0506 369.109C98.2406 369.279 98.4356 369.409 98.6356 369.499C98.8456 369.589 99.0656 369.684 99.2956 369.784C99.5356 369.874 99.6906 369.939 99.7606 369.979C99.8306 370.019 99.9606 370.094 100.151 370.204C100.341 370.304 100.471 370.399 100.541 370.489C100.621 370.579 100.711 370.699 100.811 370.849C101.001 371.099 101.096 371.454 101.096 371.914C101.096 372.574 100.851 373.084 100.361 373.444C99.8706 373.794 99.2456 373.969 98.4856 373.969C97.7356 373.969 97.0706 373.719 96.4906 373.219L96.6556 372.619C97.2256 372.969 97.8506 373.144 98.5306 373.144ZM110.364 367.549C110.364 367.209 110.319 366.914 110.229 366.664L111.069 366.559C111.279 366.709 111.384 366.984 111.384 367.384C111.384 367.784 111.374 368.089 111.354 368.299C111.274 368.949 110.974 369.814 110.454 370.894L109.104 373.789H108.159L107.349 370.894C107.249 370.554 107.219 370.214 107.259 369.874H107.169C107.119 370.114 107.004 370.454 106.824 370.894L105.624 373.789H104.679L103.284 368.824C103.004 367.804 102.764 367.159 102.564 366.889L102.474 366.739L103.254 366.589C103.414 366.589 103.539 366.659 103.629 366.799C103.729 366.939 103.844 367.229 103.974 367.669L105.339 372.484H105.429C105.419 372.434 105.414 372.349 105.414 372.229C105.414 372.109 105.474 371.914 105.594 371.644L106.104 370.459C106.524 369.479 106.734 368.509 106.734 367.549C106.734 367.239 106.689 366.959 106.599 366.709L107.439 366.604C107.649 366.774 107.754 367.059 107.754 367.459C107.754 367.849 107.734 368.209 107.694 368.539L108.819 372.484H108.909C108.899 372.434 108.894 372.349 108.894 372.229C108.894 372.109 108.954 371.914 109.074 371.644L109.584 370.459C110.104 369.249 110.364 368.279 110.364 367.549ZM116.332 373.174C116.832 373.174 117.242 373.019 117.562 372.709C117.882 372.399 118.097 372.024 118.207 371.584C118.327 371.144 118.387 370.639 118.387 370.069C118.387 368.279 117.752 367.384 116.482 367.384C116.012 367.384 115.622 367.534 115.312 367.834C114.752 368.364 114.472 369.209 114.472 370.369C114.472 372.239 115.092 373.174 116.332 373.174ZM119.512 370.084C119.512 371.184 119.232 372.109 118.672 372.859C118.122 373.599 117.322 373.969 116.272 373.969C115.232 373.969 114.492 373.669 114.052 373.069C113.612 372.459 113.392 371.569 113.392 370.399C113.392 369.229 113.647 368.299 114.157 367.609C114.667 366.909 115.437 366.559 116.467 366.559C117.497 366.559 118.262 366.874 118.762 367.504C119.262 368.124 119.512 368.984 119.512 370.084ZM122.925 366.604C123.125 366.684 123.225 366.944 123.225 367.384C123.225 367.814 123.19 368.214 123.12 368.584H123.21C123.43 367.874 123.685 367.359 123.975 367.039C124.265 366.719 124.72 366.559 125.34 366.559L125.805 366.619L125.67 367.654C125.54 367.624 125.38 367.609 125.19 367.609C124.8 367.609 124.465 367.739 124.185 367.999C123.915 368.249 123.715 368.589 123.585 369.019C123.335 369.789 123.21 370.654 123.21 371.614V373.789H122.175V368.944C122.175 367.934 122.12 367.189 122.01 366.709L122.925 366.604ZM130.039 373.969C129.169 373.969 128.534 373.669 128.134 373.069C127.734 372.469 127.534 371.619 127.534 370.519C127.534 369.409 127.814 368.474 128.374 367.714C128.944 366.944 129.779 366.559 130.879 366.559C131.309 366.559 131.744 366.649 132.184 366.829V362.794L133.189 362.614V370.834C133.189 371.724 133.254 372.339 133.384 372.679C133.514 373.009 133.804 373.174 134.254 373.174L134.284 373.849C134.154 373.889 133.954 373.909 133.684 373.909C133.184 373.909 132.834 373.759 132.634 373.459C132.444 373.159 132.349 372.814 132.349 372.424C132.349 372.324 132.354 372.214 132.364 372.094H132.274C131.874 373.344 131.129 373.969 130.039 373.969ZM132.184 369.124V367.579C131.894 367.429 131.459 367.354 130.879 367.354C129.399 367.354 128.659 368.469 128.659 370.699C128.659 372.329 129.154 373.144 130.144 373.144C130.534 373.144 130.869 373.019 131.149 372.769C131.439 372.509 131.654 372.169 131.794 371.749C132.054 370.959 132.184 370.084 132.184 369.124Z" fill="#A4A4A4"/>
<rect x="24" y="412" width="273" height="42" rx="5" fill="#9F0000"/>
<path d="M95.8147 495.625C95.8447 496.165 95.8597 496.61 95.8597 496.96L95.8297 498.925H99.2797V499.9H95.8297V505H94.7047V494.65H99.6997V495.625H95.8147ZM105.935 504.385C106.435 504.385 106.845 504.23 107.165 503.92C107.485 503.61 107.7 503.235 107.81 502.795C107.93 502.355 107.99 501.85 107.99 501.28C107.99 499.49 107.355 498.595 106.085 498.595C105.615 498.595 105.225 498.745 104.915 499.045C104.355 499.575 104.075 500.42 104.075 501.58C104.075 503.45 104.695 504.385 105.935 504.385ZM109.115 501.295C109.115 502.395 108.835 503.32 108.275 504.07C107.725 504.81 106.925 505.18 105.875 505.18C104.835 505.18 104.095 504.88 103.655 504.28C103.215 503.67 102.995 502.78 102.995 501.61C102.995 500.44 103.25 499.51 103.76 498.82C104.27 498.12 105.04 497.77 106.07 497.77C107.1 497.77 107.865 498.085 108.365 498.715C108.865 499.335 109.115 500.195 109.115 501.295ZM114.103 497.815C114.303 497.895 114.403 498.155 114.403 498.595C114.403 499.025 114.368 499.425 114.298 499.795H114.388C114.608 499.085 114.863 498.57 115.153 498.25C115.443 497.93 115.898 497.77 116.518 497.77L116.983 497.83L116.848 498.865C116.718 498.835 116.558 498.82 116.368 498.82C115.978 498.82 115.643 498.95 115.363 499.21C115.093 499.46 114.893 499.8 114.763 500.23C114.513 501 114.388 501.865 114.388 502.825V505H113.353V500.155C113.353 499.145 113.298 498.4 113.188 497.92L114.103 497.815ZM125.042 504.55C125.042 504.08 125.077 503.635 125.147 503.215H125.057C124.677 504.525 123.927 505.18 122.807 505.18C121.957 505.18 121.327 504.875 120.917 504.265C120.507 503.645 120.302 502.79 120.302 501.7C120.302 500.61 120.582 499.685 121.142 498.925C121.712 498.155 122.547 497.77 123.647 497.77C124.057 497.77 124.462 497.815 124.862 497.905C125.272 497.985 125.672 498.11 126.062 498.28L126.077 504.55C126.077 505.82 125.842 506.81 125.372 507.52C124.912 508.24 124.132 508.6 123.032 508.6C122.632 508.6 122.222 508.525 121.802 508.375C121.382 508.235 121.047 508.035 120.797 507.775L120.962 507.19C121.542 507.57 122.217 507.76 122.987 507.76C123.767 507.76 124.302 507.485 124.592 506.935C124.892 506.395 125.042 505.6 125.042 504.55ZM122.912 504.355C124.342 504.355 125.057 502.515 125.057 498.835C124.737 498.655 124.267 498.565 123.647 498.565C122.167 498.565 121.427 499.68 121.427 501.91C121.427 502.6 121.542 503.18 121.772 503.65C122.002 504.12 122.382 504.355 122.912 504.355ZM133.235 504.385C133.735 504.385 134.145 504.23 134.465 503.92C134.785 503.61 135 503.235 135.11 502.795C135.23 502.355 135.29 501.85 135.29 501.28C135.29 499.49 134.655 498.595 133.385 498.595C132.915 498.595 132.525 498.745 132.215 499.045C131.655 499.575 131.375 500.42 131.375 501.58C131.375 503.45 131.995 504.385 133.235 504.385ZM136.415 501.295C136.415 502.395 136.135 503.32 135.575 504.07C135.025 504.81 134.225 505.18 133.175 505.18C132.135 505.18 131.395 504.88 130.955 504.28C130.515 503.67 130.295 502.78 130.295 501.61C130.295 500.44 130.55 499.51 131.06 498.82C131.57 498.12 132.34 497.77 133.37 497.77C134.4 497.77 135.165 498.085 135.665 498.715C136.165 499.335 136.415 500.195 136.415 501.295ZM144.058 504.25L144.208 504.91C143.838 505.09 143.393 505.18 142.873 505.18C142.133 505.18 141.643 504.98 141.403 504.58C141.163 504.18 141.043 503.545 141.043 502.675V498.745H139.843V498.1L141.043 497.95V496.39L142.123 496.21V497.95H144.058V498.745H142.123V502.345C142.123 503.275 142.203 503.84 142.363 504.04C142.563 504.27 142.833 504.385 143.173 504.385C143.513 504.385 143.808 504.34 144.058 504.25ZM156.349 494.59C157.259 494.59 157.994 494.825 158.554 495.295C159.114 495.755 159.394 496.415 159.394 497.275C159.394 499.235 158.119 500.23 155.569 500.26L154.669 500.275V505H153.499L153.544 494.77C154.164 494.65 155.099 494.59 156.349 494.59ZM156.139 495.565C155.379 495.565 154.889 495.585 154.669 495.625V499.345L155.599 499.33C157.329 499.3 158.194 498.64 158.194 497.35C158.194 496.16 157.509 495.565 156.139 495.565ZM167.2 499.885V498.79C166.91 498.64 166.475 498.565 165.895 498.565C164.415 498.565 163.675 499.68 163.675 501.91C163.675 503.54 164.17 504.355 165.16 504.355C165.58 504.355 165.93 504.215 166.21 503.935C166.5 503.645 166.715 503.255 166.855 502.765C167.085 501.915 167.2 500.955 167.2 499.885ZM165.055 505.18C164.185 505.18 163.55 504.88 163.15 504.28C162.75 503.68 162.55 502.83 162.55 501.73C162.55 500.62 162.83 499.685 163.39 498.925C163.96 498.155 164.795 497.77 165.895 497.77C166.285 497.77 166.67 497.81 167.05 497.89C167.44 497.97 167.825 498.085 168.205 498.235V502.045C168.205 503.065 168.295 503.71 168.475 503.98C168.645 504.25 168.93 504.385 169.33 504.385L169.36 505.06C169.2 505.1 169 505.12 168.76 505.12C168.23 505.12 167.85 504.935 167.62 504.565C167.45 504.295 167.365 503.975 167.365 503.605C167.365 503.485 167.375 503.355 167.395 503.215H167.305C167.135 503.815 166.86 504.295 166.48 504.655C166.11 505.005 165.635 505.18 165.055 505.18ZM174.359 504.355C174.799 504.355 175.169 504.255 175.469 504.055C175.769 503.845 175.919 503.55 175.919 503.17C175.919 502.77 175.729 502.455 175.349 502.225C175.159 502.115 174.929 502.005 174.659 501.895C174.389 501.775 174.224 501.7 174.164 501.67C173.664 501.45 173.274 501.19 172.994 500.89C172.724 500.59 172.589 500.165 172.589 499.615C172.589 499.055 172.814 498.61 173.264 498.28C173.714 497.94 174.244 497.77 174.854 497.77C175.464 497.77 176.014 497.89 176.504 498.13L176.339 498.805C175.839 498.665 175.394 498.595 175.004 498.595C174.624 498.595 174.294 498.685 174.014 498.865C173.734 499.035 173.594 499.275 173.594 499.585C173.594 499.895 173.689 500.14 173.879 500.32C174.069 500.49 174.264 500.62 174.464 500.71C174.674 500.8 174.894 500.895 175.124 500.995C175.364 501.085 175.519 501.15 175.589 501.19C175.659 501.23 175.789 501.305 175.979 501.415C176.169 501.515 176.299 501.61 176.369 501.7C176.449 501.79 176.539 501.91 176.639 502.06C176.829 502.31 176.924 502.665 176.924 503.125C176.924 503.785 176.679 504.295 176.189 504.655C175.699 505.005 175.074 505.18 174.314 505.18C173.564 505.18 172.899 504.93 172.319 504.43L172.484 503.83C173.054 504.18 173.679 504.355 174.359 504.355ZM182.068 504.355C182.508 504.355 182.878 504.255 183.178 504.055C183.478 503.845 183.628 503.55 183.628 503.17C183.628 502.77 183.438 502.455 183.058 502.225C182.868 502.115 182.638 502.005 182.368 501.895C182.098 501.775 181.933 501.7 181.873 501.67C181.373 501.45 180.983 501.19 180.703 500.89C180.433 500.59 180.298 500.165 180.298 499.615C180.298 499.055 180.523 498.61 180.973 498.28C181.423 497.94 181.953 497.77 182.563 497.77C183.173 497.77 183.723 497.89 184.213 498.13L184.048 498.805C183.548 498.665 183.103 498.595 182.713 498.595C182.333 498.595 182.003 498.685 181.723 498.865C181.443 499.035 181.303 499.275 181.303 499.585C181.303 499.895 181.398 500.14 181.588 500.32C181.778 500.49 181.973 500.62 182.173 500.71C182.383 500.8 182.603 500.895 182.833 500.995C183.073 501.085 183.228 501.15 183.298 501.19C183.368 501.23 183.498 501.305 183.688 501.415C183.878 501.515 184.008 501.61 184.078 501.7C184.158 501.79 184.248 501.91 184.348 502.06C184.538 502.31 184.633 502.665 184.633 503.125C184.633 503.785 184.388 504.295 183.898 504.655C183.408 505.005 182.783 505.18 182.023 505.18C181.273 505.18 180.608 504.93 180.028 504.43L180.193 503.83C180.763 504.18 181.388 504.355 182.068 504.355ZM195.476 498.76C195.476 498.42 195.431 498.125 195.341 497.875L196.181 497.77C196.391 497.92 196.496 498.195 196.496 498.595C196.496 498.995 196.486 499.3 196.466 499.51C196.386 500.16 196.086 501.025 195.566 502.105L194.216 505H193.271L192.461 502.105C192.361 501.765 192.331 501.425 192.371 501.085H192.281C192.231 501.325 192.116 501.665 191.936 502.105L190.736 505H189.791L188.396 500.035C188.116 499.015 187.876 498.37 187.676 498.1L187.586 497.95L188.366 497.8C188.526 497.8 188.651 497.87 188.741 498.01C188.841 498.15 188.956 498.44 189.086 498.88L190.451 503.695H190.541C190.531 503.645 190.526 503.56 190.526 503.44C190.526 503.32 190.586 503.125 190.706 502.855L191.216 501.67C191.636 500.69 191.846 499.72 191.846 498.76C191.846 498.45 191.801 498.17 191.711 497.92L192.551 497.815C192.761 497.985 192.866 498.27 192.866 498.67C192.866 499.06 192.846 499.42 192.806 499.75L193.931 503.695H194.021C194.011 503.645 194.006 503.56 194.006 503.44C194.006 503.32 194.066 503.125 194.186 502.855L194.696 501.67C195.216 500.46 195.476 499.49 195.476 498.76ZM203.019 504.385C203.519 504.385 203.929 504.23 204.249 503.92C204.569 503.61 204.784 503.235 204.894 502.795C205.014 502.355 205.074 501.85 205.074 501.28C205.074 499.49 204.439 498.595 203.169 498.595C202.699 498.595 202.309 498.745 201.999 499.045C201.439 499.575 201.159 500.42 201.159 501.58C201.159 503.45 201.779 504.385 203.019 504.385ZM206.199 501.295C206.199 502.395 205.919 503.32 205.359 504.07C204.809 504.81 204.009 505.18 202.959 505.18C201.919 505.18 201.179 504.88 200.739 504.28C200.299 503.67 200.079 502.78 200.079 501.61C200.079 500.44 200.334 499.51 200.844 498.82C201.354 498.12 202.124 497.77 203.154 497.77C204.184 497.77 204.949 498.085 205.449 498.715C205.949 499.335 206.199 500.195 206.199 501.295ZM211.187 497.815C211.387 497.895 211.487 498.155 211.487 498.595C211.487 499.025 211.452 499.425 211.382 499.795H211.472C211.692 499.085 211.947 498.57 212.237 498.25C212.527 497.93 212.982 497.77 213.602 497.77L214.067 497.83L213.932 498.865C213.802 498.835 213.642 498.82 213.452 498.82C213.062 498.82 212.727 498.95 212.447 499.21C212.177 499.46 211.977 499.8 211.847 500.23C211.597 501 211.472 501.865 211.472 502.825V505H210.437V500.155C210.437 499.145 210.382 498.4 210.272 497.92L211.187 497.815ZM219.876 505.18C219.006 505.18 218.371 504.88 217.971 504.28C217.571 503.68 217.371 502.83 217.371 501.73C217.371 500.62 217.651 499.685 218.211 498.925C218.781 498.155 219.616 497.77 220.716 497.77C221.146 497.77 221.581 497.86 222.021 498.04V494.005L223.026 493.825V502.045C223.026 502.935 223.091 503.55 223.221 503.89C223.351 504.22 223.641 504.385 224.091 504.385L224.121 505.06C223.991 505.1 223.791 505.12 223.521 505.12C223.021 505.12 222.671 504.97 222.471 504.67C222.281 504.37 222.186 504.025 222.186 503.635C222.186 503.535 222.191 503.425 222.201 503.305H222.111C221.711 504.555 220.966 505.18 219.876 505.18ZM222.021 500.335V498.79C221.731 498.64 221.296 498.565 220.716 498.565C219.236 498.565 218.496 499.68 218.496 501.91C218.496 503.54 218.991 504.355 219.981 504.355C220.371 504.355 220.706 504.23 220.986 503.98C221.276 503.72 221.491 503.38 221.631 502.96C221.891 502.17 222.021 501.295 222.021 500.335ZM227.68 504.49C227.68 504 227.92 503.755 228.4 503.755C228.84 503.755 229.06 503.995 229.06 504.475C229.06 504.945 228.83 505.18 228.37 505.18C227.91 505.18 227.68 504.95 227.68 504.49C227.68 504 227.92 503.755 228.4 503.755C228.84 503.755 229.06 503.995 229.06 504.475C229.06 504.945 228.83 505.18 228.37 505.18C227.91 505.18 227.68 504.95 227.68 504.49ZM228.73 499.57C229.75 499.57 230.26 498.8 230.26 497.26C230.26 495.71 229.67 494.935 228.49 494.935C228.22 494.935 227.94 494.965 227.65 495.025L227.515 494.305C227.905 494.105 228.3 494.005 228.7 494.005C229.56 494.005 230.225 494.305 230.695 494.905C231.175 495.495 231.415 496.26 231.415 497.2C231.415 498.14 231.21 498.9 230.8 499.48C230.4 500.06 229.79 500.35 228.97 500.35L228.715 500.335L228.805 501.955L228.085 502.135C227.915 502.105 227.805 502.005 227.755 501.835C227.705 501.655 227.675 501.345 227.665 500.905L227.65 499.465C227.94 499.535 228.3 499.57 228.73 499.57Z" fill="black"/>
<path d="M124.42 438.539C125.631 439.367 126.797 439.781 127.916 439.781C129.051 439.781 129.932 439.52 130.561 438.999C131.205 438.478 131.527 437.757 131.527 436.837C131.527 436.086 131.297 435.495 130.837 435.066C130.346 434.591 129.58 434.115 128.537 433.64C128.23 433.487 128.016 433.379 127.893 433.318C126.85 432.827 126.038 432.26 125.455 431.616C124.888 430.972 124.604 430.06 124.604 428.879C124.604 427.698 125.041 426.732 125.915 425.981C126.804 425.23 127.87 424.854 129.112 424.854C130.354 424.854 131.489 425.076 132.516 425.521L132.171 426.786C131.251 426.479 130.354 426.326 129.48 426.326C128.606 426.326 127.87 426.556 127.272 427.016C126.674 427.461 126.375 428.051 126.375 428.787C126.375 429.523 126.582 430.113 126.996 430.558C127.471 431.049 128.315 431.57 129.526 432.122C130.63 432.643 131.381 433.08 131.78 433.433C132.332 433.939 132.677 434.345 132.815 434.652C133.106 435.388 133.252 436.086 133.252 436.745C133.252 438.14 132.769 439.244 131.803 440.057C130.852 440.87 129.626 441.276 128.123 441.276C126.636 441.276 125.279 440.77 124.052 439.758L124.42 438.539ZM139.266 425.13V441H137.472L137.541 425.13H139.266ZM152.349 434.261H150.394V432.743H154.074V440.172C153.062 440.908 151.682 441.276 149.934 441.276C147.726 441.276 146.178 440.494 145.288 438.93C144.491 437.519 144.092 435.618 144.092 433.226C144.092 430.834 144.667 428.871 145.817 427.338C146.983 425.805 148.631 425.038 150.762 425.038C151.805 425.038 152.794 425.191 153.729 425.498L153.384 426.786C152.541 426.633 151.736 426.556 150.969 426.556C147.611 426.556 145.932 428.779 145.932 433.226C145.932 436.415 146.653 438.424 148.094 439.252C148.677 439.589 149.367 439.758 150.164 439.758C150.977 439.758 151.705 439.643 152.349 439.413V434.261ZM168.169 437.274V425.13H169.894L169.825 441H167.502L161.453 428.143L160.947 426.97L160.832 426.993C160.97 427.315 161.039 427.936 161.039 428.856V441H159.314L159.383 425.13H161.706L167.755 437.987L168.261 439.16L168.376 439.137C168.238 438.815 168.169 438.194 168.169 437.274ZM182.95 425.13V441H181.156L181.225 425.13H182.95ZM197.551 437.274V425.13H199.276L199.207 441H196.884L190.835 428.143L190.329 426.97L190.214 426.993C190.352 427.315 190.421 427.936 190.421 428.856V441H188.696L188.765 425.13H191.088L197.137 437.987L197.643 439.16L197.758 439.137C197.62 438.815 197.551 438.194 197.551 437.274Z" fill="white"/>
<defs>
<filter id="filter0_dd" x="69" y="112" width="176" height="60.4576" filterUnits="userSpaceOnUse" color-interpolation-filters="sRGB">
<feFlood flood-opacity="0" result="BackgroundImageFix"/>
<feColorMatrix in="SourceAlpha" type="matrix" values="0 0 0 0 0 0 0 0 0 0 0 0 0 0 0 0 0 0 127 0"/>
<feOffset dx="4" dy="4"/>
<feGaussianBlur stdDeviation="4"/>
<feColorMatrix type="matrix" values="0 0 0 0 0 0 0 0 0 0 0 0 0 0 0 0 0 0 0.25 0"/>
<feBlend mode="normal" in2="BackgroundImageFix" result="effect1_dropShadow"/>
<feColorMatrix in="SourceAlpha" type="matrix" values="0 0 0 0 0 0 0 0 0 0 0 0 0 0 0 0 0 0 127 0"/>
<feOffset dx="-4" dy="-4"/>
<feGaussianBlur stdDeviation="4"/>
<feColorMatrix type="matrix" values="0 0 0 0 0.441667 0 0 0 0 0.441667 0 0 0 0 0.441667 0 0 0 0.25 0"/>
<feBlend mode="normal" in2="effect1_dropShadow" result="effect2_dropShadow"/>
<feBlend mode="normal" in="SourceGraphic" in2="effect2_dropShadow" result="shape"/>
</filter>
<linearGradient id="paint0_linear" x1="157" y1="124" x2="157" y2="160.458" gradientUnits="userSpaceOnUse">
<stop stop-color="white"/>
<stop offset="1" stop-color="white" stop-opacity="0.32"/>
</linearGradient>
</defs>
</svg>
