<svg width="76" height="76" viewBox="0 0 76 76" fill="none" xmlns="http://www.w3.org/2000/svg">
<path d="M38 12.6667H15.8333C10.5767 12.6667 6.33333 16.91 6.33333 22.1667V47.5C6.33333 52.7567 10.5767 57 15.8333 57L12.6667 60.1667V63.3333H15.8333L22.1667 56.905L28.5 57V41.1667H12.6667V18.9367L41.1667 19V25.3333H47.5V22.1667C47.5 16.91 43.2567 12.6667 38 12.6667ZM15.8333 44.3333C17.575 44.3333 19 45.7583 19 47.5C19 49.2417 17.575 50.6667 15.8333 50.6667C14.0917 50.6667 12.6667 49.2417 12.6667 47.5C12.6667 45.7583 14.0917 44.3333 15.8333 44.3333ZM65.1383 30.59C64.695 29.3233 63.4917 28.5 62.0667 28.5H39.2983C37.8417 28.5 36.67 29.3233 36.195 30.59L31.6667 43.605L31.6983 61.0533C31.6983 62.2567 32.68 63.3333 33.8833 63.3333H35.8467C37.05 63.3333 38 62.13 38 60.9267V57H63.3333V60.9267C63.3333 62.13 64.315 63.3333 65.5183 63.3333H67.45C68.6533 63.3333 69.635 62.2567 69.635 61.0533L69.6667 56.715V43.605L65.1383 30.59V30.59ZM39.2983 31.6667H62.0667L65.3283 41.1667H36.0367L39.2983 31.6667V31.6667ZM38 50.6667C36.2583 50.6667 34.8333 49.2417 34.8333 47.5C34.8333 45.7583 36.2583 44.3333 38 44.3333C39.7417 44.3333 41.1667 45.7583 41.1667 47.5C41.1667 49.2417 39.7417 50.6667 38 50.6667ZM63.3333 50.6667C61.5917 50.6667 60.1667 49.2417 60.1667 47.5C60.1667 45.7583 61.5917 44.3333 63.3333 44.3333C65.075 44.3333 66.5 45.7583 66.5 47.5C66.5 49.2417 65.075 50.6667 63.3333 50.6667Z" fill="white"/>
</svg>
