<svg width="1440" height="1024" viewBox="0 0 1440 1024" fill="none" xmlns="http://www.w3.org/2000/svg">
<g clip-path="url(#clip0)">
<rect width="1440" height="1024" fill="#303030"/>
<rect x="496.5" y="435.5" width="447" height="50" rx="5.5" fill="white" fill-opacity="0.31" stroke="white"/>
<path d="M520.99 450C515.47 450 510.99 454.48 510.99 460C510.99 465.52 515.47 470 520.99 470C526.51 470 530.99 465.52 530.99 460C530.99 454.48 526.51 450 520.99 450ZM524.6 456.34C525.67 456.34 526.53 457.2 526.53 458.27C526.53 459.34 525.67 460.2 524.6 460.2C523.53 460.2 522.67 459.34 522.67 458.27C522.66 457.2 523.53 456.34 524.6 456.34ZM518.6 454.76C519.9 454.76 520.96 455.82 520.96 457.12C520.96 458.42 519.9 459.48 518.6 459.48C517.3 459.48 516.24 458.42 516.24 457.12C516.24 455.81 517.29 454.76 518.6 454.76ZM518.6 463.89V467.64C516.2 466.89 514.3 465.04 513.46 462.68C514.51 461.56 517.13 460.99 518.6 460.99C519.13 460.99 519.8 461.07 520.5 461.21C518.86 462.08 518.6 463.23 518.6 463.89ZM520.99 468C520.72 468 520.46 467.99 520.2 467.96V463.89C520.2 462.47 523.14 461.76 524.6 461.76C525.67 461.76 527.52 462.15 528.44 462.91C527.27 465.88 524.38 468 520.99 468Z" fill="white"/>
<path d="M567.158 451.516V464.084C567.15 465.827 566.6 467.254 565.508 468.362C564.424 469.471 562.952 470.093 561.09 470.229L560.442 470.254C558.42 470.254 556.807 469.708 555.605 468.616C554.404 467.524 553.794 466.022 553.777 464.109V451.516H556.189V464.033C556.189 465.37 556.558 466.411 557.294 467.156C558.03 467.893 559.08 468.261 560.442 468.261C561.822 468.261 562.876 467.893 563.604 467.156C564.34 466.42 564.708 465.383 564.708 464.046V451.516H567.158ZM576.451 461.761C574.361 461.16 572.837 460.424 571.881 459.552C570.933 458.672 570.459 457.588 570.459 456.302C570.459 454.846 571.039 453.644 572.198 452.696C573.366 451.74 574.881 451.262 576.743 451.262C578.013 451.262 579.143 451.507 580.133 451.998C581.132 452.489 581.902 453.166 582.443 454.029C582.993 454.893 583.269 455.836 583.269 456.86H580.818C580.818 455.743 580.463 454.867 579.752 454.232C579.041 453.589 578.038 453.268 576.743 453.268C575.541 453.268 574.602 453.534 573.925 454.067C573.256 454.592 572.922 455.324 572.922 456.264C572.922 457.017 573.239 457.656 573.874 458.181C574.517 458.697 575.605 459.171 577.137 459.603C578.677 460.034 579.879 460.512 580.742 461.037C581.614 461.553 582.257 462.159 582.672 462.853C583.095 463.547 583.307 464.363 583.307 465.303C583.307 466.801 582.723 468.003 581.555 468.908C580.387 469.805 578.825 470.254 576.87 470.254C575.601 470.254 574.416 470.013 573.315 469.53C572.215 469.039 571.365 468.371 570.764 467.524C570.171 466.678 569.875 465.717 569.875 464.643H572.325C572.325 465.76 572.736 466.644 573.557 467.296C574.386 467.939 575.491 468.261 576.87 468.261C578.157 468.261 579.143 467.998 579.828 467.474C580.514 466.949 580.856 466.234 580.856 465.328C580.856 464.423 580.539 463.724 579.904 463.233C579.27 462.734 578.118 462.243 576.451 461.761ZM596.891 461.456H588.88V468.007H598.186V470H586.442V451.516H598.059V453.521H588.88V459.463H596.891V461.456ZM607.999 462.522H603.657V470H601.207V451.516H607.326C609.408 451.516 611.008 451.99 612.125 452.938C613.251 453.885 613.813 455.265 613.813 457.076C613.813 458.227 613.5 459.23 612.874 460.085C612.256 460.94 611.393 461.579 610.284 462.002L614.626 469.848V470H612.011L607.999 462.522ZM603.657 460.529H607.402C608.613 460.529 609.573 460.216 610.284 459.59C611.004 458.964 611.363 458.126 611.363 457.076C611.363 455.934 611.021 455.058 610.335 454.448C609.658 453.839 608.676 453.53 607.39 453.521H603.657V460.529ZM631.447 470H628.997L619.691 455.756V470H617.241V451.516H619.691L629.022 465.823V451.516H631.447V470ZM646.212 465.176H638.468L636.729 470H634.215L641.273 451.516H643.406L650.478 470H647.977L646.212 465.176ZM639.204 463.17H645.488L642.34 454.524L639.204 463.17ZM656.114 451.516L662.157 466.598L668.2 451.516H671.361V470H668.924V462.802L669.152 455.032L663.084 470H661.218L655.162 455.07L655.403 462.802V470H652.966V451.516H656.114ZM686.113 461.456H678.103V468.007H687.408V470H675.665V451.516H687.281V453.521H678.103V459.463H686.113V461.456Z" fill="white" fill-opacity="0.63"/>
<rect x="496.5" y="589.5" width="447" height="50" rx="5.5" fill="#005BC6" stroke="white"/>
<rect x="496.5" y="512.5" width="447" height="50" rx="5.5" fill="white" fill-opacity="0.31" stroke="white"/>
<path d="M556.583 539.764V547H554.146V528.516H560.963C562.986 528.516 564.568 529.032 565.711 530.064C566.862 531.097 567.438 532.464 567.438 534.165C567.438 535.959 566.875 537.343 565.749 538.316C564.632 539.281 563.028 539.764 560.938 539.764H556.583ZM556.583 537.771H560.963C562.266 537.771 563.265 537.466 563.959 536.856C564.653 536.239 565 535.35 565 534.19C565 533.09 564.653 532.21 563.959 531.55C563.265 530.89 562.313 530.547 561.103 530.521H556.583V537.771ZM579.003 542.176H571.259L569.52 547H567.006L574.064 528.516H576.197L583.269 547H580.768L579.003 542.176ZM571.995 540.17H578.279L575.131 531.524L571.995 540.17ZM591.203 538.761C589.113 538.16 587.589 537.424 586.633 536.552C585.685 535.672 585.211 534.588 585.211 533.302C585.211 531.846 585.791 530.644 586.95 529.696C588.118 528.74 589.633 528.262 591.495 528.262C592.765 528.262 593.895 528.507 594.885 528.998C595.883 529.489 596.654 530.166 597.195 531.029C597.745 531.893 598.021 532.836 598.021 533.86H595.57C595.57 532.743 595.215 531.867 594.504 531.232C593.793 530.589 592.79 530.268 591.495 530.268C590.293 530.268 589.354 530.534 588.677 531.067C588.008 531.592 587.674 532.324 587.674 533.264C587.674 534.017 587.991 534.656 588.626 535.181C589.269 535.697 590.357 536.171 591.889 536.603C593.429 537.034 594.631 537.512 595.494 538.037C596.366 538.553 597.009 539.159 597.424 539.853C597.847 540.547 598.059 541.363 598.059 542.303C598.059 543.801 597.475 545.003 596.307 545.908C595.139 546.805 593.577 547.254 591.622 547.254C590.353 547.254 589.168 547.013 588.067 546.53C586.967 546.039 586.117 545.371 585.516 544.524C584.923 543.678 584.627 542.717 584.627 541.643H587.077C587.077 542.76 587.488 543.644 588.309 544.296C589.138 544.939 590.243 545.261 591.622 545.261C592.909 545.261 593.895 544.998 594.58 544.474C595.266 543.949 595.608 543.234 595.608 542.328C595.608 541.423 595.291 540.724 594.656 540.233C594.021 539.734 592.87 539.243 591.203 538.761ZM606.641 538.761C604.55 538.16 603.027 537.424 602.07 536.552C601.122 535.672 600.648 534.588 600.648 533.302C600.648 531.846 601.228 530.644 602.388 529.696C603.556 528.74 605.071 528.262 606.933 528.262C608.202 528.262 609.332 528.507 610.322 528.998C611.321 529.489 612.091 530.166 612.633 531.029C613.183 531.893 613.458 532.836 613.458 533.86H611.008C611.008 532.743 610.652 531.867 609.941 531.232C609.23 530.589 608.228 530.268 606.933 530.268C605.731 530.268 604.791 530.534 604.114 531.067C603.446 531.592 603.111 532.324 603.111 533.264C603.111 534.017 603.429 534.656 604.063 535.181C604.707 535.697 605.794 536.171 607.326 536.603C608.867 537.034 610.068 537.512 610.932 538.037C611.803 538.553 612.447 539.159 612.861 539.853C613.285 540.547 613.496 541.363 613.496 542.303C613.496 543.801 612.912 545.003 611.744 545.908C610.576 546.805 609.015 547.254 607.06 547.254C605.79 547.254 604.605 547.013 603.505 546.53C602.405 546.039 601.554 545.371 600.953 544.524C600.361 543.678 600.064 542.717 600.064 541.643H602.515C602.515 542.76 602.925 543.644 603.746 544.296C604.576 544.939 605.68 545.261 607.06 545.261C608.346 545.261 609.332 544.998 610.018 544.474C610.703 543.949 611.046 543.234 611.046 542.328C611.046 541.423 610.729 540.724 610.094 540.233C609.459 539.734 608.308 539.243 606.641 538.761ZM620.618 541.173L620.974 543.61L621.494 541.414L625.15 528.516H627.207L630.774 541.414L631.282 543.648L631.676 541.16L634.545 528.516H636.995L632.514 547H630.292L626.483 533.53L626.191 532.121L625.899 533.53L621.951 547H619.729L615.261 528.516H617.698L620.618 541.173ZM653.931 538.354C653.931 540.166 653.626 541.748 653.017 543.103C652.407 544.448 651.544 545.477 650.427 546.188C649.31 546.898 648.006 547.254 646.517 547.254C645.061 547.254 643.77 546.898 642.645 546.188C641.519 545.468 640.643 544.448 640.017 543.128C639.399 541.799 639.081 540.263 639.064 538.52V537.187C639.064 535.409 639.373 533.839 639.991 532.477C640.609 531.114 641.481 530.073 642.606 529.354C643.741 528.626 645.035 528.262 646.491 528.262C647.972 528.262 649.276 528.621 650.401 529.341C651.535 530.052 652.407 531.089 653.017 532.451C653.626 533.805 653.931 535.384 653.931 537.187V538.354ZM651.506 537.161C651.506 534.969 651.066 533.289 650.186 532.121C649.305 530.945 648.074 530.356 646.491 530.356C644.951 530.356 643.736 530.945 642.848 532.121C641.967 533.289 641.515 534.914 641.489 536.996V538.354C641.489 540.479 641.934 542.15 642.822 543.369C643.719 544.579 644.951 545.185 646.517 545.185C648.091 545.185 649.31 544.613 650.173 543.471C651.036 542.32 651.48 540.674 651.506 538.532V537.161ZM664.366 539.522H660.024V547H657.574V528.516H663.693C665.775 528.516 667.375 528.99 668.492 529.938C669.618 530.885 670.181 532.265 670.181 534.076C670.181 535.227 669.868 536.23 669.241 537.085C668.623 537.94 667.76 538.579 666.651 539.002L670.993 546.848V547H668.378L664.366 539.522ZM660.024 537.529H663.77C664.98 537.529 665.94 537.216 666.651 536.59C667.371 535.964 667.73 535.126 667.73 534.076C667.73 532.934 667.388 532.058 666.702 531.448C666.025 530.839 665.043 530.53 663.757 530.521H660.024V537.529ZM673.608 547V528.516H678.826C680.434 528.516 681.856 528.871 683.092 529.582C684.327 530.293 685.28 531.304 685.948 532.616C686.625 533.928 686.968 535.435 686.977 537.136V538.316C686.977 540.06 686.638 541.588 685.961 542.899C685.292 544.211 684.332 545.218 683.079 545.921C681.835 546.623 680.383 546.983 678.725 547H673.608ZM676.046 530.521V545.007H678.61C680.489 545.007 681.949 544.423 682.99 543.255C684.04 542.087 684.564 540.424 684.564 538.266V537.187C684.564 535.088 684.069 533.458 683.079 532.299C682.097 531.131 680.701 530.538 678.89 530.521H676.046Z" fill="white" fill-opacity="0.63"/>
<path d="M527 534H526V532C526 529.24 523.76 527 521 527C518.24 527 516 529.24 516 532V534H515C513.9 534 513 534.9 513 536V546C513 547.1 513.9 548 515 548H527C528.1 548 529 547.1 529 546V536C529 534.9 528.1 534 527 534ZM521 543C519.9 543 519 542.1 519 541C519 539.9 519.9 539 521 539C522.1 539 523 539.9 523 541C523 542.1 522.1 543 521 543ZM524.1 534H517.9V532C517.9 530.29 519.29 528.9 521 528.9C522.71 528.9 524.1 530.29 524.1 532V534Z" fill="white"/>
<path d="M687.411 621.007H696.171V623H684.961V604.516H687.411V621.007ZM712.332 614.354C712.332 616.166 712.027 617.748 711.418 619.103C710.809 620.448 709.945 621.477 708.828 622.188C707.711 622.898 706.408 623.254 704.918 623.254C703.462 623.254 702.172 622.898 701.046 622.188C699.92 621.468 699.044 620.448 698.418 619.128C697.8 617.799 697.483 616.263 697.466 614.52V613.187C697.466 611.409 697.775 609.839 698.393 608.477C699.01 607.114 699.882 606.073 701.008 605.354C702.142 604.626 703.437 604.262 704.893 604.262C706.374 604.262 707.677 604.621 708.803 605.341C709.937 606.052 710.809 607.089 711.418 608.451C712.027 609.805 712.332 611.384 712.332 613.187V614.354ZM709.907 613.161C709.907 610.969 709.467 609.289 708.587 608.121C707.707 606.945 706.475 606.356 704.893 606.356C703.352 606.356 702.138 606.945 701.249 608.121C700.369 609.289 699.916 610.914 699.891 612.996V614.354C699.891 616.479 700.335 618.15 701.224 619.369C702.121 620.579 703.352 621.185 704.918 621.185C706.492 621.185 707.711 620.613 708.574 619.471C709.438 618.32 709.882 616.674 709.907 614.532V613.161ZM729.636 620.575C729.009 621.472 728.133 622.145 727.008 622.594C725.891 623.034 724.587 623.254 723.098 623.254C721.591 623.254 720.254 622.903 719.086 622.2C717.918 621.489 717.012 620.482 716.369 619.179C715.734 617.875 715.409 616.365 715.392 614.646V613.034C715.392 610.25 716.039 608.091 717.334 606.56C718.637 605.028 720.465 604.262 722.818 604.262C724.748 604.262 726.301 604.757 727.478 605.747C728.654 606.729 729.373 608.125 729.636 609.937H727.198C726.741 607.491 725.285 606.268 722.831 606.268C721.198 606.268 719.958 606.843 719.111 607.994C718.273 609.137 717.85 610.796 717.842 612.971V614.481C717.842 616.555 718.316 618.205 719.264 619.433C720.212 620.651 721.494 621.261 723.11 621.261C724.024 621.261 724.824 621.159 725.51 620.956C726.195 620.753 726.762 620.41 727.211 619.928V615.776H722.933V613.796H729.636V620.575ZM736.326 623H733.889V604.516H736.326V623ZM755.001 623H752.551L743.245 608.756V623H740.795V604.516H743.245L752.576 618.823V604.516H755.001V623Z" fill="white"/>
<path d="M808.209 659.349H802.839V665H801.151V652.203H809.079V653.592H802.839V657.969H808.209V659.349ZM810.222 660.157C810.222 659.226 810.403 658.388 810.767 657.644C811.136 656.899 811.646 656.325 812.296 655.921C812.952 655.517 813.699 655.314 814.537 655.314C815.832 655.314 816.878 655.763 817.675 656.659C818.478 657.556 818.879 658.748 818.879 660.236V660.351C818.879 661.276 818.7 662.108 818.343 662.847C817.991 663.579 817.484 664.15 816.822 664.561C816.166 664.971 815.41 665.176 814.555 665.176C813.266 665.176 812.22 664.728 811.417 663.831C810.62 662.935 810.222 661.748 810.222 660.271V660.157ZM811.856 660.351C811.856 661.405 812.1 662.252 812.586 662.891C813.078 663.529 813.734 663.849 814.555 663.849C815.381 663.849 816.037 663.526 816.523 662.882C817.01 662.231 817.253 661.323 817.253 660.157C817.253 659.114 817.004 658.271 816.506 657.626C816.014 656.976 815.357 656.65 814.537 656.65C813.734 656.65 813.087 656.97 812.595 657.608C812.103 658.247 811.856 659.161 811.856 660.351ZM825.515 656.949C825.269 656.908 825.002 656.888 824.715 656.888C823.648 656.888 822.925 657.342 822.544 658.25V665H820.918V655.49H822.5L822.526 656.589C823.06 655.739 823.815 655.314 824.794 655.314C825.11 655.314 825.351 655.355 825.515 655.438V656.949ZM826.455 660.166C826.455 658.684 826.798 657.506 827.483 656.633C828.169 655.754 829.077 655.314 830.208 655.314C831.368 655.314 832.273 655.725 832.924 656.545L833.003 655.49H834.488V664.771C834.488 666.002 834.122 666.972 833.39 667.681C832.663 668.39 831.685 668.744 830.454 668.744C829.769 668.744 829.098 668.598 828.441 668.305C827.785 668.012 827.284 667.61 826.938 667.101L827.782 666.125C828.479 666.986 829.332 667.417 830.34 667.417C831.131 667.417 831.746 667.194 832.186 666.749C832.631 666.304 832.854 665.677 832.854 664.868V664.051C832.203 664.801 831.315 665.176 830.19 665.176C829.077 665.176 828.175 664.728 827.483 663.831C826.798 662.935 826.455 661.713 826.455 660.166ZM828.09 660.351C828.09 661.423 828.31 662.267 828.749 662.882C829.188 663.491 829.804 663.796 830.595 663.796C831.62 663.796 832.373 663.33 832.854 662.398V658.057C832.355 657.148 831.608 656.694 830.612 656.694C829.821 656.694 829.203 657.002 828.758 657.617C828.312 658.232 828.09 659.144 828.09 660.351ZM836.519 660.157C836.519 659.226 836.7 658.388 837.063 657.644C837.433 656.899 837.942 656.325 838.593 655.921C839.249 655.517 839.996 655.314 840.834 655.314C842.129 655.314 843.175 655.763 843.972 656.659C844.774 657.556 845.176 658.748 845.176 660.236V660.351C845.176 661.276 844.997 662.108 844.64 662.847C844.288 663.579 843.781 664.15 843.119 664.561C842.463 664.971 841.707 665.176 840.852 665.176C839.562 665.176 838.517 664.728 837.714 663.831C836.917 662.935 836.519 661.748 836.519 660.271V660.157ZM838.153 660.351C838.153 661.405 838.396 662.252 838.883 662.891C839.375 663.529 840.031 663.849 840.852 663.849C841.678 663.849 842.334 663.526 842.82 662.882C843.307 662.231 843.55 661.323 843.55 660.157C843.55 659.114 843.301 658.271 842.803 657.626C842.311 656.976 841.654 656.65 840.834 656.65C840.031 656.65 839.384 656.97 838.892 657.608C838.399 658.247 838.153 659.161 838.153 660.351ZM849.421 653.188V655.49H851.196V656.747H849.421V662.645C849.421 663.025 849.5 663.312 849.658 663.506C849.816 663.693 850.086 663.787 850.467 663.787C850.654 663.787 850.912 663.752 851.24 663.682V665C850.812 665.117 850.396 665.176 849.992 665.176C849.266 665.176 848.718 664.956 848.349 664.517C847.979 664.077 847.795 663.453 847.795 662.645V656.747H846.063V655.49H847.795V653.188H849.421ZM859.511 659.99V665H857.823V652.203H862.543C863.943 652.203 865.039 652.561 865.83 653.275C866.627 653.99 867.025 654.937 867.025 656.114C867.025 657.356 866.636 658.314 865.856 658.988C865.083 659.656 863.973 659.99 862.525 659.99H859.511ZM859.511 658.61H862.543C863.445 658.61 864.137 658.399 864.617 657.978C865.098 657.55 865.338 656.935 865.338 656.132C865.338 655.37 865.098 654.761 864.617 654.304C864.137 653.847 863.478 653.609 862.64 653.592H859.511V658.61ZM874.689 665C874.596 664.812 874.52 664.479 874.461 663.998C873.705 664.783 872.803 665.176 871.754 665.176C870.816 665.176 870.046 664.912 869.442 664.385C868.845 663.852 868.546 663.178 868.546 662.363C868.546 661.373 868.921 660.605 869.671 660.061C870.427 659.51 871.487 659.234 872.853 659.234H874.435V658.487C874.435 657.919 874.265 657.468 873.925 657.134C873.585 656.794 873.084 656.624 872.422 656.624C871.842 656.624 871.355 656.771 870.963 657.063C870.57 657.356 870.374 657.711 870.374 658.127H868.739C868.739 657.652 868.906 657.195 869.24 656.756C869.58 656.311 870.037 655.959 870.611 655.701C871.191 655.443 871.827 655.314 872.519 655.314C873.614 655.314 874.473 655.59 875.094 656.141C875.715 656.686 876.037 657.438 876.061 658.399V662.776C876.061 663.649 876.172 664.344 876.395 664.859V665H874.689ZM871.991 663.761C872.501 663.761 872.984 663.629 873.441 663.365C873.898 663.102 874.229 662.759 874.435 662.337V660.386H873.16C871.168 660.386 870.172 660.969 870.172 662.135C870.172 662.645 870.342 663.043 870.682 663.33C871.021 663.617 871.458 663.761 871.991 663.761ZM884.146 662.478C884.146 662.038 883.979 661.698 883.646 661.458C883.317 661.212 882.74 661.001 881.914 660.825C881.094 660.649 880.44 660.438 879.954 660.192C879.474 659.946 879.116 659.653 878.882 659.313C878.653 658.974 878.539 658.569 878.539 658.101C878.539 657.321 878.867 656.662 879.523 656.123C880.186 655.584 881.029 655.314 882.055 655.314C883.133 655.314 884.006 655.593 884.674 656.149C885.348 656.706 885.685 657.418 885.685 658.285H884.05C884.05 657.84 883.859 657.456 883.479 657.134C883.104 656.812 882.629 656.65 882.055 656.65C881.463 656.65 881 656.779 880.666 657.037C880.332 657.295 880.165 657.632 880.165 658.048C880.165 658.44 880.32 658.736 880.631 658.936C880.941 659.135 881.501 659.325 882.31 659.507C883.124 659.688 883.783 659.905 884.287 660.157C884.791 660.409 885.163 660.714 885.403 661.071C885.649 661.423 885.772 661.854 885.772 662.363C885.772 663.213 885.433 663.896 884.753 664.411C884.073 664.921 883.191 665.176 882.107 665.176C881.346 665.176 880.672 665.041 880.086 664.771C879.5 664.502 879.04 664.127 878.706 663.646C878.378 663.16 878.214 662.636 878.214 662.073H879.84C879.869 662.618 880.086 663.052 880.49 663.374C880.9 663.69 881.439 663.849 882.107 663.849C882.723 663.849 883.215 663.726 883.584 663.479C883.959 663.228 884.146 662.894 884.146 662.478ZM893.428 662.478C893.428 662.038 893.261 661.698 892.927 661.458C892.599 661.212 892.021 661.001 891.195 660.825C890.375 660.649 889.722 660.438 889.235 660.192C888.755 659.946 888.397 659.653 888.163 659.313C887.935 658.974 887.82 658.569 887.82 658.101C887.82 657.321 888.148 656.662 888.805 656.123C889.467 655.584 890.311 655.314 891.336 655.314C892.414 655.314 893.287 655.593 893.955 656.149C894.629 656.706 894.966 657.418 894.966 658.285H893.331C893.331 657.84 893.141 657.456 892.76 657.134C892.385 656.812 891.91 656.65 891.336 656.65C890.744 656.65 890.281 656.779 889.947 657.037C889.613 657.295 889.446 657.632 889.446 658.048C889.446 658.44 889.602 658.736 889.912 658.936C890.223 659.135 890.782 659.325 891.591 659.507C892.405 659.688 893.064 659.905 893.568 660.157C894.072 660.409 894.444 660.714 894.685 661.071C894.931 661.423 895.054 661.854 895.054 662.363C895.054 663.213 894.714 663.896 894.034 664.411C893.354 664.921 892.473 665.176 891.389 665.176C890.627 665.176 889.953 665.041 889.367 664.771C888.781 664.502 888.321 664.127 887.987 663.646C887.659 663.16 887.495 662.636 887.495 662.073H889.121C889.15 662.618 889.367 663.052 889.771 663.374C890.182 663.69 890.721 663.849 891.389 663.849C892.004 663.849 892.496 663.726 892.865 663.479C893.24 663.228 893.428 662.894 893.428 662.478ZM905.592 662.759L907.42 655.49H909.046L906.277 665H904.959L902.647 657.793L900.397 665H899.079L896.319 655.49H897.937L899.809 662.609L902.023 655.49H903.333L905.592 662.759ZM910.276 660.157C910.276 659.226 910.458 658.388 910.821 657.644C911.19 656.899 911.7 656.325 912.351 655.921C913.007 655.517 913.754 655.314 914.592 655.314C915.887 655.314 916.933 655.763 917.729 656.659C918.532 657.556 918.934 658.748 918.934 660.236V660.351C918.934 661.276 918.755 662.108 918.397 662.847C918.046 663.579 917.539 664.15 916.877 664.561C916.221 664.971 915.465 665.176 914.609 665.176C913.32 665.176 912.274 664.728 911.472 663.831C910.675 662.935 910.276 661.748 910.276 660.271V660.157ZM911.911 660.351C911.911 661.405 912.154 662.252 912.641 662.891C913.133 663.529 913.789 663.849 914.609 663.849C915.436 663.849 916.092 663.526 916.578 662.882C917.064 662.231 917.308 661.323 917.308 660.157C917.308 659.114 917.059 658.271 916.561 657.626C916.068 656.976 915.412 656.65 914.592 656.65C913.789 656.65 913.142 656.97 912.649 657.608C912.157 658.247 911.911 659.161 911.911 660.351ZM925.569 656.949C925.323 656.908 925.057 656.888 924.77 656.888C923.703 656.888 922.979 657.342 922.599 658.25V665H920.973V655.49H922.555L922.581 656.589C923.114 655.739 923.87 655.314 924.849 655.314C925.165 655.314 925.405 655.355 925.569 655.438V656.949ZM926.501 660.166C926.501 658.707 926.847 657.535 927.538 656.65C928.229 655.76 929.135 655.314 930.254 655.314C931.367 655.314 932.249 655.695 932.899 656.457V651.5H934.525V665H933.031L932.952 663.98C932.302 664.777 931.396 665.176 930.236 665.176C929.135 665.176 928.235 664.725 927.538 663.822C926.847 662.92 926.501 661.742 926.501 660.289V660.166ZM928.127 660.351C928.127 661.429 928.35 662.272 928.795 662.882C929.24 663.491 929.855 663.796 930.641 663.796C931.672 663.796 932.425 663.333 932.899 662.407V658.039C932.413 657.143 931.666 656.694 930.658 656.694C929.861 656.694 929.24 657.002 928.795 657.617C928.35 658.232 928.127 659.144 928.127 660.351ZM938.964 661.396C938.976 660.699 939.055 660.148 939.201 659.744C939.348 659.34 939.646 658.892 940.098 658.399L941.249 657.213C941.741 656.656 941.987 656.059 941.987 655.42C941.987 654.805 941.826 654.324 941.504 653.979C941.182 653.627 940.713 653.451 940.098 653.451C939.5 653.451 939.02 653.609 938.656 653.926C938.293 654.242 938.111 654.667 938.111 655.2H936.485C936.497 654.251 936.834 653.486 937.496 652.906C938.164 652.32 939.031 652.027 940.098 652.027C941.205 652.027 942.066 652.326 942.682 652.924C943.303 653.516 943.613 654.33 943.613 655.367C943.613 656.393 943.139 657.403 942.189 658.399L941.231 659.349C940.804 659.823 940.59 660.506 940.59 661.396H938.964ZM938.894 664.183C938.894 663.919 938.973 663.699 939.131 663.523C939.295 663.342 939.535 663.251 939.852 663.251C940.168 663.251 940.408 663.342 940.572 663.523C940.736 663.699 940.818 663.919 940.818 664.183C940.818 664.446 940.736 664.666 940.572 664.842C940.408 665.012 940.168 665.097 939.852 665.097C939.535 665.097 939.295 665.012 939.131 664.842C938.973 664.666 938.894 664.446 938.894 664.183Z" fill="white"/>
<path d="M680 368H696V352H680V368ZM712 368H728V352H712V368ZM728 192H712V272H728V192ZM756.48 211.52L744.88 223.12C758.72 231.52 768 246.64 768 264C768 290.48 746.48 312 720 312C693.52 312 672 290.48 672 264C672 246.64 681.28 231.52 695.04 223.04L683.52 211.52C666.88 223.04 656 242.24 656 264C656 299.36 684.64 328 720 328C755.36 328 784 299.36 784 264C784 242.24 773.12 223.04 756.48 211.52ZM744 368H760V352H744V368Z" fill="white"/>
<path d="M-178.14 -635.432C-186.961 -70.2996 875.679 -188.9 1226.34 468.847C1577 1126.59 784.215 1031.16 784.215 1031.16C784.215 1031.16 237.912 731.081 148.104 384.465C58.2969 37.8494 -620.265 -73.1149 -620.265 -73.1149C-256.595 -145.226 -180.463 -284.308 -178.14 -635.432Z" fill="white" fill-opacity="0.06"/>
</g>
<defs>
<clipPath id="clip0">
<rect width="1440" height="1024" fill="white"/>
</clipPath>
</defs>
</svg>
