<svg width="1440" height="1024" viewBox="0 0 1440 1024" fill="none" xmlns="http://www.w3.org/2000/svg">
<rect width="1440" height="1024" fill="#343434"/>
<g filter="url(#filter0_dd)">
<path d="M543 438C543 435.239 545.239 433 548 433H607C609.761 433 612 435.239 612 438V495C612 497.761 609.761 500 607 500H548C545.239 500 543 497.761 543 495V438Z" fill="#343434"/>
<path d="M584.542 457.195L575.709 477H572.867L581.671 457.898H570.128V455.672H584.542V457.195Z" fill="#B8B8B8"/>
</g>
<g filter="url(#filter1_dd)">
<path d="M543 531C543 528.239 545.239 526 548 526H607C609.761 526 612 528.239 612 531V588C612 590.761 609.761 593 607 593H548C545.239 593 543 590.761 543 588V531Z" fill="#343434"/>
<path d="M582.213 562.837H585.172V565.049H582.213V570H579.488V565.049H569.776V563.452L579.327 548.672H582.213V562.837ZM572.853 562.837H579.488V552.378L579.166 552.964L572.853 562.837Z" fill="#B8B8B8"/>
</g>
<g filter="url(#filter2_dd)">
<path d="M543 624C543 621.239 545.239 619 548 619H607C609.761 619 612 621.239 612 624V681C612 683.761 609.761 686 607 686H548C545.239 686 543 683.761 543 681V624Z" fill="#343434"/>
<path d="M579.679 663H576.954V644.938L571.49 646.945V644.484L579.254 641.569H579.679V663Z" fill="#B8B8B8"/>
</g>
<g filter="url(#filter3_dd)">
<path d="M543 345C543 342.239 545.239 340 548 340H702C704.761 340 707 342.239 707 345V402C707 404.761 704.761 407 702 407H548C545.239 407 543 404.761 543 402V345Z" fill="#343434"/>
<path d="M633.164 377.232C632.9 379.488 632.065 381.231 630.659 382.462C629.263 383.683 627.402 384.293 625.078 384.293C622.559 384.293 620.537 383.39 619.014 381.583C617.5 379.776 616.743 377.359 616.743 374.332V372.281C616.743 370.299 617.095 368.556 617.798 367.052C618.511 365.548 619.517 364.396 620.815 363.595C622.114 362.784 623.618 362.379 625.327 362.379C627.593 362.379 629.409 363.014 630.776 364.283C632.144 365.543 632.939 367.291 633.164 369.527H630.337C630.093 367.828 629.561 366.598 628.74 365.836C627.93 365.074 626.792 364.693 625.327 364.693C623.53 364.693 622.119 365.357 621.094 366.686C620.078 368.014 619.57 369.903 619.57 372.354V374.42C619.57 376.734 620.054 378.575 621.021 379.942C621.987 381.31 623.34 381.993 625.078 381.993C626.641 381.993 627.837 381.642 628.667 380.938C629.507 380.226 630.063 378.99 630.337 377.232H633.164Z" fill="#B8B8B8"/>
</g>
<g filter="url(#filter4_dd)">
<path d="M638 438C638 435.239 640.239 433 643 433H702C704.761 433 707 435.239 707 438V495C707 497.761 704.761 500 702 500H643C640.239 500 638 497.761 638 495V438Z" fill="#343434"/>
<path d="M678.707 461.238C678.707 462.303 678.424 463.25 677.857 464.08C677.301 464.91 676.544 465.56 675.587 466.028C676.7 466.507 677.579 467.205 678.224 468.123C678.878 469.041 679.205 470.081 679.205 471.243C679.205 473.089 678.58 474.559 677.33 475.652C676.09 476.746 674.454 477.293 672.423 477.293C670.372 477.293 668.727 476.746 667.486 475.652C666.256 474.549 665.641 473.079 665.641 471.243C665.641 470.091 665.953 469.051 666.578 468.123C667.213 467.195 668.087 466.492 669.2 466.014C668.253 465.545 667.506 464.896 666.959 464.065C666.412 463.235 666.139 462.293 666.139 461.238C666.139 459.441 666.715 458.016 667.867 456.961C669.02 455.906 670.538 455.379 672.423 455.379C674.298 455.379 675.812 455.906 676.964 456.961C678.126 458.016 678.707 459.441 678.707 461.238ZM676.495 471.185C676.495 469.993 676.114 469.021 675.353 468.27C674.601 467.518 673.614 467.142 672.394 467.142C671.173 467.142 670.191 467.513 669.449 468.255C668.717 468.997 668.351 469.974 668.351 471.185C668.351 472.396 668.707 473.348 669.42 474.041C670.143 474.734 671.144 475.081 672.423 475.081C673.692 475.081 674.688 474.734 675.411 474.041C676.134 473.338 676.495 472.386 676.495 471.185ZM672.423 457.605C671.358 457.605 670.494 457.938 669.83 458.602C669.176 459.256 668.849 460.149 668.849 461.282C668.849 462.366 669.171 463.245 669.815 463.919C670.47 464.583 671.339 464.915 672.423 464.915C673.507 464.915 674.371 464.583 675.016 463.919C675.67 463.245 675.997 462.366 675.997 461.282C675.997 460.198 675.66 459.314 674.986 458.631C674.312 457.947 673.458 457.605 672.423 457.605Z" fill="#B8B8B8"/>
</g>
<g filter="url(#filter5_dd)">
<path d="M638 531C638 528.239 640.239 526 643 526H702C704.761 526 707 528.239 707 531V588C707 590.761 704.761 593 702 593H643C640.239 593 638 590.761 638 588V531Z" fill="#343434"/>
<path d="M667.018 559.307L668.102 548.672H679.029V551.177H670.401L669.757 556.992C670.802 556.377 671.988 556.069 673.316 556.069C675.26 556.069 676.803 556.714 677.945 558.003C679.088 559.282 679.659 561.016 679.659 563.203C679.659 565.4 679.063 567.134 677.872 568.403C676.69 569.663 675.035 570.293 672.906 570.293C671.021 570.293 669.483 569.771 668.292 568.726C667.101 567.681 666.422 566.235 666.256 564.39H668.819C668.985 565.61 669.42 566.533 670.123 567.158C670.826 567.773 671.754 568.081 672.906 568.081C674.166 568.081 675.152 567.651 675.865 566.792C676.588 565.933 676.949 564.746 676.949 563.232C676.949 561.807 676.559 560.664 675.777 559.805C675.006 558.936 673.976 558.501 672.687 558.501C671.505 558.501 670.577 558.76 669.903 559.277L669.186 559.863L667.018 559.307Z" fill="#B8B8B8"/>
</g>
<g filter="url(#filter6_dd)">
<path d="M638 624C638 621.239 640.239 619 643 619H702C704.761 619 707 621.239 707 624V681C707 683.761 704.761 686 702 686H643C640.239 686 638 683.761 638 681V624Z" fill="#343434"/>
<path d="M679.747 663H665.772V661.052L673.155 652.849C674.249 651.608 675.001 650.603 675.411 649.831C675.831 649.05 676.041 648.244 676.041 647.414C676.041 646.301 675.704 645.388 675.03 644.675C674.356 643.962 673.458 643.605 672.335 643.605C670.987 643.605 669.938 643.991 669.186 644.763C668.443 645.524 668.072 646.589 668.072 647.956H665.362C665.362 645.993 665.992 644.406 667.252 643.195C668.521 641.984 670.216 641.379 672.335 641.379C674.317 641.379 675.885 641.901 677.037 642.946C678.189 643.981 678.766 645.363 678.766 647.092C678.766 649.191 677.428 651.691 674.752 654.592L669.039 660.788H679.747V663Z" fill="#B8B8B8"/>
</g>
<g filter="url(#filter7_dd)">
<path d="M543 717C543 714.239 545.239 712 548 712H702C704.761 712 707 714.239 707 717V774C707 776.761 704.761 779 702 779H548C545.239 779 543 776.761 543 774V717Z" fill="#343434"/>
<path d="M631.646 746.903C631.646 750.077 631.104 752.436 630.021 753.979C628.937 755.521 627.242 756.293 624.938 756.293C622.662 756.293 620.978 755.541 619.884 754.037C618.79 752.523 618.224 750.268 618.185 747.27V743.651C618.185 740.517 618.727 738.188 619.811 736.664C620.895 735.141 622.594 734.379 624.908 734.379C627.203 734.379 628.893 735.116 629.977 736.591C631.061 738.056 631.617 740.321 631.646 743.388V746.903ZM628.937 743.197C628.937 740.902 628.614 739.232 627.97 738.188C627.325 737.133 626.305 736.605 624.908 736.605C623.521 736.605 622.511 737.128 621.876 738.173C621.241 739.218 620.914 740.824 620.895 742.992V747.328C620.895 749.633 621.227 751.337 621.891 752.44C622.564 753.534 623.58 754.081 624.938 754.081C626.275 754.081 627.267 753.563 627.911 752.528C628.565 751.493 628.907 749.862 628.937 747.636V743.197Z" fill="#B8B8B8"/>
</g>
<g filter="url(#filter8_dd)">
<path d="M733 345C733 342.239 735.239 340 738 340H797C799.761 340 802 342.239 802 345V402C802 404.761 799.761 407 797 407H738C735.239 407 733 404.761 733 402V345Z" fill="#343434"/>
<path d="M758.038 366.773C758.038 365.494 758.443 364.439 759.254 363.609C760.074 362.779 761.124 362.364 762.403 362.364C763.702 362.364 764.752 362.784 765.553 363.624C766.363 364.454 766.769 365.533 766.769 366.861V367.901C766.769 369.19 766.358 370.245 765.538 371.065C764.728 371.876 763.692 372.281 762.433 372.281C761.163 372.281 760.113 371.876 759.283 371.065C758.453 370.245 758.038 369.156 758.038 367.799V366.773ZM760.06 367.901C760.06 368.663 760.274 369.293 760.704 369.791C761.134 370.279 761.71 370.523 762.433 370.523C763.126 370.523 763.683 370.284 764.103 369.806C764.532 369.327 764.747 368.673 764.747 367.843V366.773C764.747 366.012 764.537 365.382 764.117 364.884C763.697 364.386 763.126 364.137 762.403 364.137C761.681 364.137 761.109 364.386 760.689 364.884C760.27 365.382 760.06 366.031 760.06 366.832V367.901ZM768.424 378.771C768.424 377.491 768.829 376.441 769.64 375.621C770.46 374.791 771.51 374.376 772.789 374.376C774.068 374.376 775.118 374.786 775.938 375.606C776.759 376.427 777.169 377.516 777.169 378.873V379.913C777.169 381.192 776.759 382.247 775.938 383.077C775.128 383.897 774.088 384.308 772.818 384.308C771.549 384.308 770.499 383.902 769.669 383.092C768.839 382.271 768.424 381.183 768.424 379.825V378.771ZM770.445 379.913C770.445 380.685 770.66 381.319 771.09 381.817C771.52 382.306 772.096 382.55 772.818 382.55C773.521 382.55 774.083 382.311 774.503 381.832C774.923 381.344 775.133 380.685 775.133 379.854V378.771C775.133 377.999 774.918 377.369 774.488 376.881C774.068 376.393 773.502 376.148 772.789 376.148C772.096 376.148 771.529 376.393 771.09 376.881C770.66 377.359 770.445 378.009 770.445 378.829V379.913ZM763.048 382.389L761.51 381.422L771.925 364.752L773.463 365.719L763.048 382.389Z" fill="#B8B8B8"/>
</g>
<g filter="url(#filter9_dd)">
<path d="M733 438C733 435.239 735.239 433 738 433H797C799.761 433 802 435.239 802 438V495C802 497.761 799.761 500 797 500H738C735.239 500 733 497.761 733 495V438Z" fill="#343434"/>
<path d="M771.158 467.625C770.592 468.299 769.913 468.841 769.122 469.251C768.341 469.661 767.481 469.866 766.544 469.866C765.313 469.866 764.239 469.563 763.321 468.958C762.413 468.353 761.71 467.503 761.212 466.409C760.714 465.306 760.465 464.09 760.465 462.762C760.465 461.336 760.733 460.052 761.271 458.909C761.817 457.767 762.589 456.893 763.585 456.287C764.581 455.682 765.743 455.379 767.071 455.379C769.181 455.379 770.841 456.17 772.052 457.752C773.272 459.324 773.883 461.473 773.883 464.197V464.988C773.883 469.139 773.062 472.171 771.422 474.085C769.781 475.989 767.306 476.966 763.995 477.015H763.468V474.729H764.039C766.275 474.69 767.994 474.109 769.195 472.986C770.396 471.854 771.051 470.066 771.158 467.625ZM766.983 467.625C767.892 467.625 768.727 467.347 769.488 466.79C770.26 466.233 770.821 465.545 771.173 464.725V463.641C771.173 461.863 770.787 460.418 770.016 459.305C769.244 458.191 768.268 457.635 767.086 457.635C765.895 457.635 764.938 458.094 764.215 459.012C763.492 459.92 763.131 461.121 763.131 462.615C763.131 464.07 763.478 465.271 764.171 466.219C764.874 467.156 765.812 467.625 766.983 467.625Z" fill="#B8B8B8"/>
</g>
<g filter="url(#filter10_dd)">
<path d="M733 531C733 528.239 735.239 526 738 526H797C799.761 526 802 528.239 802 531V588C802 590.761 799.761 593 797 593H738C735.239 593 733 590.761 733 588V531Z" fill="#343434"/>
<path d="M771.407 548.657V550.957H770.909C768.8 550.996 767.12 551.621 765.87 552.832C764.62 554.043 763.897 555.747 763.702 557.944C764.825 556.655 766.358 556.011 768.302 556.011C770.157 556.011 771.637 556.665 772.74 557.974C773.854 559.282 774.41 560.972 774.41 563.042C774.41 565.239 773.81 566.997 772.608 568.315C771.417 569.634 769.815 570.293 767.804 570.293C765.763 570.293 764.107 569.512 762.838 567.949C761.568 566.377 760.934 564.355 760.934 561.885V560.845C760.934 556.919 761.769 553.921 763.438 551.851C765.118 549.771 767.613 548.706 770.924 548.657H771.407ZM767.848 558.267C766.92 558.267 766.065 558.545 765.284 559.102C764.503 559.658 763.961 560.356 763.658 561.196V562.192C763.658 563.95 764.054 565.366 764.845 566.44C765.636 567.515 766.622 568.052 767.804 568.052C769.024 568.052 769.981 567.603 770.675 566.704C771.378 565.806 771.729 564.629 771.729 563.174C771.729 561.709 771.373 560.527 770.66 559.629C769.957 558.721 769.02 558.267 767.848 558.267Z" fill="#B8B8B8"/>
</g>
<g filter="url(#filter11_ii)">
<path d="M733 624C733 621.239 735.239 619 738 619H797C799.761 619 802 621.239 802 624V681C802 683.761 799.761 686 797 686H738C735.239 686 733 683.761 733 681V624Z" fill="#343434"/>
<path d="M764.713 651.018H766.749C768.028 650.998 769.034 650.661 769.767 650.007C770.499 649.353 770.865 648.469 770.865 647.355C770.865 644.855 769.62 643.605 767.13 643.605C765.958 643.605 765.021 643.942 764.317 644.616C763.624 645.28 763.277 646.164 763.277 647.268H760.567C760.567 645.578 761.183 644.177 762.413 643.063C763.653 641.94 765.226 641.379 767.13 641.379C769.142 641.379 770.719 641.911 771.861 642.976C773.004 644.04 773.575 645.52 773.575 647.414C773.575 648.342 773.272 649.24 772.667 650.109C772.071 650.979 771.256 651.628 770.221 652.058C771.393 652.429 772.296 653.044 772.931 653.903C773.575 654.763 773.897 655.812 773.897 657.053C773.897 658.967 773.272 660.485 772.022 661.608C770.772 662.731 769.146 663.293 767.145 663.293C765.143 663.293 763.512 662.751 762.252 661.667C761.002 660.583 760.377 659.152 760.377 657.375H763.102C763.102 658.498 763.468 659.396 764.2 660.07C764.933 660.744 765.914 661.081 767.145 661.081C768.453 661.081 769.454 660.739 770.147 660.056C770.841 659.372 771.188 658.391 771.188 657.111C771.188 655.871 770.807 654.919 770.045 654.255C769.283 653.591 768.185 653.249 766.749 653.229H764.713V651.018Z" fill="#B8B8B8"/>
</g>
<g filter="url(#filter12_dd)">
<path d="M733 717C733 714.239 735.239 712 738 712H797C799.761 712 802 714.239 802 717V774C802 776.761 799.761 779 797 779H738C735.239 779 733 776.761 733 774V717Z" fill="#343434"/>
<path d="M765.609 754.579C765.609 754.11 765.746 753.72 766.02 753.407C766.303 753.095 766.723 752.938 767.279 752.938C767.836 752.938 768.256 753.095 768.539 753.407C768.832 753.72 768.979 754.11 768.979 754.579C768.979 755.028 768.832 755.404 768.539 755.707C768.256 756.01 767.836 756.161 767.279 756.161C766.723 756.161 766.303 756.01 766.02 755.707C765.746 755.404 765.609 755.028 765.609 754.579Z" fill="#B8B8B8"/>
</g>
<g filter="url(#filter13_dd)">
<path d="M828 345C828 342.239 830.239 340 833 340H892C894.761 340 897 342.239 897 345V402C897 404.761 894.761 407 892 407H833C830.239 407 828 404.761 828 402V345Z" fill="#343434"/>
<path d="M858.593 385.831H856.264L865.17 362.672H867.484L858.593 385.831Z" fill="#B8B8B8"/>
</g>
<g filter="url(#filter14_dd)">
<path d="M828 438C828 435.239 830.239 433 833 433H892C894.761 433 897 435.239 897 438V495C897 497.761 894.761 500 892 500H833C830.239 500 828 497.761 828 495V438Z" fill="#343434"/>
<path d="M860.834 462.601L856.41 461.282L857.084 459.07L861.508 460.711L861.376 455.672H863.617L863.471 460.784L867.821 459.173L868.495 461.399L863.998 462.732L866.898 466.702L865.082 468.079L862.357 463.86L859.721 467.977L857.89 466.644L860.834 462.601Z" fill="#B8B8B8"/>
</g>
<g filter="url(#filter15_dd)">
<path d="M828 531C828 528.239 830.239 526 833 526H892C894.761 526 897 528.239 897 531V588C897 590.761 894.761 593 892 593H833C830.239 593 828 590.761 828 588V531Z" fill="#343434"/>
<path d="M865.69 562.046H858.542V559.834H865.69V562.046Z" fill="#B8B8B8"/>
</g>
<g filter="url(#filter16_dd)">
<path d="M828 624C828 621.239 830.239 619 833 619H892C894.761 619 897 621.239 897 624V681C897 683.761 894.761 686 892 686H833C830.239 686 828 683.761 828 681V624Z" fill="#343434"/>
<path d="M863.314 651.56H869.262V654.123H863.314V660.861H860.59V654.123H854.643V651.56H860.59V645.334H863.314V651.56Z" fill="#B8B8B8"/>
</g>
<g filter="url(#filter17_dd)">
<path d="M828 717C828 714.239 830.239 712 833 712H892C894.761 712 897 714.239 897 717V774C897 776.761 894.761 779 892 779H833C830.239 779 828 776.761 828 774V717Z" fill="#343434"/>
<path d="M868.443 744.076H856.227V741.718H868.443V744.076ZM868.443 750.155H856.227V747.812H868.443V750.155Z" fill="#B8B8B8"/>
</g>
<g filter="url(#filter18_dd)">
<rect x="543" y="246" width="354" height="72" rx="5" fill="#343434"/>
</g>
<path d="M584.287 295C583.165 295 582.208 294.615 581.416 293.845C580.646 293.053 580.261 292.107 580.261 291.007V290.479H583V291.007C583 291.359 583.121 291.667 583.363 291.931C583.627 292.173 583.935 292.294 584.287 292.294H600.292C600.644 292.294 600.941 292.173 601.183 291.931C601.447 291.667 601.579 291.359 601.579 291.007V285.496C601.579 285.144 601.447 284.847 601.183 284.605C600.941 284.341 600.644 284.209 600.292 284.209H584.815V281.503H599.236C599.588 281.503 599.885 281.382 600.127 281.14C600.391 280.876 600.523 280.568 600.523 280.216V275.233C600.523 274.881 600.391 274.584 600.127 274.342C599.885 274.078 599.588 273.946 599.236 273.946H584.287C583.935 273.946 583.627 274.078 583.363 274.342C583.121 274.584 583 274.881 583 275.233V276.091H580.261V275.233C580.261 274.111 580.646 273.165 581.416 272.395C582.208 271.603 583.165 271.207 584.287 271.207H599.236C600.358 271.207 601.304 271.603 602.074 272.395C602.844 273.165 603.229 274.111 603.229 275.233V280.216C603.229 280.524 603.185 280.832 603.097 281.14C603.031 281.426 602.943 281.69 602.833 281.932C603.383 282.46 603.757 283.043 603.955 283.681C604.175 284.319 604.285 284.924 604.285 285.496V291.007C604.285 292.107 603.889 293.053 603.097 293.845C602.327 294.615 601.392 295 600.292 295H584.287ZM622.539 295V288.862H605.973V285.826L622.209 271.207H625.245V286.156H628.941V288.862H625.245V295H622.539ZM609.438 286.156H622.539V274.87L609.438 286.156ZM646.645 295V288.862H630.079V285.826L646.315 271.207H649.351V286.156H653.047V288.862H649.351V295H646.645ZM633.544 286.156H646.645V274.87L633.544 286.156ZM659.761 295C658.639 295 657.682 294.615 656.89 293.845C656.12 293.053 655.735 292.107 655.735 291.007V290.479H658.474V291.007C658.474 291.359 658.595 291.667 658.837 291.931C659.101 292.173 659.409 292.294 659.761 292.294H675.766C676.118 292.294 676.415 292.173 676.657 291.931C676.921 291.667 677.053 291.359 677.053 291.007V285.496C677.053 285.144 676.921 284.847 676.657 284.605C676.415 284.341 676.118 284.209 675.766 284.209H660.289V281.503H674.71C675.062 281.503 675.359 281.382 675.601 281.14C675.865 280.876 675.997 280.568 675.997 280.216V275.233C675.997 274.881 675.865 274.584 675.601 274.342C675.359 274.078 675.062 273.946 674.71 273.946H659.761C659.409 273.946 659.101 274.078 658.837 274.342C658.595 274.584 658.474 274.881 658.474 275.233V276.091H655.735V275.233C655.735 274.111 656.12 273.165 656.89 272.395C657.682 271.603 658.639 271.207 659.761 271.207H674.71C675.832 271.207 676.778 271.603 677.548 272.395C678.318 273.165 678.703 274.111 678.703 275.233V280.216C678.703 280.524 678.659 280.832 678.571 281.14C678.505 281.426 678.417 281.69 678.307 281.932C678.857 282.46 679.231 283.043 679.429 283.681C679.649 284.319 679.759 284.924 679.759 285.496V291.007C679.759 292.107 679.363 293.053 678.571 293.845C677.801 294.615 676.866 295 675.766 295H659.761ZM683.131 295V286.09C683.131 284.968 683.516 284.022 684.286 283.252C685.056 282.482 686.002 282.097 687.124 282.097H703.129C703.481 282.097 703.778 281.976 704.02 281.734C704.284 281.47 704.416 281.162 704.416 280.81V275.233C704.416 274.881 704.284 274.584 704.02 274.342C703.778 274.078 703.481 273.946 703.129 273.946H687.124C686.772 273.946 686.464 274.078 686.2 274.342C685.958 274.584 685.837 274.881 685.837 275.233V276.157H683.131V275.233C683.131 274.111 683.516 273.165 684.286 272.395C685.056 271.603 686.002 271.207 687.124 271.207H703.129C704.229 271.207 705.164 271.603 705.934 272.395C706.726 273.165 707.122 274.111 707.122 275.233V280.81C707.122 281.91 706.726 282.856 705.934 283.648C705.164 284.418 704.229 284.803 703.129 284.803H687.124C686.772 284.803 686.464 284.935 686.2 285.199C685.958 285.441 685.837 285.738 685.837 286.09V291.007C685.837 291.359 685.958 291.667 686.2 291.931C686.464 292.173 686.772 292.294 687.124 292.294H707.122V295H683.131ZM710.524 295V286.09C710.524 284.968 710.909 284.022 711.679 283.252C712.449 282.482 713.395 282.097 714.517 282.097H730.522C730.874 282.097 731.171 281.976 731.413 281.734C731.677 281.47 731.809 281.162 731.809 280.81V275.233C731.809 274.881 731.677 274.584 731.413 274.342C731.171 274.078 730.874 273.946 730.522 273.946H714.517C714.165 273.946 713.857 274.078 713.593 274.342C713.351 274.584 713.23 274.881 713.23 275.233V276.157H710.524V275.233C710.524 274.111 710.909 273.165 711.679 272.395C712.449 271.603 713.395 271.207 714.517 271.207H730.522C731.622 271.207 732.557 271.603 733.327 272.395C734.119 273.165 734.515 274.111 734.515 275.233V280.81C734.515 281.91 734.119 282.856 733.327 283.648C732.557 284.418 731.622 284.803 730.522 284.803H714.517C714.165 284.803 713.857 284.935 713.593 285.199C713.351 285.441 713.23 285.738 713.23 286.09V291.007C713.23 291.359 713.351 291.667 713.593 291.931C713.857 292.173 714.165 292.294 714.517 292.294H734.515V295H710.524ZM743.262 295V274.276L739.599 278.665H736.068L742.305 271.24H746.001V295H743.262ZM756.153 295V274.276L752.49 278.665H748.959L755.196 271.24H758.892V295H756.153ZM763.697 295V286.09C763.697 284.968 764.082 284.022 764.852 283.252C765.622 282.482 766.568 282.097 767.69 282.097H783.695C784.047 282.097 784.344 281.976 784.586 281.734C784.85 281.47 784.982 281.162 784.982 280.81V275.233C784.982 274.881 784.85 274.584 784.586 274.342C784.344 274.078 784.047 273.946 783.695 273.946H767.69C767.338 273.946 767.03 274.078 766.766 274.342C766.524 274.584 766.403 274.881 766.403 275.233V276.157H763.697V275.233C763.697 274.111 764.082 273.165 764.852 272.395C765.622 271.603 766.568 271.207 767.69 271.207H783.695C784.795 271.207 785.73 271.603 786.5 272.395C787.292 273.165 787.688 274.111 787.688 275.233V280.81C787.688 281.91 787.292 282.856 786.5 283.648C785.73 284.418 784.795 284.803 783.695 284.803H767.69C767.338 284.803 767.03 284.935 766.766 285.199C766.524 285.441 766.403 285.738 766.403 286.09V291.007C766.403 291.359 766.524 291.667 766.766 291.931C767.03 292.173 767.338 292.294 767.69 292.294H787.688V295H763.697ZM794.984 295C793.862 295 792.905 294.615 792.113 293.845C791.343 293.053 790.958 292.107 790.958 291.007V290.479H793.697V291.007C793.697 291.359 793.818 291.667 794.06 291.931C794.324 292.173 794.632 292.294 794.984 292.294H810.989C811.341 292.294 811.638 292.173 811.88 291.931C812.144 291.667 812.276 291.359 812.276 291.007V285.496C812.276 285.144 812.144 284.847 811.88 284.605C811.638 284.341 811.341 284.209 810.989 284.209H795.512V281.503H809.933C810.285 281.503 810.582 281.382 810.824 281.14C811.088 280.876 811.22 280.568 811.22 280.216V275.233C811.22 274.881 811.088 274.584 810.824 274.342C810.582 274.078 810.285 273.946 809.933 273.946H794.984C794.632 273.946 794.324 274.078 794.06 274.342C793.818 274.584 793.697 274.881 793.697 275.233V276.091H790.958V275.233C790.958 274.111 791.343 273.165 792.113 272.395C792.905 271.603 793.862 271.207 794.984 271.207H809.933C811.055 271.207 812.001 271.603 812.771 272.395C813.541 273.165 813.926 274.111 813.926 275.233V280.216C813.926 280.524 813.882 280.832 813.794 281.14C813.728 281.426 813.64 281.69 813.53 281.932C814.08 282.46 814.454 283.043 814.652 283.681C814.872 284.319 814.982 284.924 814.982 285.496V291.007C814.982 292.107 814.586 293.053 813.794 293.845C813.024 294.615 812.089 295 810.989 295H794.984ZM822.248 295C821.126 295 820.169 294.615 819.377 293.845C818.607 293.053 818.222 292.107 818.222 291.007V290.479H820.961V291.007C820.961 291.359 821.082 291.667 821.324 291.931C821.588 292.173 821.896 292.294 822.248 292.294H838.253C838.605 292.294 838.902 292.173 839.144 291.931C839.408 291.667 839.54 291.359 839.54 291.007V285.496C839.54 285.144 839.408 284.847 839.144 284.605C838.902 284.341 838.605 284.209 838.253 284.209H822.776V281.503H837.197C837.549 281.503 837.846 281.382 838.088 281.14C838.352 280.876 838.484 280.568 838.484 280.216V275.233C838.484 274.881 838.352 274.584 838.088 274.342C837.846 274.078 837.549 273.946 837.197 273.946H822.248C821.896 273.946 821.588 274.078 821.324 274.342C821.082 274.584 820.961 274.881 820.961 275.233V276.091H818.222V275.233C818.222 274.111 818.607 273.165 819.377 272.395C820.169 271.603 821.126 271.207 822.248 271.207H837.197C838.319 271.207 839.265 271.603 840.035 272.395C840.805 273.165 841.19 274.111 841.19 275.233V280.216C841.19 280.524 841.146 280.832 841.058 281.14C840.992 281.426 840.904 281.69 840.794 281.932C841.344 282.46 841.718 283.043 841.916 283.681C842.136 284.319 842.246 284.924 842.246 285.496V291.007C842.246 292.107 841.85 293.053 841.058 293.845C840.288 294.615 839.353 295 838.253 295H822.248ZM849.511 295C848.389 295 847.432 294.615 846.64 293.845C845.87 293.053 845.485 292.107 845.485 291.007V290.479H848.224V291.007C848.224 291.359 848.345 291.667 848.587 291.931C848.851 292.173 849.159 292.294 849.511 292.294H865.516C865.868 292.294 866.165 292.173 866.407 291.931C866.671 291.667 866.803 291.359 866.803 291.007V285.496C866.803 285.144 866.671 284.847 866.407 284.605C866.165 284.341 865.868 284.209 865.516 284.209H850.039V281.503H864.46C864.812 281.503 865.109 281.382 865.351 281.14C865.615 280.876 865.747 280.568 865.747 280.216V275.233C865.747 274.881 865.615 274.584 865.351 274.342C865.109 274.078 864.812 273.946 864.46 273.946H849.511C849.159 273.946 848.851 274.078 848.587 274.342C848.345 274.584 848.224 274.881 848.224 275.233V276.091H845.485V275.233C845.485 274.111 845.87 273.165 846.64 272.395C847.432 271.603 848.389 271.207 849.511 271.207H864.46C865.582 271.207 866.528 271.603 867.298 272.395C868.068 273.165 868.453 274.111 868.453 275.233V280.216C868.453 280.524 868.409 280.832 868.321 281.14C868.255 281.426 868.167 281.69 868.057 281.932C868.607 282.46 868.981 283.043 869.179 283.681C869.399 284.319 869.509 284.924 869.509 285.496V291.007C869.509 292.107 869.113 293.053 868.321 293.845C867.551 294.615 866.616 295 865.516 295H849.511Z" fill="#00C42B"/>
<defs>
<filter id="filter0_dd" x="531" y="421" width="93" height="91" filterUnits="userSpaceOnUse" color-interpolation-filters="sRGB">
<feFlood flood-opacity="0" result="BackgroundImageFix"/>
<feColorMatrix in="SourceAlpha" type="matrix" values="0 0 0 0 0 0 0 0 0 0 0 0 0 0 0 0 0 0 127 0"/>
<feOffset dx="4" dy="4"/>
<feGaussianBlur stdDeviation="4"/>
<feColorMatrix type="matrix" values="0 0 0 0 0 0 0 0 0 0 0 0 0 0 0 0 0 0 0.37 0"/>
<feBlend mode="normal" in2="BackgroundImageFix" result="effect1_dropShadow"/>
<feColorMatrix in="SourceAlpha" type="matrix" values="0 0 0 0 0 0 0 0 0 0 0 0 0 0 0 0 0 0 127 0"/>
<feOffset dx="-4" dy="-4"/>
<feGaussianBlur stdDeviation="4"/>
<feColorMatrix type="matrix" values="0 0 0 0 0.620833 0 0 0 0 0.620833 0 0 0 0 0.620833 0 0 0 0.19 0"/>
<feBlend mode="normal" in2="effect1_dropShadow" result="effect2_dropShadow"/>
<feBlend mode="normal" in="SourceGraphic" in2="effect2_dropShadow" result="shape"/>
</filter>
<filter id="filter1_dd" x="531" y="514" width="93" height="91" filterUnits="userSpaceOnUse" color-interpolation-filters="sRGB">
<feFlood flood-opacity="0" result="BackgroundImageFix"/>
<feColorMatrix in="SourceAlpha" type="matrix" values="0 0 0 0 0 0 0 0 0 0 0 0 0 0 0 0 0 0 127 0"/>
<feOffset dx="4" dy="4"/>
<feGaussianBlur stdDeviation="4"/>
<feColorMatrix type="matrix" values="0 0 0 0 0 0 0 0 0 0 0 0 0 0 0 0 0 0 0.37 0"/>
<feBlend mode="normal" in2="BackgroundImageFix" result="effect1_dropShadow"/>
<feColorMatrix in="SourceAlpha" type="matrix" values="0 0 0 0 0 0 0 0 0 0 0 0 0 0 0 0 0 0 127 0"/>
<feOffset dx="-4" dy="-4"/>
<feGaussianBlur stdDeviation="4"/>
<feColorMatrix type="matrix" values="0 0 0 0 0.620833 0 0 0 0 0.620833 0 0 0 0 0.620833 0 0 0 0.19 0"/>
<feBlend mode="normal" in2="effect1_dropShadow" result="effect2_dropShadow"/>
<feBlend mode="normal" in="SourceGraphic" in2="effect2_dropShadow" result="shape"/>
</filter>
<filter id="filter2_dd" x="531" y="607" width="93" height="91" filterUnits="userSpaceOnUse" color-interpolation-filters="sRGB">
<feFlood flood-opacity="0" result="BackgroundImageFix"/>
<feColorMatrix in="SourceAlpha" type="matrix" values="0 0 0 0 0 0 0 0 0 0 0 0 0 0 0 0 0 0 127 0"/>
<feOffset dx="4" dy="4"/>
<feGaussianBlur stdDeviation="4"/>
<feColorMatrix type="matrix" values="0 0 0 0 0 0 0 0 0 0 0 0 0 0 0 0 0 0 0.37 0"/>
<feBlend mode="normal" in2="BackgroundImageFix" result="effect1_dropShadow"/>
<feColorMatrix in="SourceAlpha" type="matrix" values="0 0 0 0 0 0 0 0 0 0 0 0 0 0 0 0 0 0 127 0"/>
<feOffset dx="-4" dy="-4"/>
<feGaussianBlur stdDeviation="4"/>
<feColorMatrix type="matrix" values="0 0 0 0 0.620833 0 0 0 0 0.620833 0 0 0 0 0.620833 0 0 0 0.19 0"/>
<feBlend mode="normal" in2="effect1_dropShadow" result="effect2_dropShadow"/>
<feBlend mode="normal" in="SourceGraphic" in2="effect2_dropShadow" result="shape"/>
</filter>
<filter id="filter3_dd" x="531" y="328" width="188" height="91" filterUnits="userSpaceOnUse" color-interpolation-filters="sRGB">
<feFlood flood-opacity="0" result="BackgroundImageFix"/>
<feColorMatrix in="SourceAlpha" type="matrix" values="0 0 0 0 0 0 0 0 0 0 0 0 0 0 0 0 0 0 127 0"/>
<feOffset dx="4" dy="4"/>
<feGaussianBlur stdDeviation="4"/>
<feColorMatrix type="matrix" values="0 0 0 0 0 0 0 0 0 0 0 0 0 0 0 0 0 0 0.37 0"/>
<feBlend mode="normal" in2="BackgroundImageFix" result="effect1_dropShadow"/>
<feColorMatrix in="SourceAlpha" type="matrix" values="0 0 0 0 0 0 0 0 0 0 0 0 0 0 0 0 0 0 127 0"/>
<feOffset dx="-4" dy="-4"/>
<feGaussianBlur stdDeviation="4"/>
<feColorMatrix type="matrix" values="0 0 0 0 0.620833 0 0 0 0 0.620833 0 0 0 0 0.620833 0 0 0 0.19 0"/>
<feBlend mode="normal" in2="effect1_dropShadow" result="effect2_dropShadow"/>
<feBlend mode="normal" in="SourceGraphic" in2="effect2_dropShadow" result="shape"/>
</filter>
<filter id="filter4_dd" x="626" y="421" width="93" height="91" filterUnits="userSpaceOnUse" color-interpolation-filters="sRGB">
<feFlood flood-opacity="0" result="BackgroundImageFix"/>
<feColorMatrix in="SourceAlpha" type="matrix" values="0 0 0 0 0 0 0 0 0 0 0 0 0 0 0 0 0 0 127 0"/>
<feOffset dx="4" dy="4"/>
<feGaussianBlur stdDeviation="4"/>
<feColorMatrix type="matrix" values="0 0 0 0 0 0 0 0 0 0 0 0 0 0 0 0 0 0 0.37 0"/>
<feBlend mode="normal" in2="BackgroundImageFix" result="effect1_dropShadow"/>
<feColorMatrix in="SourceAlpha" type="matrix" values="0 0 0 0 0 0 0 0 0 0 0 0 0 0 0 0 0 0 127 0"/>
<feOffset dx="-4" dy="-4"/>
<feGaussianBlur stdDeviation="4"/>
<feColorMatrix type="matrix" values="0 0 0 0 0.620833 0 0 0 0 0.620833 0 0 0 0 0.620833 0 0 0 0.19 0"/>
<feBlend mode="normal" in2="effect1_dropShadow" result="effect2_dropShadow"/>
<feBlend mode="normal" in="SourceGraphic" in2="effect2_dropShadow" result="shape"/>
</filter>
<filter id="filter5_dd" x="626" y="514" width="93" height="91" filterUnits="userSpaceOnUse" color-interpolation-filters="sRGB">
<feFlood flood-opacity="0" result="BackgroundImageFix"/>
<feColorMatrix in="SourceAlpha" type="matrix" values="0 0 0 0 0 0 0 0 0 0 0 0 0 0 0 0 0 0 127 0"/>
<feOffset dx="4" dy="4"/>
<feGaussianBlur stdDeviation="4"/>
<feColorMatrix type="matrix" values="0 0 0 0 0 0 0 0 0 0 0 0 0 0 0 0 0 0 0.37 0"/>
<feBlend mode="normal" in2="BackgroundImageFix" result="effect1_dropShadow"/>
<feColorMatrix in="SourceAlpha" type="matrix" values="0 0 0 0 0 0 0 0 0 0 0 0 0 0 0 0 0 0 127 0"/>
<feOffset dx="-4" dy="-4"/>
<feGaussianBlur stdDeviation="4"/>
<feColorMatrix type="matrix" values="0 0 0 0 0.620833 0 0 0 0 0.620833 0 0 0 0 0.620833 0 0 0 0.19 0"/>
<feBlend mode="normal" in2="effect1_dropShadow" result="effect2_dropShadow"/>
<feBlend mode="normal" in="SourceGraphic" in2="effect2_dropShadow" result="shape"/>
</filter>
<filter id="filter6_dd" x="626" y="607" width="93" height="91" filterUnits="userSpaceOnUse" color-interpolation-filters="sRGB">
<feFlood flood-opacity="0" result="BackgroundImageFix"/>
<feColorMatrix in="SourceAlpha" type="matrix" values="0 0 0 0 0 0 0 0 0 0 0 0 0 0 0 0 0 0 127 0"/>
<feOffset dx="4" dy="4"/>
<feGaussianBlur stdDeviation="4"/>
<feColorMatrix type="matrix" values="0 0 0 0 0 0 0 0 0 0 0 0 0 0 0 0 0 0 0.37 0"/>
<feBlend mode="normal" in2="BackgroundImageFix" result="effect1_dropShadow"/>
<feColorMatrix in="SourceAlpha" type="matrix" values="0 0 0 0 0 0 0 0 0 0 0 0 0 0 0 0 0 0 127 0"/>
<feOffset dx="-4" dy="-4"/>
<feGaussianBlur stdDeviation="4"/>
<feColorMatrix type="matrix" values="0 0 0 0 0.620833 0 0 0 0 0.620833 0 0 0 0 0.620833 0 0 0 0.19 0"/>
<feBlend mode="normal" in2="effect1_dropShadow" result="effect2_dropShadow"/>
<feBlend mode="normal" in="SourceGraphic" in2="effect2_dropShadow" result="shape"/>
</filter>
<filter id="filter7_dd" x="531" y="700" width="188" height="91" filterUnits="userSpaceOnUse" color-interpolation-filters="sRGB">
<feFlood flood-opacity="0" result="BackgroundImageFix"/>
<feColorMatrix in="SourceAlpha" type="matrix" values="0 0 0 0 0 0 0 0 0 0 0 0 0 0 0 0 0 0 127 0"/>
<feOffset dx="4" dy="4"/>
<feGaussianBlur stdDeviation="4"/>
<feColorMatrix type="matrix" values="0 0 0 0 0 0 0 0 0 0 0 0 0 0 0 0 0 0 0.37 0"/>
<feBlend mode="normal" in2="BackgroundImageFix" result="effect1_dropShadow"/>
<feColorMatrix in="SourceAlpha" type="matrix" values="0 0 0 0 0 0 0 0 0 0 0 0 0 0 0 0 0 0 127 0"/>
<feOffset dx="-4" dy="-4"/>
<feGaussianBlur stdDeviation="4"/>
<feColorMatrix type="matrix" values="0 0 0 0 0.620833 0 0 0 0 0.620833 0 0 0 0 0.620833 0 0 0 0.19 0"/>
<feBlend mode="normal" in2="effect1_dropShadow" result="effect2_dropShadow"/>
<feBlend mode="normal" in="SourceGraphic" in2="effect2_dropShadow" result="shape"/>
</filter>
<filter id="filter8_dd" x="721" y="328" width="93" height="91" filterUnits="userSpaceOnUse" color-interpolation-filters="sRGB">
<feFlood flood-opacity="0" result="BackgroundImageFix"/>
<feColorMatrix in="SourceAlpha" type="matrix" values="0 0 0 0 0 0 0 0 0 0 0 0 0 0 0 0 0 0 127 0"/>
<feOffset dx="4" dy="4"/>
<feGaussianBlur stdDeviation="4"/>
<feColorMatrix type="matrix" values="0 0 0 0 0 0 0 0 0 0 0 0 0 0 0 0 0 0 0.37 0"/>
<feBlend mode="normal" in2="BackgroundImageFix" result="effect1_dropShadow"/>
<feColorMatrix in="SourceAlpha" type="matrix" values="0 0 0 0 0 0 0 0 0 0 0 0 0 0 0 0 0 0 127 0"/>
<feOffset dx="-4" dy="-4"/>
<feGaussianBlur stdDeviation="4"/>
<feColorMatrix type="matrix" values="0 0 0 0 0.620833 0 0 0 0 0.620833 0 0 0 0 0.620833 0 0 0 0.19 0"/>
<feBlend mode="normal" in2="effect1_dropShadow" result="effect2_dropShadow"/>
<feBlend mode="normal" in="SourceGraphic" in2="effect2_dropShadow" result="shape"/>
</filter>
<filter id="filter9_dd" x="721" y="421" width="93" height="91" filterUnits="userSpaceOnUse" color-interpolation-filters="sRGB">
<feFlood flood-opacity="0" result="BackgroundImageFix"/>
<feColorMatrix in="SourceAlpha" type="matrix" values="0 0 0 0 0 0 0 0 0 0 0 0 0 0 0 0 0 0 127 0"/>
<feOffset dx="4" dy="4"/>
<feGaussianBlur stdDeviation="4"/>
<feColorMatrix type="matrix" values="0 0 0 0 0 0 0 0 0 0 0 0 0 0 0 0 0 0 0.37 0"/>
<feBlend mode="normal" in2="BackgroundImageFix" result="effect1_dropShadow"/>
<feColorMatrix in="SourceAlpha" type="matrix" values="0 0 0 0 0 0 0 0 0 0 0 0 0 0 0 0 0 0 127 0"/>
<feOffset dx="-4" dy="-4"/>
<feGaussianBlur stdDeviation="4"/>
<feColorMatrix type="matrix" values="0 0 0 0 0.620833 0 0 0 0 0.620833 0 0 0 0 0.620833 0 0 0 0.19 0"/>
<feBlend mode="normal" in2="effect1_dropShadow" result="effect2_dropShadow"/>
<feBlend mode="normal" in="SourceGraphic" in2="effect2_dropShadow" result="shape"/>
</filter>
<filter id="filter10_dd" x="721" y="514" width="93" height="91" filterUnits="userSpaceOnUse" color-interpolation-filters="sRGB">
<feFlood flood-opacity="0" result="BackgroundImageFix"/>
<feColorMatrix in="SourceAlpha" type="matrix" values="0 0 0 0 0 0 0 0 0 0 0 0 0 0 0 0 0 0 127 0"/>
<feOffset dx="4" dy="4"/>
<feGaussianBlur stdDeviation="4"/>
<feColorMatrix type="matrix" values="0 0 0 0 0 0 0 0 0 0 0 0 0 0 0 0 0 0 0.37 0"/>
<feBlend mode="normal" in2="BackgroundImageFix" result="effect1_dropShadow"/>
<feColorMatrix in="SourceAlpha" type="matrix" values="0 0 0 0 0 0 0 0 0 0 0 0 0 0 0 0 0 0 127 0"/>
<feOffset dx="-4" dy="-4"/>
<feGaussianBlur stdDeviation="4"/>
<feColorMatrix type="matrix" values="0 0 0 0 0.620833 0 0 0 0 0.620833 0 0 0 0 0.620833 0 0 0 0.19 0"/>
<feBlend mode="normal" in2="effect1_dropShadow" result="effect2_dropShadow"/>
<feBlend mode="normal" in="SourceGraphic" in2="effect2_dropShadow" result="shape"/>
</filter>
<filter id="filter11_ii" x="731" y="617" width="75" height="73" filterUnits="userSpaceOnUse" color-interpolation-filters="sRGB">
<feFlood flood-opacity="0" result="BackgroundImageFix"/>
<feBlend mode="normal" in="SourceGraphic" in2="BackgroundImageFix" result="shape"/>
<feColorMatrix in="SourceAlpha" type="matrix" values="0 0 0 0 0 0 0 0 0 0 0 0 0 0 0 0 0 0 127 0" result="hardAlpha"/>
<feOffset dx="4" dy="4"/>
<feGaussianBlur stdDeviation="3"/>
<feComposite in2="hardAlpha" operator="arithmetic" k2="-1" k3="1"/>
<feColorMatrix type="matrix" values="0 0 0 0 0 0 0 0 0 0 0 0 0 0 0 0 0 0 0.25 0"/>
<feBlend mode="normal" in2="shape" result="effect1_innerShadow"/>
<feColorMatrix in="SourceAlpha" type="matrix" values="0 0 0 0 0 0 0 0 0 0 0 0 0 0 0 0 0 0 127 0" result="hardAlpha"/>
<feOffset dx="-2" dy="-2"/>
<feGaussianBlur stdDeviation="3"/>
<feComposite in2="hardAlpha" operator="arithmetic" k2="-1" k3="1"/>
<feColorMatrix type="matrix" values="0 0 0 0 1 0 0 0 0 1 0 0 0 0 1 0 0 0 0.2 0"/>
<feBlend mode="normal" in2="effect1_innerShadow" result="effect2_innerShadow"/>
</filter>
<filter id="filter12_dd" x="721" y="700" width="93" height="91" filterUnits="userSpaceOnUse" color-interpolation-filters="sRGB">
<feFlood flood-opacity="0" result="BackgroundImageFix"/>
<feColorMatrix in="SourceAlpha" type="matrix" values="0 0 0 0 0 0 0 0 0 0 0 0 0 0 0 0 0 0 127 0"/>
<feOffset dx="4" dy="4"/>
<feGaussianBlur stdDeviation="4"/>
<feColorMatrix type="matrix" values="0 0 0 0 0 0 0 0 0 0 0 0 0 0 0 0 0 0 0.37 0"/>
<feBlend mode="normal" in2="BackgroundImageFix" result="effect1_dropShadow"/>
<feColorMatrix in="SourceAlpha" type="matrix" values="0 0 0 0 0 0 0 0 0 0 0 0 0 0 0 0 0 0 127 0"/>
<feOffset dx="-4" dy="-4"/>
<feGaussianBlur stdDeviation="4"/>
<feColorMatrix type="matrix" values="0 0 0 0 0.620833 0 0 0 0 0.620833 0 0 0 0 0.620833 0 0 0 0.19 0"/>
<feBlend mode="normal" in2="effect1_dropShadow" result="effect2_dropShadow"/>
<feBlend mode="normal" in="SourceGraphic" in2="effect2_dropShadow" result="shape"/>
</filter>
<filter id="filter13_dd" x="816" y="328" width="93" height="91" filterUnits="userSpaceOnUse" color-interpolation-filters="sRGB">
<feFlood flood-opacity="0" result="BackgroundImageFix"/>
<feColorMatrix in="SourceAlpha" type="matrix" values="0 0 0 0 0 0 0 0 0 0 0 0 0 0 0 0 0 0 127 0"/>
<feOffset dx="4" dy="4"/>
<feGaussianBlur stdDeviation="4"/>
<feColorMatrix type="matrix" values="0 0 0 0 0 0 0 0 0 0 0 0 0 0 0 0 0 0 0.37 0"/>
<feBlend mode="normal" in2="BackgroundImageFix" result="effect1_dropShadow"/>
<feColorMatrix in="SourceAlpha" type="matrix" values="0 0 0 0 0 0 0 0 0 0 0 0 0 0 0 0 0 0 127 0"/>
<feOffset dx="-4" dy="-4"/>
<feGaussianBlur stdDeviation="4"/>
<feColorMatrix type="matrix" values="0 0 0 0 0.620833 0 0 0 0 0.620833 0 0 0 0 0.620833 0 0 0 0.19 0"/>
<feBlend mode="normal" in2="effect1_dropShadow" result="effect2_dropShadow"/>
<feBlend mode="normal" in="SourceGraphic" in2="effect2_dropShadow" result="shape"/>
</filter>
<filter id="filter14_dd" x="816" y="421" width="93" height="91" filterUnits="userSpaceOnUse" color-interpolation-filters="sRGB">
<feFlood flood-opacity="0" result="BackgroundImageFix"/>
<feColorMatrix in="SourceAlpha" type="matrix" values="0 0 0 0 0 0 0 0 0 0 0 0 0 0 0 0 0 0 127 0"/>
<feOffset dx="4" dy="4"/>
<feGaussianBlur stdDeviation="4"/>
<feColorMatrix type="matrix" values="0 0 0 0 0 0 0 0 0 0 0 0 0 0 0 0 0 0 0.37 0"/>
<feBlend mode="normal" in2="BackgroundImageFix" result="effect1_dropShadow"/>
<feColorMatrix in="SourceAlpha" type="matrix" values="0 0 0 0 0 0 0 0 0 0 0 0 0 0 0 0 0 0 127 0"/>
<feOffset dx="-4" dy="-4"/>
<feGaussianBlur stdDeviation="4"/>
<feColorMatrix type="matrix" values="0 0 0 0 0.620833 0 0 0 0 0.620833 0 0 0 0 0.620833 0 0 0 0.19 0"/>
<feBlend mode="normal" in2="effect1_dropShadow" result="effect2_dropShadow"/>
<feBlend mode="normal" in="SourceGraphic" in2="effect2_dropShadow" result="shape"/>
</filter>
<filter id="filter15_dd" x="816" y="514" width="93" height="91" filterUnits="userSpaceOnUse" color-interpolation-filters="sRGB">
<feFlood flood-opacity="0" result="BackgroundImageFix"/>
<feColorMatrix in="SourceAlpha" type="matrix" values="0 0 0 0 0 0 0 0 0 0 0 0 0 0 0 0 0 0 127 0"/>
<feOffset dx="4" dy="4"/>
<feGaussianBlur stdDeviation="4"/>
<feColorMatrix type="matrix" values="0 0 0 0 0 0 0 0 0 0 0 0 0 0 0 0 0 0 0.37 0"/>
<feBlend mode="normal" in2="BackgroundImageFix" result="effect1_dropShadow"/>
<feColorMatrix in="SourceAlpha" type="matrix" values="0 0 0 0 0 0 0 0 0 0 0 0 0 0 0 0 0 0 127 0"/>
<feOffset dx="-4" dy="-4"/>
<feGaussianBlur stdDeviation="4"/>
<feColorMatrix type="matrix" values="0 0 0 0 0.620833 0 0 0 0 0.620833 0 0 0 0 0.620833 0 0 0 0.19 0"/>
<feBlend mode="normal" in2="effect1_dropShadow" result="effect2_dropShadow"/>
<feBlend mode="normal" in="SourceGraphic" in2="effect2_dropShadow" result="shape"/>
</filter>
<filter id="filter16_dd" x="816" y="607" width="93" height="91" filterUnits="userSpaceOnUse" color-interpolation-filters="sRGB">
<feFlood flood-opacity="0" result="BackgroundImageFix"/>
<feColorMatrix in="SourceAlpha" type="matrix" values="0 0 0 0 0 0 0 0 0 0 0 0 0 0 0 0 0 0 127 0"/>
<feOffset dx="4" dy="4"/>
<feGaussianBlur stdDeviation="4"/>
<feColorMatrix type="matrix" values="0 0 0 0 0 0 0 0 0 0 0 0 0 0 0 0 0 0 0.37 0"/>
<feBlend mode="normal" in2="BackgroundImageFix" result="effect1_dropShadow"/>
<feColorMatrix in="SourceAlpha" type="matrix" values="0 0 0 0 0 0 0 0 0 0 0 0 0 0 0 0 0 0 127 0"/>
<feOffset dx="-4" dy="-4"/>
<feGaussianBlur stdDeviation="4"/>
<feColorMatrix type="matrix" values="0 0 0 0 0.620833 0 0 0 0 0.620833 0 0 0 0 0.620833 0 0 0 0.19 0"/>
<feBlend mode="normal" in2="effect1_dropShadow" result="effect2_dropShadow"/>
<feBlend mode="normal" in="SourceGraphic" in2="effect2_dropShadow" result="shape"/>
</filter>
<filter id="filter17_dd" x="816" y="700" width="93" height="91" filterUnits="userSpaceOnUse" color-interpolation-filters="sRGB">
<feFlood flood-opacity="0" result="BackgroundImageFix"/>
<feColorMatrix in="SourceAlpha" type="matrix" values="0 0 0 0 0 0 0 0 0 0 0 0 0 0 0 0 0 0 127 0"/>
<feOffset dx="4" dy="4"/>
<feGaussianBlur stdDeviation="4"/>
<feColorMatrix type="matrix" values="0 0 0 0 0 0 0 0 0 0 0 0 0 0 0 0 0 0 0.37 0"/>
<feBlend mode="normal" in2="BackgroundImageFix" result="effect1_dropShadow"/>
<feColorMatrix in="SourceAlpha" type="matrix" values="0 0 0 0 0 0 0 0 0 0 0 0 0 0 0 0 0 0 127 0"/>
<feOffset dx="-4" dy="-4"/>
<feGaussianBlur stdDeviation="4"/>
<feColorMatrix type="matrix" values="0 0 0 0 0.620833 0 0 0 0 0.620833 0 0 0 0 0.620833 0 0 0 0.19 0"/>
<feBlend mode="normal" in2="effect1_dropShadow" result="effect2_dropShadow"/>
<feBlend mode="normal" in="SourceGraphic" in2="effect2_dropShadow" result="shape"/>
</filter>
<filter id="filter18_dd" x="531" y="234" width="378" height="96" filterUnits="userSpaceOnUse" color-interpolation-filters="sRGB">
<feFlood flood-opacity="0" result="BackgroundImageFix"/>
<feColorMatrix in="SourceAlpha" type="matrix" values="0 0 0 0 0 0 0 0 0 0 0 0 0 0 0 0 0 0 127 0"/>
<feOffset dx="4" dy="4"/>
<feGaussianBlur stdDeviation="4"/>
<feColorMatrix type="matrix" values="0 0 0 0 0 0 0 0 0 0 0 0 0 0 0 0 0 0 0.37 0"/>
<feBlend mode="normal" in2="BackgroundImageFix" result="effect1_dropShadow"/>
<feColorMatrix in="SourceAlpha" type="matrix" values="0 0 0 0 0 0 0 0 0 0 0 0 0 0 0 0 0 0 127 0"/>
<feOffset dx="-4" dy="-4"/>
<feGaussianBlur stdDeviation="4"/>
<feColorMatrix type="matrix" values="0 0 0 0 0.620833 0 0 0 0 0.620833 0 0 0 0 0.620833 0 0 0 0.19 0"/>
<feBlend mode="normal" in2="effect1_dropShadow" result="effect2_dropShadow"/>
<feBlend mode="normal" in="SourceGraphic" in2="effect2_dropShadow" result="shape"/>
</filter>
</defs>
</svg>
