<svg id="Capa_1" enable-background="new 0 0 512 512" height="512" viewBox="0 0 512 512" width="512" xmlns="http://www.w3.org/2000/svg"><g><path d="m379.43 66.43v16.66c0 22.92-18.66 41.58-41.58 41.58h-83c-6.39 0-11.58 5.19-11.58 11.58v35.75h-30v-35.75c0-12.83 5.84-24.32 15-31.96 7.22-6.01 16.49-9.62 26.58-9.62h83c6.38 0 11.58-5.2 11.58-11.58v-16.66z" fill="#2a386b"/><g fill="#febf01"><path d="m349.427 0h30v36.5h-30z"/><path d="m302.894 31.976h30.001v36.499h-30.001z" transform="matrix(.697 -.717 .717 .697 60.189 243.015)"/><path d="m392.92 35.226h36.5v30h-36.5z" transform="matrix(.717 -.697 .697 .717 81.466 300.982)"/></g><circle cx="228.27" cy="361.02" fill="#ff641a" r="150.98"/><path d="m379.25 361.02c0 83.38-67.6 150.98-150.98 150.98v-301.96c83.38 0 150.98 67.59 150.98 150.98z" fill="#ea0016"/><path d="m158.72 155h139.1v71.98h-139.1z" fill="#48588b"/><path d="m228.27 155h69.55v71.98h-69.55z" fill="#3c4a83"/></g></svg>